<?xml version="1.0" standalone="no"?>
<!DOCTYPE svg PUBLIC "-//W3C//DTD SVG 1.1//EN" "http://www.w3.org/Graphics/SVG/1.1/DTD/svg11.dtd" >
<svg>
<metadata>
Created by FontForge 20090914 at Wed Apr 11 13:05:45 2018
 By www-data
Copyright &#194;&#169; 2015 by Nikita Prokopov
</metadata>
<defs>
<font id="FiraCode-Regular" horiz-adv-x="600" >
  <font-face 
    font-family="Fira Code"
    font-weight="400"
    font-stretch="normal"
    units-per-em="1000"
    panose-1="2 11 5 9 5 0 0 2 0 4"
    ascent="800"
    descent="-200"
    x-height="527"
    cap-height="689"
    bbox="-1777 -500 1192 1050"
    underline-thickness="50"
    underline-position="-50"
    unicode-range="U+000D-U+1F310"
  />
<missing-glyph 
d="M90 1050h420v-1400h-420v1400zM456 -298v1296h-311v-1296h311zM299.5 155.5c-5 -4.33301 -10.8359 -6.50195 -17.5029 -6.50195s-12.5 2.16699 -17.5 6.5s-7.5 10.166 -7.5 17.499v84c35.333 2 59.333 8.5 72 19.5s19 30.167 19 57.5c0 22 -4.33301 39 -13 51
s-24.667 18 -48 18c-19.333 0 -36.666 -3.66699 -51.999 -11c-4.66699 -2 -9 -3 -13 -3c-7.33301 0 -13.166 2.16699 -17.499 6.5s-6.5 9.83301 -6.5 16.5c0 12.667 9.83301 22.334 29.5 29.001s40.834 10 63.501 10c40 0 68.5 -10.667 85.5 -32s25.5 -49 25.5 -83
c0 -35.333 -7.5 -62.666 -22.5 -81.999s-39.167 -31.333 -72.5 -36v-45c0 -7.33301 -2.5 -13.166 -7.5 -17.499zM256.997 109.998c6.66699 6.66699 15 10 25 10s18.333 -3.33301 25 -10s10 -15 10 -25c0 -10.667 -3.33301 -19.5 -10 -26.5s-15 -10.5 -25 -10.5
s-18.333 3.5 -25 10.5s-10 15.833 -10 26.5c0 10 3.33301 18.333 10 25z" />
    <glyph glyph-name=".notdef" 
d="M90 1050h420v-1400h-420v1400zM456 -298v1296h-311v-1296h311zM299.5 155.5c-5 -4.33301 -10.8359 -6.50195 -17.5029 -6.50195s-12.5 2.16699 -17.5 6.5s-7.5 10.166 -7.5 17.499v84c35.333 2 59.333 8.5 72 19.5s19 30.167 19 57.5c0 22 -4.33301 39 -13 51
s-24.667 18 -48 18c-19.333 0 -36.666 -3.66699 -51.999 -11c-4.66699 -2 -9 -3 -13 -3c-7.33301 0 -13.166 2.16699 -17.499 6.5s-6.5 9.83301 -6.5 16.5c0 12.667 9.83301 22.334 29.5 29.001s40.834 10 63.501 10c40 0 68.5 -10.667 85.5 -32s25.5 -49 25.5 -83
c0 -35.333 -7.5 -62.666 -22.5 -81.999s-39.167 -31.333 -72.5 -36v-45c0 -7.33301 -2.5 -13.166 -7.5 -17.499zM256.997 109.998c6.66699 6.66699 15 10 25 10s18.333 -3.33301 25 -10s10 -15 10 -25c0 -10.667 -3.33301 -19.5 -10 -26.5s-15 -10.5 -25 -10.5
s-18.333 3.5 -25 10.5s-10 15.833 -10 26.5c0 10 3.33301 18.333 10 25z" />
    <glyph glyph-name="nonmarkingreturn" unicode="&#xd;" 
 />
    <glyph glyph-name="space" unicode=" " 
 />
    <glyph glyph-name="exclam" unicode="!" 
d="M345 689l-9 -462h-75l-10 462h94zM347 103.5c12.667 -13 19 -28.833 19 -47.5c0 -19.333 -6.33301 -35.333 -19 -48s-28.667 -19 -48 -19c-18.667 0 -34.5 6.5 -47.5 19.5s-19.5 28.833 -19.5 47.5s6.5 34.5 19.5 47.5s28.833 19.5 47.5 19.5
c19.333 0 35.333 -6.5 48 -19.5z" />
    <glyph glyph-name="quotedbl" unicode="&#x22;" 
d="M179 479l-15 260h105l-16 -260h-74zM347 479l-16 260h105l-15 -260h-74z" />
    <glyph glyph-name="numbersign" unicode="#" 
d="M458 456l-29 -222h81v-64h-91l-21 -170h-71l22 170h-145l-23 -170h-71l22 170h-79v64h87l31 222h-81v66h89l23 167h71l-23 -167h146l23 167h71l-23 -167h80v-66h-89zM212 234h145l31 222h-147z" />
    <glyph glyph-name="dollar" unicode="$" 
d="M346 698c36.667 -4 70.6621 -13.167 101.995 -27.5s58.333 -31.833 81 -52.5l-51 -53c-39.333 36 -83.333 57 -132 63v-227c58.667 -19.333 105.334 -45.333 140.001 -78s52 -77.334 52 -134.001c0 -50 -16.667 -93.167 -50 -129.5s-80.666 -58.5 -141.999 -66.5v-146
h-68v143c-43.333 2 -82.666 11.833 -117.999 29.5s-65.666 38.834 -90.999 63.501l50 56c47.333 -47.333 100.333 -73.333 159 -78v276c-60 20 -105.5 45.5 -136.5 76.5s-46.5 69.167 -46.5 114.5c0 27.333 6.83301 53.333 20.5 78s34.334 45.167 62.001 61.5
s61.167 26.5 100.5 30.5v150h68v-150zM209.495 594.5c-17 -16.333 -25.5 -38.167 -25.5 -65.5c0 -24.667 6.83301 -45 20.5 -61s38.167 -31 73.5 -45v203c-28.667 -4.66699 -51.5 -15.167 -68.5 -31.5zM345.995 64.999c67.333 13.333 101 54.333 101 123
c0 28.667 -7.66699 53 -23 73s-41.333 37.667 -78 53v-249z" />
    <glyph glyph-name="percent" unicode="%" 
d="M505 707l53 -35l-473 -692l-53 35zM273.5 653.5c26.333 -31 39.5 -69.165 39.5 -114.498c0 -28.667 -5.83301 -55.334 -17.5 -80.001s-28.667 -44.334 -51 -59.001s-48.5 -22 -78.5 -22s-56.167 7.5 -78.5 22.5s-39.333 34.667 -51 59s-17.5 50.833 -17.5 79.5
c0 45.333 13.333 83.5 40 114.5s62.334 46.5 107.001 46.5c45.333 0 81.166 -15.5 107.499 -46.5zM115.5 614.002c-13 -17.333 -19.5 -42.334 -19.5 -75.001c0 -31.333 6.5 -56.166 19.5 -74.499s29.833 -27.5 50.5 -27.5c21.333 0 38.166 8.5 50.499 25.5
s18.5 42.5 18.5 76.5c0 34.667 -6.16699 60.167 -18.5 76.5s-29.166 24.5 -50.499 24.5c-20.667 0 -37.5 -8.66699 -50.5 -26zM543.5 269.501c26.333 -31 39.5 -68.833 39.5 -113.5c0 -28.667 -5.83301 -55.334 -17.5 -80.001s-28.667 -44.5 -51 -59.5
s-48.5 -22.5 -78.5 -22.5s-56.167 7.5 -78.5 22.5s-39.333 34.833 -51 59.5s-17.5 51.334 -17.5 80.001c0 44.667 13.333 82.5 40 113.5s62.334 46.5 107.001 46.5c45.333 0 81.166 -15.5 107.499 -46.5zM385 231.001c-12.667 -16.667 -19 -41.667 -19 -75
c0 -32 6.5 -57.167 19.5 -75.5s29.833 -27.5 50.5 -27.5c21.333 0 38.166 8.5 50.499 25.5s18.5 42.833 18.5 77.5s-6.16699 60 -18.5 76s-29.166 24 -50.499 24s-38.333 -8.33301 -51 -25z" />
    <glyph glyph-name="ampersand" unicode="&#x26;" 
d="M367.5 683c26.333 -10.667 52.499 -30.3301 78.499 -58.9971l-50 -46c-18 20 -36.167 34.667 -54.5 44s-39.5 14 -63.5 14c-34.667 0 -61 -9.33301 -79 -28s-27 -43.334 -27 -74.001c0 -20 5.5 -38.833 16.5 -56.5s26 -31.667 45 -42s39.833 -15.5 62.5 -15.5h278v-67
h-90v-272c-20 -24.667 -46.667 -46.167 -80 -64.5s-75.666 -27.5 -126.999 -27.5c-49.333 0 -90.833 9.66699 -124.5 29s-58.5 44.666 -74.5 75.999s-24 65 -24 101c0 51.333 13.5 93.5 40.5 126.5s65.5 54.833 115.5 65.5v3c-42 10 -72.5 28 -91.5 54s-28.5 56 -28.5 90
c0 29.333 7.66699 56.666 23 81.999s37.333 45.5 66 60.5s62 22.5 100 22.5c32.667 0 62.167 -5.33301 88.5 -16zM282.999 353.004c-32.667 0 -60 -7.66699 -82 -23s-38.333 -34.833 -49 -58.5s-16 -48.167 -16 -73.5c0 -40 12 -73.5 36 -100.5s59.667 -40.5 107 -40.5
c28 0 53 4.5 75 13.5s39.667 21.833 53 38.5v244h-124z" />
    <glyph glyph-name="quotesingle" unicode="'" 
d="M263 479l-16 260h106l-16 -260h-74z" />
    <glyph glyph-name="parenleft" unicode="(" 
d="M236 172.5c15.333 -50.333 38.166 -96 68.499 -137s70.833 -84.167 121.5 -129.5l-43 -46c-58.667 47.333 -106.5 94 -143.5 140s-65.333 97.333 -85 154s-29.5 122 -29.5 196s9.83301 139.333 29.5 196s48 108 85 154s84.833 92.667 143.5 140l43 -46
c-51.333 -45.333 -92.166 -88.333 -122.499 -129s-53 -86.167 -68 -136.5s-22.5 -109.833 -22.5 -178.5c0 -68 7.66699 -127.167 23 -177.5z" />
    <glyph glyph-name="parenright" unicode=")" 
d="M364.5 528.5c-15 50.333 -37.667 95.833 -68 136.5s-71.166 83.667 -122.499 129l43 46c58.667 -47.333 106.5 -94 143.5 -140s65.333 -97.333 85 -154s29.5 -122 29.5 -196s-9.83301 -139.333 -29.5 -196s-48 -108 -85 -154s-84.833 -92.667 -143.5 -140l-43 46
c50.667 45.333 91.167 88.5 121.5 129.5s53.166 86.667 68.499 137s23 109.5 23 177.5c0 68.667 -7.5 128.167 -22.5 178.5z" />
    <glyph glyph-name="asterisk" unicode="*" 
d="M258 578l6 -202l-190 68l-26 -79l194 -58l-123 -160l67 -49l114 168l114 -168l67 49l-123 160l194 58l-26 79l-190 -68l6 202h-84z" />
    <glyph glyph-name="plus" unicode="+" 
d="M338 545v-199h196v-70h-196v-199h-78v199h-194v70h194v199h78z" />
    <glyph glyph-name="comma" unicode="," 
d="M357.5 141.5c15.667 -15.667 23.499 -34.501 23.499 -56.501c0 -24.667 -6.33301 -51 -19 -79l-81 -185h-76l47 197c-9.33301 7.33301 -17 17 -23 29s-9 24.333 -9 37c0 22.667 7.66699 41.834 23 57.501s34.333 23.5 57 23.5s41.834 -7.83301 57.501 -23.5z" />
    <glyph glyph-name="hyphen" unicode="-" 
d="M100 277v72h400v-72h-400z" />
    <glyph glyph-name="period" unicode="." 
d="M236.5 139.5c17 17 37.833 25.5 62.5 25.5c25.333 0 46.333 -8.5 63 -25.5s25 -37.833 25 -62.5c0 -25.333 -8.33301 -46.333 -25 -63s-37.667 -25 -63 -25c-24.667 0 -45.5 8.5 -62.5 25.5s-25.5 37.833 -25.5 62.5s8.5 45.5 25.5 62.5z" />
    <glyph glyph-name="slash" unicode="/" 
d="M121 -103l-68 30l427 882l67 -32z" />
    <glyph glyph-name="zero" unicode="0" 
d="M467.5 608.5c38.333 -61 57.5 -148.833 57.5 -263.5c0 -115.333 -19.167 -203.5 -57.5 -264.5s-94.166 -91.5 -167.499 -91.5s-129.166 30.5 -167.499 91.5s-57.5 149.167 -57.5 264.5c0 114.667 19.167 202.5 57.5 263.5s94.166 91.5 167.499 91.5
s129.166 -30.5 167.499 -91.5zM163 345c0 -76 5.99902 -136 17.999 -180l210 423c-21.333 29.333 -51.666 44 -90.999 44c-91.333 0 -137 -95.667 -137 -287zM436.999 345c0 76.667 -6 137 -18 181l-209 -426c21.333 -28.667 51.333 -43 90 -43c91.333 0 137 96 137 288z
" />
    <glyph glyph-name="one" unicode="1" 
d="M374 68h143v-68h-397v68h169v529l-157 -95l-37 59l205 128h74v-621z" />
    <glyph glyph-name="two" unicode="2" 
d="M379.5 675c31.667 -16.667 55.833 -39.501 72.5 -68.501s25 -61.833 25 -98.5c0 -42.667 -9.83301 -84 -29.5 -124s-51.167 -83.833 -94.5 -131.5s-104.666 -107.834 -183.999 -180.501h324l-10 -72h-410v68c90 86 156.833 153.333 200.5 202
s73.834 90.334 90.501 125.001s25 71.334 25 110.001s-11 69 -33 91s-52.333 33 -91 33c-32.667 0 -59.834 -5.5 -81.501 -16.5s-43.834 -29.833 -66.501 -56.5l-58 45c27.333 34 57.833 59 91.5 75s73.167 24 118.5 24c42 0 78.833 -8.33301 110.5 -25z" />
    <glyph glyph-name="three" unicode="3" 
d="M380 676.5c32 -15.667 56.6699 -36.668 74.0029 -63.001s26 -55.166 26 -86.499c0 -40 -13 -74.833 -39 -104.5s-57.667 -48.167 -95 -55.5c43.333 -3.33301 80.166 -19.666 110.499 -48.999s45.5 -69.333 45.5 -120c0 -39.333 -10 -75 -30 -107s-48.167 -57 -84.5 -75
s-77.833 -27 -124.5 -27c-40.667 0 -79.834 7.66699 -117.501 23s-68.834 38 -93.501 68l56 46c18.667 -22 41.5 -38.833 68.5 -50.5s55.167 -17.5 84.5 -17.5c48 0 85.5 12.5 112.5 37.5s40.5 59.167 40.5 102.5c0 87.333 -47.667 131 -143 131h-57l10 67h41
c36 0 66.667 10.167 92 30.5s38 50.166 38 89.499c0 36.667 -12.167 65.167 -36.5 85.5s-55.5 30.5 -93.5 30.5c-28.667 0 -54.167 -5 -76.5 -15s-45.5 -26 -69.5 -48l-46 51c56 53.333 121.333 80 196 80c42 0 79 -7.83301 111 -23.5z" />
    <glyph glyph-name="four" unicode="4" 
d="M528 235v-68h-89v-167h-81v167h-286v62l202 471l70 -30l-183 -435h198l7 195h73v-195h89z" />
    <glyph glyph-name="five" unicode="5" 
d="M475 621l-271.998 0.000976562v-217c19.333 11.333 38.5 19.166 57.5 23.499s39.167 6.5 60.5 6.5c57.333 0 103.166 -19 137.499 -57s51.5 -91 51.5 -159c0 -45.333 -9.5 -85.333 -28.5 -120s-46.167 -61.5 -81.5 -80.5s-76.333 -28.5 -123 -28.5
c-76.667 0 -143.334 27.333 -200.001 82l52 51c42 -42.667 91.333 -64 148 -64c46 0 81.667 14 107 42s38 68.333 38 121c0 52 -11.333 89.5 -34 112.5s-53 34.5 -91 34.5c-18 0 -34.333 -1.66699 -49 -5s-34 -9.33301 -58 -18h-68v344h365z" />
    <glyph glyph-name="six" unicode="6" 
d="M428.5 424c29.667 -16 53.1709 -40.167 70.5039 -72.5s26 -72.166 26 -119.499c0 -49.333 -9.66699 -92.5 -29 -129.5s-45.333 -65.167 -78 -84.5s-69.334 -29 -110.001 -29c-80 0 -138.167 29 -174.5 87s-54.5 141 -54.5 249c0 76 10.167 142.167 30.5 198.5
s49.666 99.833 87.999 130.5s84.166 46 137.499 46c50 0 95.667 -13.667 137 -41l-33 -56c-32.667 19.333 -67.667 29 -105 29c-52 0 -93 -24.833 -123 -74.5s-45.667 -116.834 -47 -201.501c21.333 32 45.666 55.333 72.999 70s58.333 22 93 22c36 0 68.833 -8 98.5 -24z
M405.504 102.5c22.333 30.333 33.499 72.5 33.499 126.5c0 100.667 -40.667 151 -122 151c-32 0 -60.833 -8.66699 -86.5 -26s-47.5 -41 -65.5 -71c1.33301 -78.667 13.333 -136 36 -172s58.334 -54 107.001 -54c42.667 0 75.167 15.167 97.5 45.5z" />
    <glyph glyph-name="seven" unicode="7" 
d="M230 -9l-78 23l268 605h-323v70h408v-65z" />
    <glyph glyph-name="eight" unicode="8" 
d="M476 439c-20 -24.667 -49.6689 -47.999 -89.002 -69.999c46.667 -19.333 83 -44.666 109 -75.999s39 -67.333 39 -108c0 -37.333 -9.66699 -71 -29 -101s-47 -53.333 -83 -70s-77.667 -25 -125 -25c-48 0 -89.667 8.5 -125 25.5s-62.166 40.167 -80.499 69.5
s-27.5 62.333 -27.5 99c0 76.667 46.333 136.667 139 180c-38 18 -65.833 39.167 -83.5 63.5s-26.5 55.5 -26.5 93.5c0 39.333 10.333 72.666 31 99.999s46.834 47.5 78.501 60.5s63.834 19.5 96.501 19.5c35.333 0 68.666 -6.33301 99.999 -19s56.833 -32.167 76.5 -58.5
s29.5 -58.833 29.5 -97.5c0 -32.667 -10 -61.334 -30 -86.001zM193.498 458.501c11.667 -15 27.168 -27 46.501 -36s48.666 -19.833 87.999 -32.5c34 20 58.5 39.5 73.5 58.5s22.5 43.167 22.5 72.5c0 34.667 -10.833 62.167 -32.5 82.5s-52.167 30.5 -91.5 30.5
s-69.833 -10 -91.5 -30s-32.5 -48.333 -32.5 -85c0 -25.333 5.83301 -45.5 17.5 -60.5zM423.999 254.501c-14.667 18.333 -33.833 32.833 -57.5 43.5s-58.834 24.334 -105.501 41.001c-71.333 -33.333 -107 -85.333 -107 -156c0 -39.333 12.333 -70.166 37 -92.499
s60.334 -33.5 107.001 -33.5s83 11.667 109 35s39 53.666 39 90.999c0 29.333 -7.33301 53.166 -22 71.499z" />
    <glyph glyph-name="nine" unicode="9" 
d="M458 629c37.333 -46.667 56.001 -111.999 56.001 -195.999c0 -96.667 -12.5 -173.667 -37.5 -231s-63.333 -102.5 -115 -135.5s-123.167 -62.167 -214.5 -87.5l-20 64c98 25.333 171.833 60.666 221.5 105.999s75.167 108 76.5 188c-16.667 -24.667 -39 -45 -67 -61
s-60 -24 -96 -24c-38 0 -71.833 9 -101.5 27s-52.834 43.5 -69.501 76.5s-25 71.833 -25 116.5c0 48 9.83301 89 29.5 123s46.334 59.833 80.001 77.5s71.5 26.5 113.5 26.5c75.333 0 131.666 -23.333 168.999 -70zM427.001 411.001
c1.33301 80.667 -8.99902 137.499 -30.999 170.499s-57.667 49.5 -107 49.5c-44.667 0 -78.334 -13.667 -101.001 -41s-34 -67.666 -34 -120.999c0 -50.667 10.5 -88.167 31.5 -112.5s51.167 -36.5 90.5 -36.5c60 0 110.333 30.333 151 91z" />
    <glyph glyph-name="colon" unicode=":" 
d="M242 487.5c15.333 15.667 34.333 23.5 57 23.5c23.333 0 42.666 -7.83301 57.999 -23.5s23 -34.5 23 -56.5c0 -22.667 -7.66699 -42 -23 -58s-34.666 -24 -57.999 -24c-22.667 0 -41.667 8 -57 24s-23 35.333 -23 58c0 22 7.66699 40.833 23 56.5zM242 127
c15.333 16 34.333 24.001 57 24.001c23.333 0 42.666 -7.83301 57.999 -23.5s23 -34.834 23 -57.501c0 -23.333 -7.66699 -42.666 -23 -57.999s-34.666 -23 -57.999 -23c-22.667 0 -41.667 7.66699 -57 23s-23 34.666 -23 57.999c0 22 7.66699 41 23 57z" />
    <glyph glyph-name="semicolon" unicode=";" 
d="M357 487.5c15.333 -15.667 23 -34.5 23 -56.5c0 -22.667 -7.66699 -42 -23 -58s-34.666 -24 -57.999 -24c-22.667 0 -41.667 8 -57 24s-23 35.333 -23 58c0 22 7.66699 40.833 23 56.5s34.333 23.5 57 23.5c23.333 0 42.666 -7.83301 57.999 -23.5zM356.5 142.5
c15.667 -15.667 23.499 -34.834 23.499 -57.501c0 -24 -6.33301 -50.333 -19 -79l-82 -186h-76l48 198c-10 7.33301 -17.833 17 -23.5 29s-8.5 24.667 -8.5 38c0 22.667 7.66699 41.834 23 57.501s34.333 23.5 57 23.5s41.834 -7.83301 57.501 -23.5z" />
    <glyph glyph-name="less" unicode="&#x3c;" 
d="M472 594l41 -64l-353 -217l353 -219l-45 -61l-380 237v87z" />
    <glyph glyph-name="equal" unicode="=" 
d="M494 442v-72h-388v72h388zM494 252v-72h-388v72h388z" />
    <glyph glyph-name="greater" unicode="&#x3e;" 
d="M129 594l384 -238v-86l-380 -237l-45 62l353 218l-353 217z" />
    <glyph glyph-name="question" unicode="?" 
d="M403 678c30 -14.667 53.168 -33.832 69.501 -57.499s24.5 -48.834 24.5 -75.501c0 -25.333 -4.16699 -47 -12.5 -65s-18.666 -32.833 -30.999 -44.5s-28.833 -24.834 -49.5 -39.501c-20 -14 -35.667 -26.333 -47 -37s-21 -24 -29 -40s-12 -35.333 -12 -58v-34h-84v39
c0 27.333 4.66699 51 14 71s20.666 36.333 33.999 49s30.666 27.334 51.999 44.001c26.667 20.667 46.167 38.5 58.5 53.5s18.5 33.833 18.5 56.5c0 28 -11 50 -33 66s-50.333 24 -85 24c-24.667 0 -49.5 -6.16699 -74.5 -18.5s-47.5 -30.833 -67.5 -55.5l-59 45
c56 66 125.667 99 209 99c39.333 0 74 -7.33301 104 -22zM325.001 103.502c12.667 -13 19 -28.833 19 -47.5c0 -19.333 -6.33301 -35.333 -19 -48s-28.667 -19 -48 -19c-18.667 0 -34.5 6.5 -47.5 19.5s-19.5 28.833 -19.5 47.5s6.5 34.5 19.5 47.5s28.833 19.5 47.5 19.5
c19.333 0 35.333 -6.5 48 -19.5z" />
    <glyph glyph-name="at" unicode="@" 
d="M522.5 585.5c42.333 -76.333 63.4971 -176.499 63.4971 -300.499c0 -89.333 -4 -160.833 -12 -214.5s-22.667 -94 -44 -121s-51.666 -40.5 -90.999 -40.5c-26 0 -48 8 -66 24s-31.333 35.167 -40 57.5s-12.667 42.833 -12 61.5h-4
c-26.667 -65.333 -72.334 -98 -137.001 -98c-52 0 -90 20.5 -114 61.5s-36 96.833 -36 167.5c0 86 16.833 150.5 50.5 193.5s82.167 64.5 145.5 64.5c24.667 0 47.667 -2.66699 69 -8s45.333 -15 72 -29v-296c0 -49.333 6.16699 -83.5 18.5 -102.5s29.5 -28.5 51.5 -28.5
c19.333 0 33.5 12.167 42.5 36.5s14.5 55.666 16.5 93.999s3 91.833 3 160.5c0 76 -5.16699 139.5 -15.5 190.5s-31.166 91.667 -62.499 122s-76.666 45.5 -135.999 45.5c-38 0 -75.667 -6.66699 -113 -20s-75.333 -37.333 -114 -72l-49 57
c43.333 37.333 88.333 64.833 135 82.5s93.334 26.5 140.001 26.5c116.667 0 196.167 -38.167 238.5 -114.5zM136.997 332.001c-17.333 -31.333 -26 -81 -26 -149c0 -52.667 6 -93.5 18 -122.5s32.333 -43.5 61 -43.5c21.333 0 38.833 4.83301 52.5 14.5s23.667 20 30 31
s13.166 25.167 20.499 42.5v260c-19.333 9.33301 -40.666 14 -63.999 14c-44 0 -74.667 -15.667 -92 -47z" />
    <glyph glyph-name="A" unicode="A" 
d="M434 176h-273l-55 -176h-86l225 689h110l224 -689h-90zM184 248h227l-113 367z" />
    <glyph glyph-name="B" unicode="B" 
d="M465.5 46c-49.667 -30.667 -110.832 -46 -183.499 -46h-186v689h170c70 0 128.167 -13.5 174.5 -40.5s69.5 -71.5 69.5 -133.5c0 -41.333 -12.333 -74.5 -37 -99.5s-55.334 -41.833 -92.001 -50.5c106 -18 159 -74.333 159 -169c0 -69.333 -24.833 -119.333 -74.5 -150z
M386.002 592.5c-23.333 17 -56.667 25.5 -100 25.5h-103v-222h111c84.667 0 127 38 127 114c0 38 -11.667 65.5 -35 82.5zM408.501 295c-26.333 19.333 -62.5 29 -108.5 29h-117v-252h114c42 0 77.667 8.66699 107 26s44 49 44 95c0 48.667 -13.167 82.667 -39.5 102z" />
    <glyph glyph-name="C" unicode="C" 
d="M468 683.5c30.667 -11 60.6641 -27.834 89.9971 -50.501l-49 -57c-40.667 34 -89 51 -145 51c-62 0 -112.5 -22.5 -151.5 -67.5s-58.5 -116.5 -58.5 -214.5c0 -97.333 19 -168.666 57 -213.999s88.667 -68 152 -68c34.667 0 64.334 5 89.001 15s48.334 24 71.001 42
l45 -56c-51.333 -50 -120 -75 -206 -75c-56.667 0 -107.667 13.833 -153 41.5s-81 68.167 -107 121.5s-39 117.666 -39 192.999c0 74.667 13.167 138.834 39.5 192.501s62 94.167 107 121.5s94.5 41 148.5 41c42.667 0 79.334 -5.5 110.001 -16.5z" />
    <glyph glyph-name="D" unicode="D" 
d="M463 76c-60 -50.667 -134 -75.999 -222 -75.999h-158v689h147c96.667 0 174.667 -24.333 234 -73s89 -138 89 -268c0 -130.667 -30 -221.334 -90 -272.001zM429.5 519.501c-20.333 39.667 -45.5 65.999 -75.5 78.999s-64.333 19.5 -103 19.5h-81v-548h82
c59.333 0 108.833 20.5 148.5 61.5s59.5 113.167 59.5 216.5c0 74.667 -10.167 131.834 -30.5 171.501z" />
    <glyph glyph-name="E" unicode="E" 
d="M212 617v-232h256v-71h-256v-244h314v-70h-400v689h391l-10 -72h-295z" />
    <glyph glyph-name="F" unicode="F" 
d="M225 617v-241h270v-70h-270v-306h-87v689h406l-10 -72h-309z" />
    <glyph glyph-name="G" unicode="G" 
d="M116.5 79.5c-47.667 60.333 -71.499 148.834 -71.499 265.501c0 76 13.333 140.667 40 194s62 93.5 106 120.5s91.667 40.5 143 40.5c43.333 0 79.666 -6 108.999 -18s58.333 -31.333 87 -58l-52 -54c-21.333 19.333 -43.5 33.666 -66.5 42.999s-48.833 14 -77.5 14
c-56 0 -102.667 -22.333 -140 -67s-56 -116.334 -56 -215.001c0 -98 15.167 -169.667 45.5 -215s76.166 -68 137.499 -68c48.667 0 92.334 11 131.001 33v209h-135l-10 73h232v-328c-34.667 -19.333 -69.5 -34.166 -104.5 -44.499s-75.167 -15.5 -120.5 -15.5
c-84 0 -149.833 30.167 -197.5 90.5z" />
    <glyph glyph-name="H" unicode="H" 
d="M430 0v327h-260v-327h-87v689h87v-291h260v291h87v-689h-87z" />
    <glyph glyph-name="I" unicode="I" 
d="M497 689v-70h-153v-550h153v-69h-394v69h153v550h-153v70h394z" />
    <glyph glyph-name="J" unicode="J" 
d="M497 229c0 -67.333 -18.5 -124.334 -55.5 -171.001s-97.167 -70 -180.5 -70c-34 0 -67.167 5.33301 -99.5 16s-61.833 26.334 -88.5 47.001l38 57c50 -31.333 99.667 -47 149 -47c48 0 85 15.167 111 45.5s39 72.5 39 126.5v385h-204v71h291v-460z" />
    <glyph glyph-name="K" unicode="K" 
d="M192 0h-87v689h87v-689zM197 368l270 321h101l-269 -316l288 -373h-109z" />
    <glyph glyph-name="L" unicode="L" 
d="M136 0v689h86v-612h315l-11 -77h-390z" />
    <glyph glyph-name="M" unicode="M" 
d="M570 0h-84l-21 360c-4 63.333 -6 146.333 -6 249l-116 -485h-87l-124 485c1.33301 -24 2 -56 2 -96c0 -61.333 -1.33301 -112.333 -4 -153l-18 -360h-82l39 689h121l112 -472l107 472h122z" />
    <glyph glyph-name="N" unicode="N" 
d="M152 605c0 -4.66699 2 -33.667 6 -87s6 -111 6 -173v-345h-81v689h118l247 -608l-2 36c-6.66699 82 -10 157.667 -10 227v345h81v-689h-122z" />
    <glyph glyph-name="O" unicode="O" 
d="M487.5 86c-43.667 -64.667 -106.167 -96.999 -187.5 -96.999c-82 0 -144.667 31.667 -188 95s-65 149.666 -65 258.999c0 70 9.66699 132 29 186s48 96 86 126s84 45 138 45c81.333 0 143.833 -32.167 187.5 -96.5s65.5 -150.833 65.5 -259.5
c0 -107.333 -21.833 -193.333 -65.5 -258zM424 556.001c-26 47.333 -67.333 71 -124 71s-98 -23.833 -124 -71.5s-39 -118.5 -39 -212.5c0 -93.333 13.167 -163.5 39.5 -210.5s67.5 -70.5 123.5 -70.5c56.667 0 98 23.5 124 70.5s39 117.5 39 211.5s-13 164.667 -39 212z
" />
    <glyph glyph-name="P" unicode="P" 
d="M486 309c-47.333 -35.333 -112.333 -53 -195 -53h-89v-256h-86v689h175c84.667 0 150.167 -17.667 196.5 -53s69.5 -88.333 69.5 -159c0 -76.667 -23.667 -132.667 -71 -168zM420.5 585.5c-29 23 -68.5 34.5 -118.5 34.5h-100v-295h97c52 0 92.5 11.333 121.5 34
s43.5 61.667 43.5 117c0 50 -14.5 86.5 -43.5 109.5z" />
    <glyph glyph-name="Q" unicode="Q" 
d="M520.5 148.5c-22.333 -53 -58.8311 -93.5 -109.498 -121.5c49.333 -10 87.833 -27.333 115.5 -52s49.834 -62 66.501 -112l-92 -36c-22.667 56.667 -49.334 98 -80.001 124s-74.334 39 -131.001 39c-52 0 -96.333 14.5 -133 43.5s-64.5 70 -83.5 123
s-28.5 115.167 -28.5 186.5c0 70 9.66699 132 29 186s48.166 96 86.499 126s84.833 45 139.5 45c81.333 0 144 -32.167 188 -96.5s66 -150.833 66 -259.5c0 -77.333 -11.167 -142.5 -33.5 -195.5zM424.002 556c-26 47.333 -67.333 71 -124 71s-98.167 -23.833 -124.5 -71.5
s-39.5 -118.5 -39.5 -212.5c0 -93.333 13.333 -163.5 40 -210.5s68 -70.5 124 -70.5c56.667 0 98 23.5 124 70.5s39 117.5 39 211.5s-13 164.667 -39 212z" />
    <glyph glyph-name="R" unicode="R" 
d="M491 372.5c-30.667 -32.333 -71.333 -54.834 -122 -67.501l205 -305h-104l-189 295h-93v-295h-86v689h176c85.333 0 149.833 -16.333 193.5 -49s65.5 -81 65.5 -145c0 -49.333 -15.333 -90.166 -46 -122.499zM407.001 589.999c-25.333 19.333 -64.999 29 -118.999 29
h-100v-256h101c51.333 0 90.166 10.5 116.499 31.5s39.5 54.5 39.5 100.5c0 44 -12.667 75.667 -38 95z" />
    <glyph glyph-name="S" unicode="S" 
d="M507 85.5c-20 -30.333 -49 -54 -87 -71s-83 -25.5 -135 -25.5c-50 0 -95.5 7.5 -136.5 22.5s-76.167 36.5 -105.5 64.5l52 59c25.333 -24 53.5 -42.333 84.5 -55s66.5 -19 106.5 -19c45.333 0 83.333 11 114 33s46 53.667 46 95c0 23.333 -4.33301 42.666 -13 57.999
s-23.834 29 -45.501 41s-52.167 23.667 -91.5 35c-74.667 22 -130.334 47.833 -167.001 77.5s-55 70.167 -55 121.5c0 34 9.33301 64.667 28 92s45 48.5 79 63.5s72.667 22.5 116 22.5c45.333 0 85.833 -6.66699 121.5 -20s68.5 -33 98.5 -59l-52 -56
c-47.333 41.333 -102.333 62 -165 62c-40 0 -73 -8.66699 -99 -26s-39 -42.666 -39 -75.999c0 -20 5.33301 -37 16 -51s28.334 -27 53.001 -39s59.334 -24.333 104.001 -37c64.667 -18.667 114.5 -43 149.5 -73s52.5 -74.667 52.5 -134c0 -40 -10 -75.167 -30 -105.5z" />
    <glyph glyph-name="T" unicode="T" 
d="M342 614v-614h-87v614h-215v75h519l-9 -75h-208z" />
    <glyph glyph-name="U" unicode="U" 
d="M528 223c0 -46 -9.49902 -86.833 -28.499 -122.5s-45.667 -63.167 -80 -82.5s-74.5 -29 -120.5 -29c-46.667 0 -87 9.83301 -121 29.5s-60.167 47.167 -78.5 82.5s-27.5 76 -27.5 122v466h87v-469c0 -52 12 -91 36 -117s58.667 -39 104 -39s80.166 13 104.499 39
s36.5 65 36.5 117v469h88v-466z" />
    <glyph glyph-name="V" unicode="V" 
d="M302 99l186 590h87l-230 -689h-90l-230 689h93z" />
    <glyph glyph-name="W" unicode="W" 
d="M595 689l-104 -689h-114l-79 520l-80 -520h-117l-96 689h87l73 -594l83 514h106l79 -514l82 594h80z" />
    <glyph glyph-name="X" unicode="X" 
d="M49 689h100l151 -265l152 265h93l-195 -317l219 -372h-100l-171 311l-174 -311h-93l216 367z" />
    <glyph glyph-name="Y" unicode="Y" 
d="M344 266v-266h-88v265l-233 424h96l183 -346l185 346h90z" />
    <glyph glyph-name="Z" unicode="Z" 
d="M167 75h360l-10 -75h-445v70l363 544h-327v75h420v-72z" />
    <glyph glyph-name="bracketleft" unicode="[" horiz-adv-x="611" 
d="M184 -115v930h251v-72h-171v-787h171v-71h-251z" />
    <glyph glyph-name="backslash" unicode="\" 
d="M72 786l30 15l428 -882l-31 -13z" />
    <glyph glyph-name="bracketright" unicode="]" 
d="M416 815v-930h-251v71h171v787h-171v72h251z" />
    <glyph glyph-name="asciicircum" unicode="^" 
d="M337 840l189 -313h-91l-136 237l-135 -237h-90l189 313h74z" />
    <glyph glyph-name="underscore" unicode="_" 
d="M50 -182v74h500v-74h-500z" />
    <glyph glyph-name="grave" unicode="`" 
d="M387 622l-203 93l46 72l184 -119z" />
    <glyph glyph-name="a" unicode="a" 
d="M488 69.5c6.66699 -9.66699 17.668 -16.8301 33.001 -21.4971l-21 -60c-51.333 6.66699 -83.333 31.667 -96 75c-18.667 -24 -42.167 -42.333 -70.5 -55s-59.833 -19 -94.5 -19c-52.667 0 -94.167 14.667 -124.5 44s-45.5 68.666 -45.5 117.999
c0 54 21.167 95.667 63.5 125s103.166 44 182.499 44h78v43c0 37.333 -10.667 64.166 -32 80.499s-52.333 24.5 -93 24.5c-40 0 -85.667 -9 -137 -27l-23 64c62 22 119.667 33 173 33c64 0 112.833 -15 146.5 -45s50.5 -71.667 50.5 -125v-253
c0 -20.667 3.33301 -35.834 10 -45.501zM334.501 72.0039c23.667 13.333 43.167 31.667 58.5 55v135h-76c-56 0 -96.333 -9.33301 -121 -28s-37 -46 -37 -82c0 -66.667 33.667 -100 101 -100c26 0 50.833 6.66699 74.5 20z" />
    <glyph glyph-name="b" unicode="b" 
d="M335 538c67.333 0 117.001 -24 149.001 -72s48 -115.333 48 -202c0 -82.667 -18.333 -149.167 -55 -199.5s-88 -75.5 -154 -75.5c-60.667 0 -108.334 22 -143.001 66l-6 -55h-74v739l84 10v-291c40.667 53.333 91 80 151 80zM405.501 109
c23.667 34.667 35.499 86.333 35.499 155c0 68 -10.5 119.333 -31.5 154s-52.167 52 -93.5 52c-26.667 0 -51.167 -8 -73.5 -24s-41.833 -36 -58.5 -60v-261c14 -21.333 31.333 -38 52 -50s43.334 -18 68.001 -18c44 0 77.833 17.333 101.5 52z" />
    <glyph glyph-name="c" unicode="c" 
d="M476 107l40.001 -55.001c-22 -19.333 -49.333 -34.666 -82 -45.999s-64.334 -17 -95.001 -17c-78 0 -138.833 24.5 -182.5 73.5s-65.5 115.167 -65.5 198.5c0 52.667 9.83301 100 29.5 142s48.167 75 85.5 99s81.666 36 132.999 36c68 0 126.667 -20.667 176 -62l-41 -55
c-46 30.667 -91.333 46 -136 46c-47.333 0 -85.166 -17.5 -113.499 -52.5s-42.5 -86.167 -42.5 -153.5s14.167 -117.5 42.5 -150.5s66.5 -49.5 114.5 -49.5c46 0 91.667 15.333 137 46z" />
    <glyph glyph-name="d" unicode="d" 
d="M500 739l-0.000976562 -739.002h-74l-8 69c-19.333 -26.667 -41.666 -46.667 -66.999 -60s-52.666 -20 -81.999 -20c-66.667 0 -116.834 24.333 -150.501 73s-50.5 115.667 -50.5 201c0 52.667 8.33301 99.834 25 141.501s40.5 74.334 71.5 98.001s67.5 35.5 109.5 35.5
c58 0 105.333 -21 142 -63v274zM194.499 417.998c-23.667 -34.667 -35.499 -86.333 -35.499 -155c0 -68 10.833 -119.5 32.5 -154.5s53.167 -52.5 94.5 -52.5c50 0 93.333 28 130 84v262c-14.667 22 -32.334 38.833 -53.001 50.5s-43 17.5 -67 17.5
c-44 0 -77.833 -17.333 -101.5 -52z" />
    <glyph glyph-name="e" unicode="e" 
d="M212.5 103c28.333 -29.333 64.166 -44.002 107.499 -44.002c26 0 49.833 3.83301 71.5 11.5s44.834 19.5 69.501 35.5l39 -56c-24.667 -19.333 -52.834 -34.333 -84.501 -45s-63.5 -16 -95.5 -16c-76 0 -135.167 24.833 -177.5 74.5s-63.5 116.167 -63.5 199.5
c0 52.667 9.33301 99.834 28 141.501s45.334 74.334 80.001 98.001s75 35.5 121 35.5c66.667 0 119.167 -23.167 157.5 -69.5s57.5 -109.5 57.5 -189.5c0 -15.333 -0.666992 -30.333 -2 -45h-354c2 -58 17.167 -101.667 45.5 -131zM210 425.498
c-25.333 -29 -39.667 -71.499 -43 -127.499h274c-0.666992 55.333 -12.667 97.666 -36 126.999s-55.333 44 -96 44s-73.667 -14.5 -99 -43.5z" />
    <glyph glyph-name="f" unicode="f" 
d="M554 721l-26.999 -63c-33.333 14.667 -71 22 -113 22c-73.333 0 -110 -29 -110 -87v-107h178l-9 -67h-169v-419h-85v419h-125v67h125v105c0 47.333 18.167 85.5 54.5 114.5s82.166 43.5 137.499 43.5c50 0 97.667 -9.33301 143 -28z" />
    <glyph glyph-name="g" unicode="g" 
d="M554 503c-20 -6.66699 -41.6689 -10.835 -65.002 -12.502s-53 -2.5 -89 -2.5c61.333 -28 92 -72.333 92 -133c0 -53.333 -17.667 -96.5 -53 -129.5s-83.666 -49.5 -144.999 -49.5c-31.333 0 -57.666 3.66699 -78.999 11c-8 -6 -14.5 -13.667 -19.5 -23
s-7.5 -18.666 -7.5 -27.999c0 -30 23.333 -45 70 -45h95c34.667 0 66.167 -6.16699 94.5 -18.5s50.666 -29.5 66.999 -51.5s24.5 -46.333 24.5 -73c0 -51.333 -21.833 -90.833 -65.5 -118.5s-105.5 -41.5 -185.5 -41.5c-81.333 0 -138.666 12.667 -171.999 38
s-50 65.666 -50 120.999h76c0 -22 4.16699 -39.5 12.5 -52.5s23 -22.667 44 -29s50.833 -9.5 89.5 -9.5c56.667 0 98.5 7.33301 125.5 22s40.5 36.334 40.5 65.001c0 24 -11 42.5 -33 55.5s-50.333 19.5 -85 19.5h-94c-43.333 0 -76.333 9.5 -99 28.5s-34 42.833 -34 71.5
c0 16.667 5 33.167 15 49.5s24.333 30.5 43 42.5c-30 15.333 -52.167 34.833 -66.5 58.5s-21.5 52.5 -21.5 86.5c0 35.333 8.83301 66.833 26.5 94.5s42.334 49.334 74.001 65.001s68.167 23.5 109.5 23.5c60 0 105.667 3.33301 137 10s65.666 18 102.999 34z
M195.998 443.499c-20.667 -21.667 -30.999 -51.168 -30.999 -88.501s10.5 -67.166 31.5 -89.499s52.167 -33.5 93.5 -33.5c37.333 0 65.833 10.833 85.5 32.5s29.5 52.167 29.5 91.5c0 80 -39 120 -117 120c-40.667 0 -71.334 -10.833 -92.001 -32.5z" />
    <glyph glyph-name="h" unicode="h" 
d="M184 454c20.667 26.667 45.999 47.333 75.999 62s61 22 93 22c98.667 0 148 -52 148 -156v-382h-84v381c0 31.333 -7.33301 54.166 -22 68.499s-38 21.5 -70 21.5c-27.333 0 -53.666 -8.66699 -78.999 -26s-46 -37.666 -62 -60.999v-384h-84v738l84 9v-293z" />
    <glyph glyph-name="i" unicode="i" 
d="M345 756.5c11.333 -11 17 -25.167 17 -42.5s-5.66699 -31.5 -17 -42.5s-26.333 -16.5 -45 -16.5c-18 0 -32.5 5.5 -43.5 16.5s-16.5 25.167 -16.5 42.5s5.5 31.5 16.5 42.5s25.5 16.5 43.5 16.5c18.667 0 33.667 -5.5 45 -16.5zM367 527v-460h148v-67h-394v67h162v393
h-157v67h241z" />
    <glyph glyph-name="j" unicode="j" 
d="M411 756.5c11.333 -11 17 -25.167 17 -42.5s-5.66699 -31.5 -17 -42.5s-26 -16.5 -44 -16.5s-32.667 5.5 -44 16.5s-17 25.167 -17 42.5s5.66699 31.5 17 42.5s26 16.5 44 16.5s32.667 -5.5 44 -16.5zM445 84c0 -84.667 -28.167 -150.5 -84.5 -197.5
s-139.833 -79.833 -250.5 -98.5l-14 65c84.667 14 150 38.5 196 73.5s69 85.833 69 152.5v381h-219v67h303v-443z" />
    <glyph glyph-name="k" unicode="k" 
d="M190 749v-749h-84v739zM541 527l-236 -238l264 -289h-111l-259 288l234 239h108z" />
    <glyph glyph-name="l" unicode="l" 
d="M306 130c0 -47.333 29 -71 87 -71c27.333 0 56.666 6 87.999 18l22 -61c-33.333 -18 -75 -27 -125 -27c-47.333 0 -85.166 13 -113.499 39s-42.5 61.333 -42.5 106v538h-162v67h246v-609z" />
    <glyph glyph-name="m" unicode="m" 
d="M520.5 506.5c19 -21 28.499 -59.167 28.499 -114.5v-392h-77v378c0 36.667 -2.33301 61.5 -7 74.5s-16 19.5 -34 19.5c-34 0 -64.667 -21 -92 -63v-409h-78v378c0 36.667 -2.33301 61.5 -7 74.5s-16 19.5 -34 19.5c-34 0 -64.667 -21 -92 -63v-409h-77v527h65l6 -62
c16 23.333 32.833 41.333 50.5 54s38.834 19 63.501 19c49.333 0 81 -23.333 95 -70c16 22.667 33 40 51 52s39.667 18 65 18c30 0 54.5 -10.5 73.5 -31.5z" />
    <glyph glyph-name="n" unicode="n" 
d="M100 527h71.999l7 -74c20.667 26.667 46.834 47.5 78.501 62.5s63.5 22.5 95.5 22.5c98.667 0 148 -52 148 -156v-382h-84v320c0 39.333 -2.16699 69.333 -6.5 90s-12.833 36 -25.5 46s-32 15 -58 15c-28.667 0 -55.667 -8.66699 -81 -26s-46 -38 -62 -62v-383h-84v527z
" />
    <glyph glyph-name="o" unicode="o" 
d="M468.5 464.5c39 -49 58.499 -115.833 58.499 -200.5c0 -82.667 -19.833 -149.167 -59.5 -199.5s-95.5 -75.5 -167.5 -75.5c-72.667 0 -128.667 24.5 -168 73.5s-59 115.833 -59 200.5c0 83.333 19.833 150 59.5 200s95.834 75 168.501 75s128.5 -24.5 167.5 -73.5z
M197.999 418c-22.667 -34 -34.001 -85.667 -34.001 -155s11.167 -120.833 33.5 -154.5s56.5 -50.5 102.5 -50.5s80.167 16.833 102.5 50.5s33.5 85.5 33.5 155.5c0 69.333 -11.167 120.833 -33.5 154.5s-56.166 50.5 -101.499 50.5c-46 0 -80.333 -17 -103 -51z" />
    <glyph glyph-name="p" unicode="p" 
d="M527 264c0 -83.333 -17.333 -150 -52 -200s-85 -75 -151 -75c-57.333 0 -104 20 -140 60v-251l-84 -10v739h72l7 -74c19.333 27.333 42.5 48.333 69.5 63s56.167 22 87.5 22c127.333 0 191 -91.333 191 -274zM242.5 446c-22.333 -16 -41.834 -35.999 -58.501 -59.999
v-261c14 -20.667 31.5 -36.834 52.5 -48.501s43.833 -17.5 68.5 -17.5c44 0 76.833 16.833 98.5 50.5s32.5 85.167 32.5 154.5s-9.66699 121 -29 155s-49.666 51 -90.999 51c-26.667 0 -51.167 -8 -73.5 -24z" />
    <glyph glyph-name="q" unicode="q" 
d="M421 469l7.00098 58h72v-739l-84 10v268c-37.333 -51.333 -87 -77 -149 -77c-129.333 0 -194 91.333 -194 274c0 81.333 17.667 147.5 53 198.5s84.666 76.5 147.999 76.5c61.333 0 110.333 -23 147 -69zM164.001 263c0 -68.667 10 -119.833 30 -153.5
s50.333 -50.5 91 -50.5c27.333 0 52 7.5 74 22.5s41 34.5 57 58.5v262c-14 21.333 -31.5 38 -52.5 50s-43.833 18 -68.5 18c-87.333 0 -131 -69 -131 -207z" />
    <glyph glyph-name="r" unicode="r" 
d="M530 527l-12 -179h-68v113h-5c-81.333 0 -139 -58 -173 -174v-222h107v-65h-274v65h83v397h-83v65h146l16 -125c21.333 45.333 46.833 79.333 76.5 102s67.167 34 112.5 34c21.333 0 46 -3.66699 74 -11z" />
    <glyph glyph-name="s" unicode="s" 
d="M375 81c23.333 15.333 35.002 35.667 35.002 61c0 17.333 -3 31.5 -9 42.5s-18 21 -36 30s-45.333 18.167 -82 27.5c-61.333 15.333 -106.666 33.833 -135.999 55.5s-44 53.834 -44 96.501c0 44 18.333 79 55 105s85 39 145 39c73.333 0 137.333 -19.333 192 -58l-38 -58
c-22 15.333 -45 27.166 -69 35.499s-51.667 12.5 -83 12.5c-76 0 -114 -23 -114 -69c0 -16 4.16699 -29 12.5 -39s22 -18.833 41 -26.5s47.5 -16.834 85.5 -27.501c57.333 -15.333 100.166 -34.833 128.499 -58.5s42.5 -58.167 42.5 -103.5c0 -52.667 -21.333 -92 -64 -118
s-95 -39 -157 -39c-82.667 0 -151.334 23.667 -206.001 71l47 55c21.333 -17.333 45.666 -31.166 72.999 -41.499s56 -15.5 86 -15.5c40 0 71.667 7.66699 95 23z" />
    <glyph glyph-name="t" unicode="t" 
d="M453.5 -1c-25.667 -6.66699 -51.168 -10 -76.501 -10c-55.333 0 -98.666 14.5 -129.999 43.5s-47 67.167 -47 114.5v314h-121v66h121v119l84 10v-129h183l-11 -66h-172v-313c0 -30 8 -52.333 24 -67s41.667 -22 77 -22c36 0 69.667 8.33301 101 25l33 -57
c-18 -12 -39.833 -21.333 -65.5 -28z" />
    <glyph glyph-name="u" unicode="u" 
d="M184 153c0 -34 7.16602 -58.833 21.499 -74.5s36.833 -23.5 67.5 -23.5c28 0 55 8 81 24s46.667 36 62 60v388h84v-527h-72l-7 71c-20.667 -26 -46.167 -46.167 -76.5 -60.5s-61.166 -21.5 -92.499 -21.5c-50 0 -87.833 13.333 -113.5 40s-38.5 65 -38.5 115v383h84v-374
z" />
    <glyph glyph-name="v" unicode="v" 
d="M540 527l-192 -527h-97l-191 527h90l152 -451l150 451h88z" />
    <glyph glyph-name="w" unicode="w" 
d="M491 0h-119l-69 386l-74 -386h-116l-95 527h85l68 -475l84 408h99l79 -408l68 475h81z" />
    <glyph glyph-name="x" unicode="x" 
d="M152 0h-96l194 278l-171 249h100l122 -196l123 196h97l-171 -245l194 -282h-102l-145 226z" />
    <glyph glyph-name="y" unicode="y" 
d="M354 -3c-20.667 -60.667 -49 -108.998 -85 -144.998s-86.333 -57.333 -151 -64l-12 67c35.333 6 63.5 15.167 84.5 27.5s37.5 27.666 49.5 45.999s23 42.166 33 71.499h-28l-183 527h89l151 -463l149 463h87z" />
    <glyph glyph-name="z" unicode="z" 
d="M205 72h293l-10 -72h-386v64l292 389h-269v74h370v-66z" />
    <glyph glyph-name="braceleft" unicode="{" 
d="M451 769c-88.667 0 -130.334 -26.6699 -125.001 -80.0029l20 -205c0.666992 -6 1 -14.667 1 -26c0 -32 -7.66699 -56.5 -23 -73.5s-39 -28.5 -71 -34.5c32.667 -6 56.5 -17.167 71.5 -33.5s22.5 -40.833 22.5 -73.5c0 -11.333 -0.333008 -20.333 -1 -27l-20 -205
c-2.66699 -29.333 7.33301 -50 30 -62s54.334 -18 95.001 -18v-67c-60 0 -109 10.333 -147 31s-57 55.667 -57 105c0 8.66699 0.333008 15.334 1 20.001l21 190c0.666992 4.66699 1 11.334 1 20.001c0 29.333 -11 51 -33 65s-62 21 -120 21v68c58 0 98 6.83301 120 20.5
s33 35.167 33 64.5c0 8 -0.333008 14.333 -1 19l-21 192c-0.666992 4.66699 -1 11.334 -1 20.001c0 49.333 19 84.333 57 105s87 31 147 31v-67z" />
    <glyph glyph-name="bar" unicode="|" 
d="M337 807v-909h-75v909h75z" />
    <glyph glyph-name="braceright" unicode="}" 
d="M296 805c38 -20.667 56.998 -55.6641 56.998 -104.997c0 -8.66699 -0.333008 -15.334 -1 -20.001l-21 -192c-0.666992 -3.33301 -1 -8.33301 -1 -15c0 -30 11.833 -52.333 35.5 -67s62.834 -22 117.501 -22v-68c-55.333 0 -94.666 -7.33301 -117.999 -22
s-35 -37.334 -35 -68.001c0 -6.66699 0.333008 -12 1 -16l21 -190c0.666992 -4.66699 1 -11.334 1 -20.001c0 -49.333 -19 -84.333 -57 -105s-87 -31 -147 -31v67c40.667 0 72.334 6 95.001 18s32.667 32.667 30 62l-20 205c-1.33301 13.333 -2 22.333 -2 27
c0 33.333 8.33301 58 25 74s43.667 26.667 81 32c-36 6.66699 -62.5 18.5 -79.5 35.5s-25.5 41.833 -25.5 74.5c0 10.667 0.333008 19 1 25l20 205c5.33301 53.333 -36.334 80 -125.001 80v67c60 0 109 -10.333 147 -31z" />
    <glyph glyph-name="asciitilde" unicode="~" 
d="M268 385.5c17.333 -10.333 36.667 -24.835 58 -43.502c15.333 -14 28.166 -24.333 38.499 -31s21.5 -10 33.5 -10c35.333 0 68.333 28.333 99 85l60 -32c-20 -37.333 -42.167 -67.666 -66.5 -90.999s-56.166 -35 -95.499 -35c-22.667 0 -42.167 4.83301 -58.5 14.5
s-35.5 23.834 -57.5 42.501c-15.333 14.667 -28.666 25.5 -39.999 32.5s-23.666 10.5 -36.999 10.5c-20 0 -37.833 -7.5 -53.5 -22.5s-30.834 -35.833 -45.501 -62.5l-60 30c20 38.667 42.167 69.667 66.5 93s56.166 35 95.499 35c24.667 0 45.667 -5.16699 63 -15.5z" />
    <glyph glyph-name="uni00A0" unicode="&#xa0;" 
 />
    <glyph glyph-name="exclamdown" unicode="&#xa1;" 
d="M346.5 479c13 -13.333 19.5 -29.333 19.5 -48s-6.5 -34.334 -19.5 -47.001s-28.833 -19 -47.5 -19s-34.5 6.33301 -47.5 19s-19.5 28.334 -19.5 47.001c0 19.333 6.5 35.5 19.5 48.5s28.833 19.5 47.5 19.5s34.5 -6.66699 47.5 -20zM335 260l13 -457h-97l12 457h72z" />
    <glyph glyph-name="cent" unicode="&#xa2;" 
d="M373 533c45.333 -5.33301 85.6689 -22.3359 121.002 -51.0029l-42 -56c-21.333 15.333 -40.833 26 -58.5 32s-36.834 9 -57.501 9c-44.667 0 -79 -17.333 -103 -52s-36 -86 -36 -154s12 -118.333 36 -151s58.333 -49 103 -49c20.667 0 40.167 3.33301 58.5 10
s37.833 18.334 58.5 35.001l41 -60c-34.667 -29.333 -75 -46.666 -121 -51.999v-147h-75v147c-62.667 8 -110.334 35.333 -143.001 82s-49 108.334 -49 185.001c0 74 16.5 135.5 49.5 184.5s80.833 77.833 143.5 86.5v151h74v-150z" />
    <glyph glyph-name="sterling" unicode="&#xa3;" 
d="M525 613l-56.0029 -42.998c-16.667 20.667 -34.667 35.667 -54 45s-41.333 14 -66 14c-35.333 0 -62.166 -10.167 -80.499 -30.5s-27.5 -50.5 -27.5 -90.5v-121h206v-58h-206v-124c0 -31.333 -4.33301 -58 -13 -80s-25 -39.667 -49 -53h338l-10 -72h-432v68
c24.667 8 42.834 18.167 54.501 30.5s19 26.166 22 41.499s4.5 35.666 4.5 60.999v128h-82v58h82v128c0 35.333 7.66699 67 23 95s37.333 50 66 66s62.334 24 101.001 24c78 0 137.667 -29 179 -87z" />
    <glyph glyph-name="currency" unicode="&#xa4;" 
d="M177 520c36.667 22 78 32.999 124 32.999c48.667 0 89 -11 121 -33l89 89l55 -54l-87 -88c24 -36 36 -77.667 36 -125c0 -45.333 -12.333 -87.666 -37 -126.999l88 -87l-55 -54l-90 88c-33.333 -21.333 -73.333 -32 -120 -32c-47.333 0 -88.333 10.667 -123 32l-89 -89
l-55 54l89 89c-23.333 37.333 -35 79.333 -35 126s11.333 87.667 34 123l-88 91l55 54zM206 447.999c-22 -25.333 -33 -60.666 -33 -105.999s11 -80.5 33 -105.5s53.667 -37.5 95 -37.5s72.833 12.5 94.5 37.5s32.5 60.167 32.5 105.5s-10.833 80.666 -32.5 105.999
s-53.167 38 -94.5 38s-73 -12.667 -95 -38z" />
    <glyph glyph-name="yen" unicode="&#xa5;" 
d="M561 689l-194 -344h119v-58h-142v-86h142v-59h-142v-142h-88v142h-140v59h140v86h-140v58h116l-193 344h96l166 -317h4l167 317h89z" />
    <glyph glyph-name="brokenbar" unicode="&#xa6;" 
d="M337 807v-355h-75v355h75zM337 253v-355h-75v355h75z" />
    <glyph glyph-name="section" unicode="&#xa7;" 
d="M408.5 686c26.333 -9.33301 51.5029 -22.667 75.5029 -40l-40 -57c-21.333 14.667 -42 25.334 -62 32.001s-43.667 10 -71 10c-28.667 0 -51.667 -6.33301 -69 -19s-26 -29.667 -26 -51c0 -16 3.33301 -29 10 -39s18.667 -19.5 36 -28.5s43.333 -19.5 78 -31.5
c55.333 -18 94.666 -38.333 117.999 -61s35 -53 35 -91c0 -26 -7.33301 -49.833 -22 -71.5s-34 -39.834 -58 -54.501c39.333 -29.333 59 -65.333 59 -108c0 -44.667 -17.833 -80 -53.5 -106s-82.167 -39 -139.5 -39c-65.333 0 -122.333 18 -171 54l40 57
c20.667 -14.667 41.667 -25.5 63 -32.5s45.666 -10.5 72.999 -10.5c28.667 0 52.5 6.5 71.5 19.5s28.5 30.167 28.5 51.5c0 15.333 -3.33301 28.166 -10 38.499s-18.667 19.833 -36 28.5s-43.333 18.667 -78 30c-55.333 18.667 -94.833 39.167 -118.5 61.5
s-35.5 52.833 -35.5 91.5c0 25.333 7.5 48.833 22.5 70.5s34.5 39.834 58.5 54.501c-39.333 30 -59 66.333 -59 109c0 44 18.167 79.333 54.5 106s81.166 40 134.499 40c34.667 0 65.167 -4.66699 91.5 -14zM202.503 374.999
c-8.33301 -15.333 -12.5 -30.0039 -12.5 -44.0039c0 -18.667 4.16699 -33.334 12.5 -44.001s21.833 -20.167 40.5 -28.5s51.667 -21.166 99 -38.499c2.66699 -0.666992 5.5 -1.66699 8.5 -3s6.5 -2.66602 10.5 -3.99902c15.333 12.667 27.333 26.5 36 41.5
s13 29.833 13 44.5c0 18.667 -4.5 33.334 -13.5 44.001s-23.5 20.334 -43.5 29.001s-58 23.334 -114 44.001c-16 -12 -28.167 -25.667 -36.5 -41z" />
    <glyph glyph-name="dieresis" unicode="&#xa8;" 
d="M157 663.5c-10.667 10.333 -16 22.833 -16 37.5c0 16 5.33301 29.167 16 39.5s23.667 15.5 39 15.5s28.166 -5.16699 38.499 -15.5s15.5 -23.5 15.5 -39.5c0 -15.333 -5.16699 -28 -15.5 -38s-23.166 -15 -38.499 -15s-28.333 5.16699 -39 15.5zM364.5 663
c-10.333 10 -15.5 22.667 -15.5 38c0 16 5.16699 29.167 15.5 39.5s23.166 15.5 38.499 15.5s28.333 -5.16699 39 -15.5s16 -23.5 16 -39.5c0 -14.667 -5.33301 -27.167 -16 -37.5s-23.667 -15.5 -39 -15.5s-28.166 5 -38.499 15z" />
    <glyph glyph-name="copyright" unicode="&#xa9;" 
d="M446 705.5c40.667 -27.667 71.667 -65.165 93 -112.498s32 -100 32 -158s-10.667 -110.5 -32 -157.5s-52.333 -84.167 -93 -111.5s-89 -41 -145 -41s-104.5 13.667 -145.5 41s-72.333 64.666 -94 111.999s-32.5 99.666 -32.5 156.999c0 58 10.833 110.667 32.5 158
s53 84.833 94 112.5s89.5 41.5 145.5 41.5s104.333 -13.833 145 -41.5zM182.5 662.502c-32.333 -23 -56.666 -54.333 -72.999 -94s-24.5 -84.167 -24.5 -133.5s8.16699 -93.5 24.5 -132.5s40.666 -69.833 72.999 -92.5s71.833 -34 118.5 -34s86.167 11.333 118.5 34
s56.5 53.5 72.5 92.5s24 83.167 24 132.5s-8 93.833 -24 133.5s-40.167 71 -72.5 94s-71.833 34.5 -118.5 34.5s-86.167 -11.5 -118.5 -34.5zM368 616.002c17.333 -6 35.333 -15.998 54 -29.998l-36 -47c-26 20 -52 30 -78 30c-28 0 -50.667 -10.833 -68 -32.5
s-26 -55.167 -26 -100.5c0 -42.667 8.33301 -74.834 25 -96.501s39.667 -32.5 69 -32.5c32 0 60.667 11.667 86 35l33 -48c-35.333 -31.333 -76 -47 -122 -47c-48.667 0 -88 16.667 -118 50s-45 79.666 -45 138.999c0 40 7.33301 74.167 22 102.5s34.334 49.833 59.001 64.5
s51.667 22 81 22c25.333 0 46.666 -3 63.999 -9z" />
    <glyph glyph-name="ordfeminine" unicode="&#xaa;" 
d="M414 712.5c28 -24.333 42.002 -58.833 42.002 -103.5v-197c0 -14.667 2.66699 -26 8 -34s14 -13.667 26 -17l-19 -54c-21.333 2.66699 -38.833 8.66699 -52.5 18s-23.834 23 -30.501 41c-16 -18.667 -35.833 -33.167 -59.5 -43.5s-48.5 -15.5 -74.5 -15.5
c-45.333 0 -82 12.167 -110 36.5s-42 56.5 -42 96.5c0 44 19 77.833 57 101.5s91.333 35.5 160 35.5h59v29c0 52.667 -33 79 -99 79c-36.667 0 -77.334 -8.33301 -122.001 -25l-23 59c53.333 20 105.333 30 156 30c54.667 0 96 -12.167 124 -36.5zM320.002 520
c-88.667 0 -132.999 -25.333 -132.999 -76c0 -25.333 7.33301 -44.5 22 -57.5s36 -19.5 64 -19.5c20 0 39.167 5 57.5 15s34.166 23.667 47.499 41v97h-58zM498.003 75v-75h-392v75h392z" />
    <glyph glyph-name="guillemotleft" unicode="&#xab;" 
d="M309 87l-51 -32l-176 208v61l176 208l51 -32l-136 -206zM517 87l-51 -32l-177 208v61l177 208l51 -32l-136 -206z" />
    <glyph glyph-name="logicalnot" unicode="&#xac;" 
d="M484 348v-214h-77v142h-291v72h368z" />
    <glyph glyph-name="uni00AD" unicode="&#xad;" 
d="M144 277v72h312v-72h-312z" />
    <glyph glyph-name="registered" unicode="&#xae;" 
d="M427 712.5c38.667 -23 69.334 -54 92.001 -93s34 -81.5 34 -127.5s-11.333 -88.333 -34 -127s-53.334 -69.334 -92.001 -92.001s-81 -34 -127 -34s-88.5 11.333 -127.5 34s-69.833 53.334 -92.5 92.001s-34 81 -34 127s11.333 88.5 34 127.5s53.5 70 92.5 93
s81.5 34.5 127.5 34.5s88.333 -11.5 127 -34.5zM198 672c-30.667 -18.667 -54.834 -44.001 -72.501 -76.001s-26.5 -66.667 -26.5 -104c0 -38 8.83301 -72.667 26.5 -104s41.834 -56.166 72.501 -74.499s64.667 -27.5 102 -27.5s71.333 9.16699 102 27.5
s54.667 43.166 72 74.499s26 66 26 104s-8.66699 72.833 -26 104.5s-41.333 56.834 -72 75.501s-64.667 28 -102 28s-71.333 -9.33301 -102 -28zM408 550.999c0 -20 -6 -36.667 -18 -50s-28.333 -23 -49 -29l86 -118h-66l-75 109h-29v-109h-56v282h85
c81.333 0 122 -28.333 122 -85zM257 591.999v-86h32c40.667 0 61 15 61 45c0 27.333 -21 41 -63 41h-30z" />
    <glyph glyph-name="macron" unicode="&#xaf;" 
d="M434 676h-269v64h269v-64z" />
    <glyph glyph-name="degree" unicode="&#xb0;" 
d="M307.5 730.5c25 -12.333 45.001 -30.332 60.001 -53.999s22.5 -51.834 22.5 -84.501c0 -32 -7.5 -59.833 -22.5 -83.5s-35 -41.667 -60 -54s-51.5 -18.5 -79.5 -18.5c-28.667 0 -55.334 6.16699 -80.001 18.5s-44.667 30.5 -60 54.5s-23 52 -23 84
s7.66699 59.833 23 83.5s35.5 41.667 60.5 54s51.5 18.5 79.5 18.5s54.5 -6.16699 79.5 -18.5zM165.001 664.501c-17.333 -16.333 -26 -40.167 -26 -71.5s8.66699 -55.5 26 -72.5s38.333 -25.5 63 -25.5s45.667 8.33301 63 25s26 40.667 26 72s-8.66699 55.333 -26 72
s-38.333 25 -63 25s-45.667 -8.16699 -63 -24.5z" />
    <glyph glyph-name="plusminus" unicode="&#xb1;" 
d="M340 538v-149h144v-71h-144v-155h-80v155h-144v71h144v149h80zM484 73v-73h-368v73h368z" />
    <glyph glyph-name="uni00B2" unicode="&#xb2;" 
d="M419 480c-10.667 -16 -27.832 -31.833 -51.499 -47.5s-57.5 -34.5 -101.5 -56.5h179l-9 -61h-277v53c62.667 38 106.167 65 130.5 81s42 30.333 53 43s16.5 26.334 16.5 41.001c0 15.333 -5.16699 27.166 -15.5 35.499s-24.833 12.5 -43.5 12.5
c-36.667 0 -68.334 -16 -95.001 -48l-51 39c20 22.667 42.667 40 68 52s52 18 80 18c41.333 0 73.833 -9.66699 97.5 -29s35.5 -45 35.5 -77c0 -21.333 -5.33301 -40 -16 -56z" />
    <glyph glyph-name="uni00B3" unicode="&#xb3;" 
d="M403 618c23.333 -16 34.998 -37.666 34.998 -64.999c0 -18.667 -5.33301 -33.334 -16 -44.001s-29 -18.334 -55 -23.001c29.333 -4.66699 50.833 -12.667 64.5 -24s20.5 -28.666 20.5 -51.999c0 -30.667 -13.667 -55.167 -41 -73.5s-65 -27.5 -113 -27.5
c-28.667 0 -56.167 4.66699 -82.5 14s-49.166 24 -68.499 44l46 39c29.333 -26.667 65.333 -40 108 -40c25.333 0 44.333 4 57 12s19 19.333 19 34c0 16.667 -6 28.667 -18 36s-30 11 -54 11h-46l7 43h35c42.667 0 64 13.667 64 41c0 29.333 -20.667 44 -62 44
c-36 0 -70.667 -12.667 -104 -38l-40 41c42.667 34.667 92.334 52 149.001 52c40 0 71.667 -8 95 -24z" />
    <glyph glyph-name="acute" unicode="&#xb4;" 
d="M384 797l38 -72l-209 -85l-26 45z" />
    <glyph glyph-name="uni00B5" unicode="&#xb5;" 
d="M484 168c0 -52 9.00195 -108.001 27.002 -168.001l-79 -12c-4.66699 8.66699 -9.5 21.667 -14.5 39s-8.16699 32.666 -9.5 45.999c-15.333 -25.333 -36 -45.833 -62 -61.5s-52.333 -23.5 -79 -23.5s-47.334 3.83301 -62.001 11.5s-28.667 20.834 -42 39.501
c6 -43.333 9 -72.666 9 -87.999v-153l-84 -10v739h84v-296c0 -40 2 -71.5 6 -94.5s12.5 -41 25.5 -54s32.167 -19.5 57.5 -19.5c29.333 0 55.666 7.33301 78.999 22s43.333 33.667 60 57v385h84v-359z" />
    <glyph glyph-name="paragraph" unicode="&#xb6;" 
d="M556 -201l-76.999 -11v831h-112v-820l-77 -11v501c-52.667 0 -97.667 8.66699 -135 26s-65.333 41 -84 71s-28 63.667 -28 101c0 38.667 9.66699 73.167 29 103.5s48.166 54.333 86.499 72s84.5 26.5 138.5 26.5h259v-890z" />
    <glyph glyph-name="periodcentered" unicode="&#xb7;" 
d="M236.5 404.5c17 17 37.833 25.5 62.5 25.5c25.333 0 46.333 -8.5 63 -25.5s25 -37.833 25 -62.5c0 -25.333 -8.33301 -46.333 -25 -63s-37.667 -25 -63 -25c-24.667 0 -45.5 8.5 -62.5 25.5s-25.5 37.833 -25.5 62.5s8.5 45.5 25.5 62.5z" />
    <glyph glyph-name="cedilla" unicode="&#xb8;" 
d="M319 -106c-14 6 -35.6689 9.00195 -65.002 9.00195l8 113h58v-73c30.667 -2.66699 53.834 -11.834 69.501 -27.501s23.5 -34.167 23.5 -55.5c0 -31.333 -11.833 -55.5 -35.5 -72.5s-52.5 -25.5 -86.5 -25.5c-20 0 -39.167 2.16699 -57.5 6.5
s-34.166 10.166 -47.499 17.499l27 48c20 -10.667 42.333 -16 67 -16c40 0 60 13.667 60 41c0 17.333 -7 29 -21 35z" />
    <glyph glyph-name="uni00B9" unicode="&#xb9;" 
d="M330 315v239l-96 -52l-35 49l145 85h57v-321h-71z" />
    <glyph glyph-name="ordmasculine" unicode="&#xba;" 
d="M448.5 689.5c36.333 -39.667 54.501 -93.165 54.501 -160.498c0 -43.333 -8.33301 -81.833 -25 -115.5s-40.334 -59.834 -71.001 -78.501s-66.334 -28 -107.001 -28c-62 0 -111.5 20.167 -148.5 60.5s-55.5 94.166 -55.5 161.499c0 43.333 8.5 81.5 25.5 114.5
s40.833 58.833 71.5 77.5s66.334 28 107.001 28c62.667 0 112.167 -19.833 148.5 -59.5zM212.001 646.002c-21.333 -26 -32.001 -65 -32.001 -117c0 -52.667 10.5 -92 31.5 -118s50.5 -39 88.5 -39c37.333 0 66.5 13 87.5 39s31.5 65.333 31.5 118c0 52 -10.5 91 -31.5 117
s-50.167 39 -87.5 39s-66.666 -13 -87.999 -39zM497 75.002v-75h-393v75h393z" />
    <glyph glyph-name="guillemotright" unicode="&#xbb;" 
d="M217 294l-135 206l51 32l176 -208v-61l-176 -208l-51 32zM424 294l-135 206l51 32l177 -208v-61l-177 -208l-51 32z" />
    <glyph glyph-name="onequarter" unicode="&#xbc;" 
d="M129 368v239l-96 -52l-35 49l145 85h57v-321h-71zM44 184l-30 54l535 256l29 -54zM546 56v-56h-73v56h-179v48l136 227l61 -25l-115 -191h97l6 86h67v-86h55v-59h-55z" />
    <glyph glyph-name="onehalf" unicode="&#xbd;" 
d="M126 368v239l-96 -52l-35 49l145 85h57v-321h-71zM40 184l-30 54l535 256l29 -54zM578 165c-10.667 -16 -27.832 -31.833 -51.499 -47.5s-57.5 -34.5 -101.5 -56.5h179l-9 -61h-277v53c62.667 38 106.167 65 130.5 81s42 30.333 53 43s16.5 26.334 16.5 41.001
c0 15.333 -5.16699 27.166 -15.5 35.499s-24.833 12.5 -43.5 12.5c-36.667 0 -68.334 -16 -95.001 -48l-51 39c20 22.667 42.667 40 68 52s52 18 80 18c41.333 0 73.833 -9.66699 97.5 -29s35.5 -45 35.5 -77c0 -21.333 -5.33301 -40 -16 -56z" />
    <glyph glyph-name="threequarters" unicode="&#xbe;" 
d="M253 671c23.333 -16 34.998 -37.666 34.998 -64.999c0 -18.667 -5.33301 -33.334 -16 -44.001s-29 -18.334 -55 -23.001c29.333 -4.66699 50.833 -12.667 64.5 -24s20.5 -28.666 20.5 -51.999c0 -30.667 -13.667 -55.167 -41 -73.5s-65 -27.5 -113 -27.5
c-28.667 0 -56.167 4.66699 -82.5 14s-49.166 24 -68.499 44l46 39c29.333 -26.667 65.333 -40 108 -40c25.333 0 44.333 4 57 12s19 19.333 19 34c0 16.667 -6 28.667 -18 36s-30 11 -54 11h-46l7 43h35c42.667 0 64 13.667 64 41c0 29.333 -20.667 44 -62 44
c-36 0 -70.667 -12.667 -104 -38l-40 41c42.667 34.667 92.334 52 149.001 52c40 0 71.667 -8 95 -24zM53.998 184.001l-30 54l535 256l29 -54zM547.998 56.001v-56h-73v56h-179v48l136 227l61 -25l-115 -191h97l6 86h67v-86h55v-59h-55z" />
    <glyph glyph-name="questiondown" unicode="&#xbf;" 
d="M371.5 479c13 -13.333 19.5 -29.333 19.5 -48s-6.5 -34.334 -19.5 -47.001s-28.833 -19 -47.5 -19s-34.5 6.33301 -47.5 19s-19.5 28.334 -19.5 47.001c0 19.333 6.5 35.5 19.5 48.5s28.833 19.5 47.5 19.5s34.5 -6.66699 47.5 -20zM370 222
c0 -27.333 -4.66699 -51.1719 -14 -71.5049s-20.833 -37 -34.5 -50s-31.167 -27.5 -52.5 -43.5c-26 -19.333 -45.333 -36.666 -58 -51.999s-19 -34.333 -19 -57c0 -28 11 -50 33 -66s50.333 -24 85 -24c25.333 0 50.5 6.16699 75.5 18.5s47.167 30.833 66.5 55.5l60 -45
c-56 -66 -126 -99 -210 -99c-39.333 0 -74 7.33301 -104 22s-53 33.834 -69 57.501s-24 48.834 -24 75.501c0 25.333 4.16699 46.833 12.5 64.5s18.666 32.334 30.999 44.001s28.833 24.834 49.5 39.501c28.667 21.333 50.334 41.333 65.001 60s22 43.667 22 75v34h85v-38z
" />
    <glyph glyph-name="Agrave" unicode="&#xc0;" 
d="M434 176h-273l-55 -176h-86l225 689h110l224 -689h-90zM184 248h227l-113 367zM231 909l185 -108l-26 -46l-205 82z" />
    <glyph glyph-name="Aacute" unicode="&#xc1;" 
d="M434 176h-273l-55 -176h-86l225 689h110l224 -689h-90zM184 248h227l-113 367zM383 906l37 -72l-213 -79l-22 46z" />
    <glyph glyph-name="Acircumflex" unicode="&#xc2;" 
d="M434 176h-273l-55 -176h-86l225 689h110l224 -689h-90zM184 248h227l-113 367zM329 910l134 -107l-37 -43l-126 81l-125 -81l-38 43l135 107h57z" />
    <glyph glyph-name="Atilde" unicode="&#xc3;" 
d="M434 176h-273l-55 -176h-86l225 689h110l224 -689h-90zM184 248h227l-113 367zM323.5 785c-10.333 4.66699 -21.835 11.334 -34.502 20.001c-10 7.33301 -18.5 12.666 -25.5 15.999s-14.167 5 -21.5 5c-10.667 0 -20 -3.66699 -28 -11s-16.333 -19 -25 -35l-53 26
c12.667 26 27.834 46.667 45.501 62s37.834 23 60.501 23c14 0 26 -2.5 36 -7.5s21.333 -11.833 34 -20.5c11.333 -8 20 -13.5 26 -16.5s12.667 -4.5 20 -4.5c10 0 19 3.5 27 10.5s16.667 18.5 26 34.5l54 -27c-12.667 -27.333 -28.167 -47.833 -46.5 -61.5
s-38.5 -20.5 -60.5 -20.5c-12.667 0 -24.167 2.33301 -34.5 7z" />
    <glyph glyph-name="Adieresis" unicode="&#xc4;" 
d="M434 176h-273l-55 -176h-86l225 689h110l224 -689h-90zM184 248h227l-113 367zM157 782.5c-10.667 10.333 -16 22.833 -16 37.5c0 16 5.33301 29.167 16 39.5s23.667 15.5 39 15.5s28.166 -5.16699 38.499 -15.5s15.5 -23.5 15.5 -39.5c0 -15.333 -5.16699 -28 -15.5 -38
s-23.166 -15 -38.499 -15s-28.333 5.16699 -39 15.5zM364.5 782c-10.333 10 -15.5 22.667 -15.5 38c0 16 5.16699 29.167 15.5 39.5s23.166 15.5 38.499 15.5s28.333 -5.16699 39 -15.5s16 -23.5 16 -39.5c0 -14.667 -5.33301 -27.167 -16 -37.5s-23.667 -15.5 -39 -15.5
s-28.166 5 -38.499 15z" />
    <glyph glyph-name="Aring" unicode="&#xc5;" 
d="M434 176h-273l-55 -176h-86l225 689h110l224 -689h-90zM184 248h227l-113 367zM379.5 913c21 -20 31.5 -44.333 31.5 -73s-10.5 -52.834 -31.5 -72.501s-47.5 -29.5 -79.5 -29.5s-58.5 9.83301 -79.5 29.5s-31.5 43.834 -31.5 72.501s10.5 53 31.5 73s47.5 30 79.5 30
s58.5 -10 79.5 -30zM260.5 881c-9.66699 -10 -14.498 -23.667 -14.498 -41c0 -18 4.83301 -32 14.5 -42s22.834 -15 39.501 -15c17.333 0 30.666 5 39.999 15s14 24 14 42c0 17.333 -4.83301 31 -14.5 41s-22.834 15 -39.501 15s-29.834 -5 -39.501 -15z" />
    <glyph glyph-name="AE" unicode="&#xc6;" 
d="M330 175h-204l-49 -175h-89l202 689h376l-10 -71h-236l51 -233h186v-71h-173l52 -243h171v-71h-241zM148 248h166l-73 372z" />
    <glyph glyph-name="Ccedilla" unicode="&#xc7;" 
d="M439.5 -84.5c15.667 -15.667 23.4951 -34.165 23.4951 -55.498c0 -31.333 -11.833 -55.5 -35.5 -72.5s-52.5 -25.5 -86.5 -25.5c-20 0 -39.167 2.16699 -57.5 6.5s-34.166 10.166 -47.499 17.499l27 48c20 -10.667 42.333 -16 67 -16c40 0 60 13.667 60 41
c0 17.333 -7 29 -21 35s-35.667 9 -65 9l6 90c-48 8 -90.667 26.667 -128 56s-66.5 69.166 -87.5 119.499s-31.5 109.166 -31.5 176.499c0 74.667 13.167 138.834 39.5 192.501s62 94.167 107 121.5s94.5 41 148.5 41c42.667 0 79.334 -5.5 110.001 -16.5
s60.667 -27.833 90 -50.5l-49 -57c-40.667 34 -89 51 -145 51c-62 0 -112.5 -22.5 -151.5 -67.5s-58.5 -116.5 -58.5 -214.5c0 -97.333 19 -168.666 57 -213.999s88.667 -68 152 -68c34.667 0 64.334 5 89.001 15s48.334 24 71.001 42l45 -56
c-49.333 -48 -115.333 -73 -198 -75v-46c30.667 -2.66699 53.834 -11.834 69.501 -27.501z" />
    <glyph glyph-name="Egrave" unicode="&#xc8;" 
d="M212 617v-232h256v-71h-256v-244h314v-70h-400v689h391l-10 -72h-295zM252 909l185 -108l-26 -46l-205 82z" />
    <glyph glyph-name="Eacute" unicode="&#xc9;" 
d="M212 617v-232h256v-71h-256v-244h314v-70h-400v689h391l-10 -72h-295zM404 906l37 -72l-213 -79l-22 46z" />
    <glyph glyph-name="Ecircumflex" unicode="&#xca;" 
d="M212 617v-232h256v-71h-256v-244h314v-70h-400v689h391l-10 -72h-295zM350 910l134 -107l-37 -43l-126 81l-125 -81l-38 43l135 107h57z" />
    <glyph glyph-name="Edieresis" unicode="&#xcb;" 
d="M212 617v-232h256v-71h-256v-244h314v-70h-400v689h391l-10 -72h-295zM178 782.5c-10.667 10.333 -16 22.833 -16 37.5c0 16 5.33301 29.167 16 39.5s23.667 15.5 39 15.5s28.166 -5.16699 38.499 -15.5s15.5 -23.5 15.5 -39.5c0 -15.333 -5.16699 -28 -15.5 -38
s-23.166 -15 -38.499 -15s-28.333 5.16699 -39 15.5zM385.5 782c-10.333 10 -15.5 22.667 -15.5 38c0 16 5.16699 29.167 15.5 39.5s23.166 15.5 38.499 15.5s28.333 -5.16699 39 -15.5s16 -23.5 16 -39.5c0 -14.667 -5.33301 -27.167 -16 -37.5s-23.667 -15.5 -39 -15.5
s-28.166 5 -38.499 15z" />
    <glyph glyph-name="Igrave" unicode="&#xcc;" 
d="M497 689v-70h-153v-550h153v-69h-394v69h153v550h-153v70h394zM231 909l185 -108l-26 -46l-205 82z" />
    <glyph glyph-name="Iacute" unicode="&#xcd;" 
d="M497 689v-70h-153v-550h153v-69h-394v69h153v550h-153v70h394zM383 906l37 -72l-213 -79l-22 46z" />
    <glyph glyph-name="Icircumflex" unicode="&#xce;" 
d="M497 689v-70h-153v-550h153v-69h-394v69h153v550h-153v70h394zM329 910l134 -107l-37 -43l-126 81l-125 -81l-38 43l135 107h57z" />
    <glyph glyph-name="Idieresis" unicode="&#xcf;" 
d="M497 689v-70h-153v-550h153v-69h-394v69h153v550h-153v70h394zM157 782.5c-10.667 10.333 -16 22.833 -16 37.5c0 16 5.33301 29.167 16 39.5s23.667 15.5 39 15.5s28.166 -5.16699 38.499 -15.5s15.5 -23.5 15.5 -39.5c0 -15.333 -5.16699 -28 -15.5 -38
s-23.166 -15 -38.499 -15s-28.333 5.16699 -39 15.5zM364.5 782c-10.333 10 -15.5 22.667 -15.5 38c0 16 5.16699 29.167 15.5 39.5s23.166 15.5 38.499 15.5s28.333 -5.16699 39 -15.5s16 -23.5 16 -39.5c0 -14.667 -5.33301 -27.167 -16 -37.5s-23.667 -15.5 -39 -15.5
s-28.166 5 -38.499 15z" />
    <glyph glyph-name="Eth" unicode="&#xd0;" 
d="M474 616c59.333 -48.667 89 -137.999 89 -267.999c0 -130.667 -30 -221.334 -90 -272.001s-134 -76 -222 -76h-158v320h-73v66h73v303h147c96.667 0 174.667 -24.333 234 -73zM410.5 131.501c39.667 41 59.5 113.166 59.5 216.499
c0 74.667 -10.167 131.834 -30.5 171.501s-45.5 66 -75.5 79s-64.333 19.5 -103 19.5h-81v-232h158v-66h-158v-250h82c59.333 0 108.833 20.5 148.5 61.5z" />
    <glyph glyph-name="Ntilde" unicode="&#xd1;" 
d="M152 605c0 -4.66699 2 -33.667 6 -87s6 -111 6 -173v-345h-81v689h118l247 -608l-2 36c-6.66699 82 -10 157.667 -10 227v345h81v-689h-122zM322.5 785c-10.333 4.66699 -21.835 11.334 -34.502 20.001c-10 7.33301 -18.5 12.666 -25.5 15.999s-14.167 5 -21.5 5
c-10.667 0 -20 -3.66699 -28 -11s-16.333 -19 -25 -35l-53 26c12.667 26 27.834 46.667 45.501 62s37.834 23 60.501 23c14 0 26 -2.5 36 -7.5s21.333 -11.833 34 -20.5c11.333 -8 20 -13.5 26 -16.5s12.667 -4.5 20 -4.5c10 0 19 3.5 27 10.5s16.667 18.5 26 34.5l54 -27
c-12.667 -27.333 -28.167 -47.833 -46.5 -61.5s-38.5 -20.5 -60.5 -20.5c-12.667 0 -24.167 2.33301 -34.5 7z" />
    <glyph glyph-name="Ograve" unicode="&#xd2;" 
d="M487.5 86c-43.667 -64.667 -106.167 -96.999 -187.5 -96.999c-82 0 -144.667 31.667 -188 95s-65 149.666 -65 258.999c0 70 9.66699 132 29 186s48 96 86 126s84 45 138 45c81.333 0 143.833 -32.167 187.5 -96.5s65.5 -150.833 65.5 -259.5
c0 -107.333 -21.833 -193.333 -65.5 -258zM424 556.001c-26 47.333 -67.333 71 -124 71s-98 -23.833 -124 -71.5s-39 -118.5 -39 -212.5c0 -93.333 13.167 -163.5 39.5 -210.5s67.5 -70.5 123.5 -70.5c56.667 0 98 23.5 124 70.5s39 117.5 39 211.5s-13 164.667 -39 212z
M231 909.001l185 -108l-26 -46l-205 82z" />
    <glyph glyph-name="Oacute" unicode="&#xd3;" 
d="M487.5 86c-43.667 -64.667 -106.167 -96.999 -187.5 -96.999c-82 0 -144.667 31.667 -188 95s-65 149.666 -65 258.999c0 70 9.66699 132 29 186s48 96 86 126s84 45 138 45c81.333 0 143.833 -32.167 187.5 -96.5s65.5 -150.833 65.5 -259.5
c0 -107.333 -21.833 -193.333 -65.5 -258zM424 556.001c-26 47.333 -67.333 71 -124 71s-98 -23.833 -124 -71.5s-39 -118.5 -39 -212.5c0 -93.333 13.167 -163.5 39.5 -210.5s67.5 -70.5 123.5 -70.5c56.667 0 98 23.5 124 70.5s39 117.5 39 211.5s-13 164.667 -39 212z
M383 906.001l37 -72l-213 -79l-22 46z" />
    <glyph glyph-name="Ocircumflex" unicode="&#xd4;" 
d="M487.5 86c-43.667 -64.667 -106.167 -96.999 -187.5 -96.999c-82 0 -144.667 31.667 -188 95s-65 149.666 -65 258.999c0 70 9.66699 132 29 186s48 96 86 126s84 45 138 45c81.333 0 143.833 -32.167 187.5 -96.5s65.5 -150.833 65.5 -259.5
c0 -107.333 -21.833 -193.333 -65.5 -258zM424 556.001c-26 47.333 -67.333 71 -124 71s-98 -23.833 -124 -71.5s-39 -118.5 -39 -212.5c0 -93.333 13.167 -163.5 39.5 -210.5s67.5 -70.5 123.5 -70.5c56.667 0 98 23.5 124 70.5s39 117.5 39 211.5s-13 164.667 -39 212z
M329 910.001l134 -107l-37 -43l-126 81l-125 -81l-38 43l135 107h57z" />
    <glyph glyph-name="Otilde" unicode="&#xd5;" 
d="M487.5 86c-43.667 -64.667 -106.167 -96.999 -187.5 -96.999c-82 0 -144.667 31.667 -188 95s-65 149.666 -65 258.999c0 70 9.66699 132 29 186s48 96 86 126s84 45 138 45c81.333 0 143.833 -32.167 187.5 -96.5s65.5 -150.833 65.5 -259.5
c0 -107.333 -21.833 -193.333 -65.5 -258zM424 556.001c-26 47.333 -67.333 71 -124 71s-98 -23.833 -124 -71.5s-39 -118.5 -39 -212.5c0 -93.333 13.167 -163.5 39.5 -210.5s67.5 -70.5 123.5 -70.5c56.667 0 98 23.5 124 70.5s39 117.5 39 211.5s-13 164.667 -39 212z
M323.5 785.001c-10.333 4.66699 -21.835 11.334 -34.502 20.001c-10 7.33301 -18.5 12.666 -25.5 15.999s-14.167 5 -21.5 5c-10.667 0 -20 -3.66699 -28 -11s-16.333 -19 -25 -35l-53 26c12.667 26 27.834 46.667 45.501 62s37.834 23 60.501 23c14 0 26 -2.5 36 -7.5
s21.333 -11.833 34 -20.5c11.333 -8 20 -13.5 26 -16.5s12.667 -4.5 20 -4.5c10 0 19 3.5 27 10.5s16.667 18.5 26 34.5l54 -27c-12.667 -27.333 -28.167 -47.833 -46.5 -61.5s-38.5 -20.5 -60.5 -20.5c-12.667 0 -24.167 2.33301 -34.5 7z" />
    <glyph glyph-name="Odieresis" unicode="&#xd6;" 
d="M487.5 86c-43.667 -64.667 -106.167 -96.999 -187.5 -96.999c-82 0 -144.667 31.667 -188 95s-65 149.666 -65 258.999c0 70 9.66699 132 29 186s48 96 86 126s84 45 138 45c81.333 0 143.833 -32.167 187.5 -96.5s65.5 -150.833 65.5 -259.5
c0 -107.333 -21.833 -193.333 -65.5 -258zM424 556.001c-26 47.333 -67.333 71 -124 71s-98 -23.833 -124 -71.5s-39 -118.5 -39 -212.5c0 -93.333 13.167 -163.5 39.5 -210.5s67.5 -70.5 123.5 -70.5c56.667 0 98 23.5 124 70.5s39 117.5 39 211.5s-13 164.667 -39 212z
M157 782.501c-10.667 10.333 -16 22.833 -16 37.5c0 16 5.33301 29.167 16 39.5s23.667 15.5 39 15.5s28.166 -5.16699 38.499 -15.5s15.5 -23.5 15.5 -39.5c0 -15.333 -5.16699 -28 -15.5 -38s-23.166 -15 -38.499 -15s-28.333 5.16699 -39 15.5zM364.5 782.001
c-10.333 10 -15.5 22.667 -15.5 38c0 16 5.16699 29.167 15.5 39.5s23.166 15.5 38.499 15.5s28.333 -5.16699 39 -15.5s16 -23.5 16 -39.5c0 -14.667 -5.33301 -27.167 -16 -37.5s-23.667 -15.5 -39 -15.5s-28.166 5 -38.499 15z" />
    <glyph glyph-name="multiply" unicode="&#xd7;" 
d="M423 483l52 -53l-123 -123l123 -123l-52 -52l-123 123l-123 -123l-52 52l123 123l-123 123l52 53l123 -124z" />
    <glyph glyph-name="Oslash" unicode="&#xd8;" 
d="M522.5 535.5c20.333 -54.333 30.499 -118.167 30.499 -191.5c0 -107.333 -21.833 -193.333 -65.5 -258s-106.167 -97 -187.5 -97c-18.667 0 -39.667 2.33301 -63 7l-33 -106l-75 19l38 120c-39.333 28 -69.166 69 -89.499 123s-30.5 117.667 -30.5 191
c0 70 9.66699 132 29 186s48 96 86 126s84 45 138 45c22 0 43.667 -2.66699 65 -8l32 111l75 -20l-38 -124c38.667 -28 68.167 -69.167 88.5 -123.5zM152.499 188.499c9.66699 -39.667 24.834 -69.833 45.501 -90.5l150 523c-14 4 -30 6 -48 6
c-56.667 0 -97.834 -23.833 -123.501 -71.5s-38.5 -118.5 -38.5 -212.5c0 -63.333 4.83301 -114.833 14.5 -154.5zM423.499 132.5c25.667 47 38.5 117.498 38.5 211.498c0 64.667 -4.83301 116.834 -14.5 156.501s-24.834 69.834 -45.501 90.501l-150 -523
c14 -4 30 -6 48 -6c56.667 0 97.834 23.5 123.501 70.5z" />
    <glyph glyph-name="Ugrave" unicode="&#xd9;" 
d="M528 223c0 -46 -9.49902 -86.833 -28.499 -122.5s-45.667 -63.167 -80 -82.5s-74.5 -29 -120.5 -29c-46.667 0 -87 9.83301 -121 29.5s-60.167 47.167 -78.5 82.5s-27.5 76 -27.5 122v466h87v-469c0 -52 12 -91 36 -117s58.667 -39 104 -39s80.166 13 104.499 39
s36.5 65 36.5 117v469h88v-466zM231.001 909l185 -108l-26 -46l-205 82z" />
    <glyph glyph-name="Uacute" unicode="&#xda;" 
d="M528 223c0 -46 -9.49902 -86.833 -28.499 -122.5s-45.667 -63.167 -80 -82.5s-74.5 -29 -120.5 -29c-46.667 0 -87 9.83301 -121 29.5s-60.167 47.167 -78.5 82.5s-27.5 76 -27.5 122v466h87v-469c0 -52 12 -91 36 -117s58.667 -39 104 -39s80.166 13 104.499 39
s36.5 65 36.5 117v469h88v-466zM383.001 906l37 -72l-213 -79l-22 46z" />
    <glyph glyph-name="Ucircumflex" unicode="&#xdb;" 
d="M528 223c0 -46 -9.49902 -86.833 -28.499 -122.5s-45.667 -63.167 -80 -82.5s-74.5 -29 -120.5 -29c-46.667 0 -87 9.83301 -121 29.5s-60.167 47.167 -78.5 82.5s-27.5 76 -27.5 122v466h87v-469c0 -52 12 -91 36 -117s58.667 -39 104 -39s80.166 13 104.499 39
s36.5 65 36.5 117v469h88v-466zM329.001 910l134 -107l-37 -43l-126 81l-125 -81l-38 43l135 107h57z" />
    <glyph glyph-name="Udieresis" unicode="&#xdc;" 
d="M528 223c0 -46 -9.49902 -86.833 -28.499 -122.5s-45.667 -63.167 -80 -82.5s-74.5 -29 -120.5 -29c-46.667 0 -87 9.83301 -121 29.5s-60.167 47.167 -78.5 82.5s-27.5 76 -27.5 122v466h87v-469c0 -52 12 -91 36 -117s58.667 -39 104 -39s80.166 13 104.499 39
s36.5 65 36.5 117v469h88v-466zM157.001 782.5c-10.667 10.333 -16 22.833 -16 37.5c0 16 5.33301 29.167 16 39.5s23.667 15.5 39 15.5s28.166 -5.16699 38.499 -15.5s15.5 -23.5 15.5 -39.5c0 -15.333 -5.16699 -28 -15.5 -38s-23.166 -15 -38.499 -15
s-28.333 5.16699 -39 15.5zM364.501 782c-10.333 10 -15.5 22.667 -15.5 38c0 16 5.16699 29.167 15.5 39.5s23.166 15.5 38.499 15.5s28.333 -5.16699 39 -15.5s16 -23.5 16 -39.5c0 -14.667 -5.33301 -27.167 -16 -37.5s-23.667 -15.5 -39 -15.5s-28.166 5 -38.499 15z
" />
    <glyph glyph-name="Yacute" unicode="&#xdd;" 
d="M344 266v-266h-88v265l-233 424h96l183 -346l185 346h90zM386 906l37 -72l-213 -79l-22 46z" />
    <glyph glyph-name="Thorn" unicode="&#xde;" 
d="M194 572h97.998c84.667 0 149.834 -18 195.501 -54s68.5 -90.333 68.5 -163c0 -77.333 -23.667 -134.5 -71 -171.5s-111.666 -55.5 -192.999 -55.5h-98v-128h-87v689h87v-117zM193.998 503v-304.999h109c52 0 91.833 11.5 119.5 34.5s41.5 63.167 41.5 120.5
c0 51.333 -14.167 89.166 -42.5 113.499s-67.833 36.5 -118.5 36.5h-109z" />
    <glyph glyph-name="germandbls" unicode="&#xdf;" 
d="M422.5 709c32.333 -26.667 48.501 -61.3311 48.501 -103.998c0 -24 -5.66699 -43.667 -17 -59s-27.666 -32 -48.999 -50c-16.667 -14 -28.834 -25.5 -36.501 -34.5s-11.5 -19.833 -11.5 -32.5c0 -16.667 6 -30.834 18 -42.501s31.667 -26.167 59 -43.5
c26 -16.667 47.167 -31.834 63.5 -45.501s30.5 -31.334 42.5 -53.001s18 -47.5 18 -77.5c0 -37.333 -8.33301 -69.5 -25 -96.5s-39.167 -47.333 -67.5 -61s-59.5 -20.5 -93.5 -20.5c-50.667 0 -94 11.333 -130 34l35 58c12 -7.33301 25.833 -13.166 41.5 -17.499
s30.834 -6.5 45.501 -6.5c34 0 60.5 8.83301 79.5 26.5s28.5 44.167 28.5 79.5c0 28.667 -8.16699 51.667 -24.5 69s-40.833 36.333 -73.5 57c-22 14 -39.667 26.333 -53 37s-24.5 23.667 -33.5 39s-13.5 33.333 -13.5 54c0 22 5.5 40.333 16.5 55s26.5 30 46.5 46
c18 14 31.333 26.5 40 37.5s13 24.167 13 39.5c0 22 -7.5 41.667 -22.5 59s-38.833 26 -71.5 26c-38.667 0 -67.667 -11.333 -87 -34s-29 -59 -29 -109v-539h-84v533c0 70 17.667 123.5 53 160.5s84.666 55.5 147.999 55.5c51.333 0 93.166 -13.333 125.499 -40z" />
    <glyph glyph-name="agrave" unicode="&#xe0;" 
d="M488 69.5c6.66699 -9.66699 17.668 -16.8301 33.001 -21.4971l-21 -60c-51.333 6.66699 -83.333 31.667 -96 75c-18.667 -24 -42.167 -42.333 -70.5 -55s-59.833 -19 -94.5 -19c-52.667 0 -94.167 14.667 -124.5 44s-45.5 68.666 -45.5 117.999
c0 54 21.167 95.667 63.5 125s103.166 44 182.499 44h78v43c0 37.333 -10.667 64.166 -32 80.499s-52.333 24.5 -93 24.5c-40 0 -85.667 -9 -137 -27l-23 64c62 22 119.667 33 173 33c64 0 112.833 -15 146.5 -45s50.5 -71.667 50.5 -125v-253
c0 -20.667 3.33301 -35.834 10 -45.501zM334.501 72.0039c23.667 13.333 43.167 31.667 58.5 55v135h-76c-56 0 -96.333 -9.33301 -121 -28s-37 -46 -37 -82c0 -66.667 33.667 -100 101 -100c26 0 50.833 6.66699 74.5 20zM379.001 622.005l-203 93l46 72l184 -119z" />
    <glyph glyph-name="aacute" unicode="&#xe1;" 
d="M488 69.5c6.66699 -9.66699 17.668 -16.8301 33.001 -21.4971l-21 -60c-51.333 6.66699 -83.333 31.667 -96 75c-18.667 -24 -42.167 -42.333 -70.5 -55s-59.833 -19 -94.5 -19c-52.667 0 -94.167 14.667 -124.5 44s-45.5 68.666 -45.5 117.999
c0 54 21.167 95.667 63.5 125s103.166 44 182.499 44h78v43c0 37.333 -10.667 64.166 -32 80.499s-52.333 24.5 -93 24.5c-40 0 -85.667 -9 -137 -27l-23 64c62 22 119.667 33 173 33c64 0 112.833 -15 146.5 -45s50.5 -71.667 50.5 -125v-253
c0 -20.667 3.33301 -35.834 10 -45.501zM334.501 72.0039c23.667 13.333 43.167 31.667 58.5 55v135h-76c-56 0 -96.333 -9.33301 -121 -28s-37 -46 -37 -82c0 -66.667 33.667 -100 101 -100c26 0 50.833 6.66699 74.5 20zM376.001 797.005l38 -72l-209 -85l-26 45z" />
    <glyph glyph-name="acircumflex" unicode="&#xe2;" 
d="M488 69.5c6.66699 -9.66699 17.668 -16.8301 33.001 -21.4971l-21 -60c-51.333 6.66699 -83.333 31.667 -96 75c-18.667 -24 -42.167 -42.333 -70.5 -55s-59.833 -19 -94.5 -19c-52.667 0 -94.167 14.667 -124.5 44s-45.5 68.666 -45.5 117.999
c0 54 21.167 95.667 63.5 125s103.166 44 182.499 44h78v43c0 37.333 -10.667 64.166 -32 80.499s-52.333 24.5 -93 24.5c-40 0 -85.667 -9 -137 -27l-23 64c62 22 119.667 33 173 33c64 0 112.833 -15 146.5 -45s50.5 -71.667 50.5 -125v-253
c0 -20.667 3.33301 -35.834 10 -45.501zM334.501 72.0039c23.667 13.333 43.167 31.667 58.5 55v135h-76c-56 0 -96.333 -9.33301 -121 -28s-37 -46 -37 -82c0 -66.667 33.667 -100 101 -100c26 0 50.833 6.66699 74.5 20zM169.001 629.005l-40 41l135 119h57l134 -119
l-38 -41l-124 91z" />
    <glyph glyph-name="atilde" unicode="&#xe3;" 
d="M488 69.5c6.66699 -9.66699 17.668 -16.8301 33.001 -21.4971l-21 -60c-51.333 6.66699 -83.333 31.667 -96 75c-18.667 -24 -42.167 -42.333 -70.5 -55s-59.833 -19 -94.5 -19c-52.667 0 -94.167 14.667 -124.5 44s-45.5 68.666 -45.5 117.999
c0 54 21.167 95.667 63.5 125s103.166 44 182.499 44h78v43c0 37.333 -10.667 64.166 -32 80.499s-52.333 24.5 -93 24.5c-40 0 -85.667 -9 -137 -27l-23 64c62 22 119.667 33 173 33c64 0 112.833 -15 146.5 -45s50.5 -71.667 50.5 -125v-253
c0 -20.667 3.33301 -35.834 10 -45.501zM334.501 72.0039c23.667 13.333 43.167 31.667 58.5 55v135h-76c-56 0 -96.333 -9.33301 -121 -28s-37 -46 -37 -82c0 -66.667 33.667 -100 101 -100c26 0 50.833 6.66699 74.5 20zM315.501 666.005
c-10.333 4.66699 -21.835 11.334 -34.502 20.001c-10 7.33301 -18.5 12.666 -25.5 15.999s-14.167 5 -21.5 5c-10.667 0 -20 -3.66699 -28 -11s-16.333 -19 -25 -35l-53 26c12.667 26 27.834 46.667 45.501 62s37.834 23 60.501 23c14 0 26 -2.5 36 -7.5
s21.333 -11.833 34 -20.5c11.333 -8 20 -13.5 26 -16.5s12.667 -4.5 20 -4.5c10 0 19 3.5 27 10.5s16.667 18.5 26 34.5l54 -27c-12.667 -27.333 -28.167 -47.833 -46.5 -61.5s-38.5 -20.5 -60.5 -20.5c-12.667 0 -24.167 2.33301 -34.5 7z" />
    <glyph glyph-name="adieresis" unicode="&#xe4;" 
d="M488 69.5c6.66699 -9.66699 17.668 -16.8301 33.001 -21.4971l-21 -60c-51.333 6.66699 -83.333 31.667 -96 75c-18.667 -24 -42.167 -42.333 -70.5 -55s-59.833 -19 -94.5 -19c-52.667 0 -94.167 14.667 -124.5 44s-45.5 68.666 -45.5 117.999
c0 54 21.167 95.667 63.5 125s103.166 44 182.499 44h78v43c0 37.333 -10.667 64.166 -32 80.499s-52.333 24.5 -93 24.5c-40 0 -85.667 -9 -137 -27l-23 64c62 22 119.667 33 173 33c64 0 112.833 -15 146.5 -45s50.5 -71.667 50.5 -125v-253
c0 -20.667 3.33301 -35.834 10 -45.501zM334.501 72.0039c23.667 13.333 43.167 31.667 58.5 55v135h-76c-56 0 -96.333 -9.33301 -121 -28s-37 -46 -37 -82c0 -66.667 33.667 -100 101 -100c26 0 50.833 6.66699 74.5 20zM149.001 663.505
c-10.667 10.333 -16 22.833 -16 37.5c0 16 5.33301 29.167 16 39.5s23.667 15.5 39 15.5s28.166 -5.16699 38.499 -15.5s15.5 -23.5 15.5 -39.5c0 -15.333 -5.16699 -28 -15.5 -38s-23.166 -15 -38.499 -15s-28.333 5.16699 -39 15.5zM356.501 663.005
c-10.333 10 -15.5 22.667 -15.5 38c0 16 5.16699 29.167 15.5 39.5s23.166 15.5 38.499 15.5s28.333 -5.16699 39 -15.5s16 -23.5 16 -39.5c0 -14.667 -5.33301 -27.167 -16 -37.5s-23.667 -15.5 -39 -15.5s-28.166 5 -38.499 15z" />
    <glyph glyph-name="aring" unicode="&#xe5;" 
d="M488 69.5c6.66699 -9.66699 17.668 -16.8301 33.001 -21.4971l-21 -60c-51.333 6.66699 -83.333 31.667 -96 75c-18.667 -24 -42.167 -42.333 -70.5 -55s-59.833 -19 -94.5 -19c-52.667 0 -94.167 14.667 -124.5 44s-45.5 68.666 -45.5 117.999
c0 54 21.167 95.667 63.5 125s103.166 44 182.499 44h78v43c0 37.333 -10.667 64.166 -32 80.499s-52.333 24.5 -93 24.5c-40 0 -85.667 -9 -137 -27l-23 64c62 22 119.667 33 173 33c64 0 112.833 -15 146.5 -45s50.5 -71.667 50.5 -125v-253
c0 -20.667 3.33301 -35.834 10 -45.501zM334.501 72.0039c23.667 13.333 43.167 31.667 58.5 55v135h-76c-56 0 -96.333 -9.33301 -121 -28s-37 -46 -37 -82c0 -66.667 33.667 -100 101 -100c26 0 50.833 6.66699 74.5 20zM371.501 794.005c21 -20 31.5 -44.333 31.5 -73
s-10.5 -52.834 -31.5 -72.501s-47.5 -29.5 -79.5 -29.5s-58.5 9.83301 -79.5 29.5s-31.5 43.834 -31.5 72.501s10.5 53 31.5 73s47.5 30 79.5 30s58.5 -10 79.5 -30zM252.501 762.005c-9.66699 -10 -14.498 -23.667 -14.498 -41c0 -18 4.83301 -32 14.5 -42
s22.834 -15 39.501 -15c17.333 0 30.666 5 39.999 15s14 24 14 42c0 17.333 -4.83301 31 -14.5 41s-22.834 15 -39.501 15s-29.834 -5 -39.501 -15z" />
    <glyph glyph-name="ae" unicode="&#xe6;" 
d="M564.5 470.5c28.333 -45 42.499 -108.831 42.499 -191.498c0 -14.667 -0.666992 -30 -2 -46h-269c4.66699 -60.667 15.834 -104.834 33.501 -132.501s44.167 -41.5 79.5 -41.5c18 0 34.5 3.16699 49.5 9.5s31.5 16.5 49.5 30.5l39 -58c-22 -17.333 -44 -30.333 -66 -39
s-46.667 -13 -74 -13c-34 0 -63 7.5 -87 22.5s-44.333 37.167 -61 66.5c-23.333 -32 -46.5 -54.833 -69.5 -68.5s-50.833 -20.5 -83.5 -20.5c-46.667 0 -83.667 14.667 -111 44s-41 68.666 -41 117.999c0 55.333 18.167 97.333 54.5 126s89.5 43 159.5 43h46v43
c0 70 -30.333 105 -91 105c-17.333 0 -33.333 -2 -48 -6s-33.667 -11 -57 -21l-22 63c47.333 22.667 92.333 34 135 34c37.333 0 66.833 -7.5 88.5 -22.5s38.167 -36.833 49.5 -65.5c9.33301 27.333 24.833 48.833 46.5 64.5s48.167 23.5 79.5 23.5
c58 0 101.167 -22.5 129.5 -67.5zM363.999 430.002c-14.667 -25.333 -23.999 -69 -27.999 -131h189c-1.33301 57.333 -9 99.833 -23 127.5s-37.333 41.5 -70 41.5c-30.667 0 -53.334 -12.667 -68.001 -38zM212 262.002c-46 0 -78.666 -9.16699 -97.999 -27.5
s-29 -44.5 -29 -78.5c0 -33.333 6.66699 -58.833 20 -76.5s31.333 -26.5 54 -26.5c20.667 0 39.167 7.66699 55.5 23s34.166 40 53.499 74c-9.33301 30 -14 67.333 -14 112h-42z" />
    <glyph glyph-name="ccedilla" unicode="&#xe7;" 
d="M428.5 -84.5c15.667 -15.667 23.498 -34.166 23.498 -55.499c0 -31.333 -11.833 -55.5 -35.5 -72.5s-52.5 -25.5 -86.5 -25.5c-20 0 -39.167 2.16699 -57.5 6.5s-34.166 10.166 -47.499 17.499l27 48c20 -10.667 42.333 -16 67 -16c40 0 60 13.667 60 41
c0 17.333 -7 29 -21 35s-35.667 9 -65 9l6 88c-66 8.66699 -117.167 36.834 -153.5 84.501s-54.5 109.5 -54.5 185.5c0 52.667 9.83301 100 29.5 142s48.167 75 85.5 99s81.666 36 132.999 36c68 0 126.667 -20.667 176 -62l-41 -55c-46 30.667 -91.333 46 -136 46
c-47.333 0 -85.166 -17.5 -113.499 -52.5s-42.5 -86.167 -42.5 -153.5s14.167 -117.5 42.5 -150.5s66.5 -49.5 114.5 -49.5c46 0 91.667 15.333 137 46l40 -55c-20 -17.333 -44 -31.5 -72 -42.5s-56.333 -17.5 -85 -19.5v-47c30.667 -2.66699 53.834 -11.834 69.501 -27.501
z" />
    <glyph glyph-name="egrave" unicode="&#xe8;" 
d="M212.5 103c28.333 -29.333 64.166 -44.002 107.499 -44.002c26 0 49.833 3.83301 71.5 11.5s44.834 19.5 69.501 35.5l39 -56c-24.667 -19.333 -52.834 -34.333 -84.501 -45s-63.5 -16 -95.5 -16c-76 0 -135.167 24.833 -177.5 74.5s-63.5 116.167 -63.5 199.5
c0 52.667 9.33301 99.834 28 141.501s45.334 74.334 80.001 98.001s75 35.5 121 35.5c66.667 0 119.167 -23.167 157.5 -69.5s57.5 -109.5 57.5 -189.5c0 -15.333 -0.666992 -30.333 -2 -45h-354c2 -58 17.167 -101.667 45.5 -131zM210 425.498
c-25.333 -29 -39.667 -71.499 -43 -127.499h274c-0.666992 55.333 -12.667 97.666 -36 126.999s-55.333 44 -96 44s-73.667 -14.5 -99 -43.5zM396.999 621.999l-203 93l46 72l184 -119z" />
    <glyph glyph-name="eacute" unicode="&#xe9;" 
d="M212.5 103c28.333 -29.333 64.166 -44.002 107.499 -44.002c26 0 49.833 3.83301 71.5 11.5s44.834 19.5 69.501 35.5l39 -56c-24.667 -19.333 -52.834 -34.333 -84.501 -45s-63.5 -16 -95.5 -16c-76 0 -135.167 24.833 -177.5 74.5s-63.5 116.167 -63.5 199.5
c0 52.667 9.33301 99.834 28 141.501s45.334 74.334 80.001 98.001s75 35.5 121 35.5c66.667 0 119.167 -23.167 157.5 -69.5s57.5 -109.5 57.5 -189.5c0 -15.333 -0.666992 -30.333 -2 -45h-354c2 -58 17.167 -101.667 45.5 -131zM210 425.498
c-25.333 -29 -39.667 -71.499 -43 -127.499h274c-0.666992 55.333 -12.667 97.666 -36 126.999s-55.333 44 -96 44s-73.667 -14.5 -99 -43.5zM393.999 796.999l38 -72l-209 -85l-26 45z" />
    <glyph glyph-name="ecircumflex" unicode="&#xea;" 
d="M212.5 103c28.333 -29.333 64.166 -44.002 107.499 -44.002c26 0 49.833 3.83301 71.5 11.5s44.834 19.5 69.501 35.5l39 -56c-24.667 -19.333 -52.834 -34.333 -84.501 -45s-63.5 -16 -95.5 -16c-76 0 -135.167 24.833 -177.5 74.5s-63.5 116.167 -63.5 199.5
c0 52.667 9.33301 99.834 28 141.501s45.334 74.334 80.001 98.001s75 35.5 121 35.5c66.667 0 119.167 -23.167 157.5 -69.5s57.5 -109.5 57.5 -189.5c0 -15.333 -0.666992 -30.333 -2 -45h-354c2 -58 17.167 -101.667 45.5 -131zM210 425.498
c-25.333 -29 -39.667 -71.499 -43 -127.499h274c-0.666992 55.333 -12.667 97.666 -36 126.999s-55.333 44 -96 44s-73.667 -14.5 -99 -43.5zM186.999 628.999l-40 41l135 119h57l134 -119l-38 -41l-124 91z" />
    <glyph glyph-name="edieresis" unicode="&#xeb;" 
d="M212.5 103c28.333 -29.333 64.166 -44.002 107.499 -44.002c26 0 49.833 3.83301 71.5 11.5s44.834 19.5 69.501 35.5l39 -56c-24.667 -19.333 -52.834 -34.333 -84.501 -45s-63.5 -16 -95.5 -16c-76 0 -135.167 24.833 -177.5 74.5s-63.5 116.167 -63.5 199.5
c0 52.667 9.33301 99.834 28 141.501s45.334 74.334 80.001 98.001s75 35.5 121 35.5c66.667 0 119.167 -23.167 157.5 -69.5s57.5 -109.5 57.5 -189.5c0 -15.333 -0.666992 -30.333 -2 -45h-354c2 -58 17.167 -101.667 45.5 -131zM210 425.498
c-25.333 -29 -39.667 -71.499 -43 -127.499h274c-0.666992 55.333 -12.667 97.666 -36 126.999s-55.333 44 -96 44s-73.667 -14.5 -99 -43.5zM166.999 663.499c-10.667 10.333 -16 22.833 -16 37.5c0 16 5.33301 29.167 16 39.5s23.667 15.5 39 15.5
s28.166 -5.16699 38.499 -15.5s15.5 -23.5 15.5 -39.5c0 -15.333 -5.16699 -28 -15.5 -38s-23.166 -15 -38.499 -15s-28.333 5.16699 -39 15.5zM374.499 662.999c-10.333 10 -15.5 22.667 -15.5 38c0 16 5.16699 29.167 15.5 39.5s23.166 15.5 38.499 15.5
s28.333 -5.16699 39 -15.5s16 -23.5 16 -39.5c0 -14.667 -5.33301 -27.167 -16 -37.5s-23.667 -15.5 -39 -15.5s-28.166 5 -38.499 15z" />
    <glyph glyph-name="igrave" unicode="&#xec;" 
d="M367 527v-460h148v-67h-394v67h162v393h-157v67h241zM388 622l-203 93l46 72l184 -119z" />
    <glyph glyph-name="iacute" unicode="&#xed;" 
d="M367 527v-460h148v-67h-394v67h162v393h-157v67h241zM385 797l38 -72l-209 -85l-26 45z" />
    <glyph glyph-name="icircumflex" unicode="&#xee;" 
d="M367 527v-460h148v-67h-394v67h162v393h-157v67h241zM178 629l-40 41l135 119h57l134 -119l-38 -41l-124 91z" />
    <glyph glyph-name="idieresis" unicode="&#xef;" 
d="M367 527v-460h148v-67h-394v67h162v393h-157v67h241zM158 663.5c-10.667 10.333 -16 22.833 -16 37.5c0 16 5.33301 29.167 16 39.5s23.667 15.5 39 15.5s28.166 -5.16699 38.499 -15.5s15.5 -23.5 15.5 -39.5c0 -15.333 -5.16699 -28 -15.5 -38s-23.166 -15 -38.499 -15
s-28.333 5.16699 -39 15.5zM365.5 663c-10.333 10 -15.5 22.667 -15.5 38c0 16 5.16699 29.167 15.5 39.5s23.166 15.5 38.499 15.5s28.333 -5.16699 39 -15.5s16 -23.5 16 -39.5c0 -14.667 -5.33301 -27.167 -16 -37.5s-23.667 -15.5 -39 -15.5s-28.166 5 -38.499 15z" />
    <glyph glyph-name="eth" unicode="&#xf0;" 
d="M250 647c-32.667 15.333 -71.665 27.332 -116.998 35.999l19 66c61.333 -12.667 111 -29 149 -49l70 73l51 -44l-62 -64c59.333 -40.667 102.833 -93.667 130.5 -159s41.5 -146 41.5 -242c0 -56 -9.83301 -104.667 -29.5 -146s-47.334 -73.166 -83.001 -95.499
s-77.167 -33.5 -124.5 -33.5c-42.667 0 -81.334 9.66699 -116.001 29s-62 47.5 -82 84.5s-30 81.167 -30 132.5c0 48 9.66699 90.667 29 128s45.333 66.333 78 87s68 31 106 31c64.667 0 117 -23 157 -69c-8.66699 42 -24.167 80 -46.5 114s-49.833 62.667 -82.5 86l-79 -80
l-59 30zM444.002 331.999c-16.667 26.667 -38.333 47 -65 61s-56.334 21 -89.001 21c-39.333 0 -72 -14.833 -98 -44.5s-39 -73.167 -39 -130.5c0 -58 12.833 -102.833 38.5 -134.5s59.834 -47.5 102.501 -47.5c47.333 0 84.833 18.167 112.5 54.5s41.5 88.166 41.5 155.499
c0 16.667 -1.33301 38.334 -4 65.001z" />
    <glyph glyph-name="ntilde" unicode="&#xf1;" 
d="M100 527h71.999l7 -74c20.667 26.667 46.834 47.5 78.501 62.5s63.5 22.5 95.5 22.5c98.667 0 148 -52 148 -156v-382h-84v320c0 39.333 -2.16699 69.333 -6.5 90s-12.833 36 -25.5 46s-32 15 -58 15c-28.667 0 -55.667 -8.66699 -81 -26s-46 -38 -62 -62v-383h-84v527z
M323.499 666c-10.333 4.66699 -21.835 11.334 -34.502 20.001c-10 7.33301 -18.5 12.666 -25.5 15.999s-14.167 5 -21.5 5c-10.667 0 -20 -3.66699 -28 -11s-16.333 -19 -25 -35l-53 26c12.667 26 27.834 46.667 45.501 62s37.834 23 60.501 23c14 0 26 -2.5 36 -7.5
s21.333 -11.833 34 -20.5c11.333 -8 20 -13.5 26 -16.5s12.667 -4.5 20 -4.5c10 0 19 3.5 27 10.5s16.667 18.5 26 34.5l54 -27c-12.667 -27.333 -28.167 -47.833 -46.5 -61.5s-38.5 -20.5 -60.5 -20.5c-12.667 0 -24.167 2.33301 -34.5 7z" />
    <glyph glyph-name="ograve" unicode="&#xf2;" 
d="M468.5 464.5c39 -49 58.499 -115.833 58.499 -200.5c0 -82.667 -19.833 -149.167 -59.5 -199.5s-95.5 -75.5 -167.5 -75.5c-72.667 0 -128.667 24.5 -168 73.5s-59 115.833 -59 200.5c0 83.333 19.833 150 59.5 200s95.834 75 168.501 75s128.5 -24.5 167.5 -73.5z
M197.999 418c-22.667 -34 -34.001 -85.667 -34.001 -155s11.167 -120.833 33.5 -154.5s56.5 -50.5 102.5 -50.5s80.167 16.833 102.5 50.5s33.5 85.5 33.5 155.5c0 69.333 -11.167 120.833 -33.5 154.5s-56.166 50.5 -101.499 50.5c-46 0 -80.333 -17 -103 -51zM386.998 622
l-203 93l46 72l184 -119z" />
    <glyph glyph-name="oacute" unicode="&#xf3;" 
d="M468.5 464.5c39 -49 58.499 -115.833 58.499 -200.5c0 -82.667 -19.833 -149.167 -59.5 -199.5s-95.5 -75.5 -167.5 -75.5c-72.667 0 -128.667 24.5 -168 73.5s-59 115.833 -59 200.5c0 83.333 19.833 150 59.5 200s95.834 75 168.501 75s128.5 -24.5 167.5 -73.5z
M197.999 418c-22.667 -34 -34.001 -85.667 -34.001 -155s11.167 -120.833 33.5 -154.5s56.5 -50.5 102.5 -50.5s80.167 16.833 102.5 50.5s33.5 85.5 33.5 155.5c0 69.333 -11.167 120.833 -33.5 154.5s-56.166 50.5 -101.499 50.5c-46 0 -80.333 -17 -103 -51zM383.998 797
l38 -72l-209 -85l-26 45z" />
    <glyph glyph-name="ocircumflex" unicode="&#xf4;" 
d="M468.5 464.5c39 -49 58.499 -115.833 58.499 -200.5c0 -82.667 -19.833 -149.167 -59.5 -199.5s-95.5 -75.5 -167.5 -75.5c-72.667 0 -128.667 24.5 -168 73.5s-59 115.833 -59 200.5c0 83.333 19.833 150 59.5 200s95.834 75 168.501 75s128.5 -24.5 167.5 -73.5z
M197.999 418c-22.667 -34 -34.001 -85.667 -34.001 -155s11.167 -120.833 33.5 -154.5s56.5 -50.5 102.5 -50.5s80.167 16.833 102.5 50.5s33.5 85.5 33.5 155.5c0 69.333 -11.167 120.833 -33.5 154.5s-56.166 50.5 -101.499 50.5c-46 0 -80.333 -17 -103 -51zM176.998 629
l-40 41l135 119h57l134 -119l-38 -41l-124 91z" />
    <glyph glyph-name="otilde" unicode="&#xf5;" 
d="M468.5 464.5c39 -49 58.499 -115.833 58.499 -200.5c0 -82.667 -19.833 -149.167 -59.5 -199.5s-95.5 -75.5 -167.5 -75.5c-72.667 0 -128.667 24.5 -168 73.5s-59 115.833 -59 200.5c0 83.333 19.833 150 59.5 200s95.834 75 168.501 75s128.5 -24.5 167.5 -73.5z
M197.999 418c-22.667 -34 -34.001 -85.667 -34.001 -155s11.167 -120.833 33.5 -154.5s56.5 -50.5 102.5 -50.5s80.167 16.833 102.5 50.5s33.5 85.5 33.5 155.5c0 69.333 -11.167 120.833 -33.5 154.5s-56.166 50.5 -101.499 50.5c-46 0 -80.333 -17 -103 -51zM323.498 666
c-10.333 4.66699 -21.835 11.334 -34.502 20.001c-10 7.33301 -18.5 12.666 -25.5 15.999s-14.167 5 -21.5 5c-10.667 0 -20 -3.66699 -28 -11s-16.333 -19 -25 -35l-53 26c12.667 26 27.834 46.667 45.501 62s37.834 23 60.501 23c14 0 26 -2.5 36 -7.5
s21.333 -11.833 34 -20.5c11.333 -8 20 -13.5 26 -16.5s12.667 -4.5 20 -4.5c10 0 19 3.5 27 10.5s16.667 18.5 26 34.5l54 -27c-12.667 -27.333 -28.167 -47.833 -46.5 -61.5s-38.5 -20.5 -60.5 -20.5c-12.667 0 -24.167 2.33301 -34.5 7z" />
    <glyph glyph-name="odieresis" unicode="&#xf6;" 
d="M468.5 464.5c39 -49 58.499 -115.833 58.499 -200.5c0 -82.667 -19.833 -149.167 -59.5 -199.5s-95.5 -75.5 -167.5 -75.5c-72.667 0 -128.667 24.5 -168 73.5s-59 115.833 -59 200.5c0 83.333 19.833 150 59.5 200s95.834 75 168.501 75s128.5 -24.5 167.5 -73.5z
M197.999 418c-22.667 -34 -34.001 -85.667 -34.001 -155s11.167 -120.833 33.5 -154.5s56.5 -50.5 102.5 -50.5s80.167 16.833 102.5 50.5s33.5 85.5 33.5 155.5c0 69.333 -11.167 120.833 -33.5 154.5s-56.166 50.5 -101.499 50.5c-46 0 -80.333 -17 -103 -51z
M156.998 663.5c-10.667 10.333 -16 22.833 -16 37.5c0 16 5.33301 29.167 16 39.5s23.667 15.5 39 15.5s28.166 -5.16699 38.499 -15.5s15.5 -23.5 15.5 -39.5c0 -15.333 -5.16699 -28 -15.5 -38s-23.166 -15 -38.499 -15s-28.333 5.16699 -39 15.5zM364.498 663
c-10.333 10 -15.5 22.667 -15.5 38c0 16 5.16699 29.167 15.5 39.5s23.166 15.5 38.499 15.5s28.333 -5.16699 39 -15.5s16 -23.5 16 -39.5c0 -14.667 -5.33301 -27.167 -16 -37.5s-23.667 -15.5 -39 -15.5s-28.166 5 -38.499 15z" />
    <glyph glyph-name="divide" unicode="&#xf7;" 
d="M348 555.5c13.333 -13 20 -28.833 20 -47.5s-6.5 -34.334 -19.5 -47.001s-29.167 -19 -48.5 -19s-35.5 6.33301 -48.5 19s-19.5 28.334 -19.5 47.001s6.66699 34.5 20 47.5s29.333 19.5 48 19.5s34.667 -6.5 48 -19.5zM484 348v-72h-368v72h368zM348 163.5
c13.333 -13 20 -28.833 20 -47.5s-6.66699 -34.5 -20 -47.5s-29.333 -19.5 -48 -19.5s-34.667 6.5 -48 19.5s-20 28.833 -20 47.5s6.66699 34.5 20 47.5s29.333 19.5 48 19.5s34.667 -6.5 48 -19.5z" />
    <glyph glyph-name="oslash" unicode="&#xf8;" 
d="M498.5 413c19 -42 28.499 -91.667 28.499 -149c0 -82.667 -19.833 -149.167 -59.5 -199.5s-95.5 -75.5 -167.5 -75.5c-15.333 0 -32 1.66699 -50 5l-37 -124l-70 20l42 129c-36 21.333 -63.667 53 -83 95s-29 91.667 -29 149c0 83.333 19.833 150 59.5 200
s95.834 75 168.501 75c14.667 0 31 -1.66699 49 -5l38 121l70 -21l-41 -125c35.333 -21.333 62.5 -53 81.5 -95zM163.999 263c0 -88 17.333 -147.333 52 -178l118 381c-10 2 -21 3 -33 3c-91.333 0 -137 -68.667 -137 -206zM435.999 264c0 88 -17 147 -51 177l-118 -380
c10 -2 21 -3 33 -3c90.667 0 136 68.667 136 206z" />
    <glyph glyph-name="ugrave" unicode="&#xf9;" 
d="M184 153c0 -34 7.16602 -58.833 21.499 -74.5s36.833 -23.5 67.5 -23.5c28 0 55 8 81 24s46.667 36 62 60v388h84v-527h-72l-7 71c-20.667 -26 -46.167 -46.167 -76.5 -60.5s-61.166 -21.5 -92.499 -21.5c-50 0 -87.833 13.333 -113.5 40s-38.5 65 -38.5 115v383h84v-374
zM386.999 622l-203 93l46 72l184 -119z" />
    <glyph glyph-name="uacute" unicode="&#xfa;" 
d="M184 153c0 -34 7.16602 -58.833 21.499 -74.5s36.833 -23.5 67.5 -23.5c28 0 55 8 81 24s46.667 36 62 60v388h84v-527h-72l-7 71c-20.667 -26 -46.167 -46.167 -76.5 -60.5s-61.166 -21.5 -92.499 -21.5c-50 0 -87.833 13.333 -113.5 40s-38.5 65 -38.5 115v383h84v-374
zM383.999 797l38 -72l-209 -85l-26 45z" />
    <glyph glyph-name="ucircumflex" unicode="&#xfb;" 
d="M184 153c0 -34 7.16602 -58.833 21.499 -74.5s36.833 -23.5 67.5 -23.5c28 0 55 8 81 24s46.667 36 62 60v388h84v-527h-72l-7 71c-20.667 -26 -46.167 -46.167 -76.5 -60.5s-61.166 -21.5 -92.499 -21.5c-50 0 -87.833 13.333 -113.5 40s-38.5 65 -38.5 115v383h84v-374
zM176.999 629l-40 41l135 119h57l134 -119l-38 -41l-124 91z" />
    <glyph glyph-name="udieresis" unicode="&#xfc;" 
d="M184 153c0 -34 7.16602 -58.833 21.499 -74.5s36.833 -23.5 67.5 -23.5c28 0 55 8 81 24s46.667 36 62 60v388h84v-527h-72l-7 71c-20.667 -26 -46.167 -46.167 -76.5 -60.5s-61.166 -21.5 -92.499 -21.5c-50 0 -87.833 13.333 -113.5 40s-38.5 65 -38.5 115v383h84v-374
zM156.999 663.5c-10.667 10.333 -16 22.833 -16 37.5c0 16 5.33301 29.167 16 39.5s23.667 15.5 39 15.5s28.166 -5.16699 38.499 -15.5s15.5 -23.5 15.5 -39.5c0 -15.333 -5.16699 -28 -15.5 -38s-23.166 -15 -38.499 -15s-28.333 5.16699 -39 15.5zM364.499 663
c-10.333 10 -15.5 22.667 -15.5 38c0 16 5.16699 29.167 15.5 39.5s23.166 15.5 38.499 15.5s28.333 -5.16699 39 -15.5s16 -23.5 16 -39.5c0 -14.667 -5.33301 -27.167 -16 -37.5s-23.667 -15.5 -39 -15.5s-28.166 5 -38.499 15z" />
    <glyph glyph-name="yacute" unicode="&#xfd;" 
d="M354 -3c-20.667 -60.667 -49 -108.998 -85 -144.998s-86.333 -57.333 -151 -64l-12 67c35.333 6 63.5 15.167 84.5 27.5s37.5 27.666 49.5 45.999s23 42.166 33 71.499h-28l-183 527h89l151 -463l149 463h87zM384 797.002l38 -72l-209 -85l-26 45z" />
    <glyph glyph-name="thorn" unicode="&#xfe;" 
d="M184 461c19.333 24.667 42.168 43.667 68.501 57s54.166 20 83.499 20c127.333 0 191 -91.333 191 -274c0 -83.333 -17.333 -150 -52 -200s-85 -75 -151 -75c-57.333 0 -104 20 -140 60v-251l-84 -10v951l84 10v-288zM242.502 446
c-22.333 -16 -41.834 -35.999 -58.501 -59.999v-261c14 -20.667 31.5 -36.834 52.5 -48.501s43.833 -17.5 68.5 -17.5c44 0 76.833 16.833 98.5 50.5s32.5 85.167 32.5 154.5s-9.66699 121 -29 155s-49.666 51 -90.999 51c-26.667 0 -51.167 -8 -73.5 -24z" />
    <glyph glyph-name="ydieresis" unicode="&#xff;" 
d="M354 -3c-20.667 -60.667 -49 -108.998 -85 -144.998s-86.333 -57.333 -151 -64l-12 67c35.333 6 63.5 15.167 84.5 27.5s37.5 27.666 49.5 45.999s23 42.166 33 71.499h-28l-183 527h89l151 -463l149 463h87zM157 663.502c-10.667 10.333 -16 22.833 -16 37.5
c0 16 5.33301 29.167 16 39.5s23.667 15.5 39 15.5s28.166 -5.16699 38.499 -15.5s15.5 -23.5 15.5 -39.5c0 -15.333 -5.16699 -28 -15.5 -38s-23.166 -15 -38.499 -15s-28.333 5.16699 -39 15.5zM364.5 663.002c-10.333 10 -15.5 22.667 -15.5 38
c0 16 5.16699 29.167 15.5 39.5s23.166 15.5 38.499 15.5s28.333 -5.16699 39 -15.5s16 -23.5 16 -39.5c0 -14.667 -5.33301 -27.167 -16 -37.5s-23.667 -15.5 -39 -15.5s-28.166 5 -38.499 15z" />
    <glyph glyph-name="Amacron" unicode="&#x100;" 
d="M434 176h-273l-55 -176h-86l225 689h110l224 -689h-90zM184 248h227l-113 367zM434 795h-269v64h269v-64z" />
    <glyph glyph-name="amacron" unicode="&#x101;" 
d="M488 69.5c6.66699 -9.66699 17.668 -16.8301 33.001 -21.4971l-21 -60c-51.333 6.66699 -83.333 31.667 -96 75c-18.667 -24 -42.167 -42.333 -70.5 -55s-59.833 -19 -94.5 -19c-52.667 0 -94.167 14.667 -124.5 44s-45.5 68.666 -45.5 117.999
c0 54 21.167 95.667 63.5 125s103.166 44 182.499 44h78v43c0 37.333 -10.667 64.166 -32 80.499s-52.333 24.5 -93 24.5c-40 0 -85.667 -9 -137 -27l-23 64c62 22 119.667 33 173 33c64 0 112.833 -15 146.5 -45s50.5 -71.667 50.5 -125v-253
c0 -20.667 3.33301 -35.834 10 -45.501zM334.501 72.0039c23.667 13.333 43.167 31.667 58.5 55v135h-76c-56 0 -96.333 -9.33301 -121 -28s-37 -46 -37 -82c0 -66.667 33.667 -100 101 -100c26 0 50.833 6.66699 74.5 20zM426.001 676.005h-269v64h269v-64z" />
    <glyph glyph-name="Abreve" unicode="&#x102;" 
d="M434 176h-273l-55 -176h-86l225 689h110l224 -689h-90zM184 248h227l-113 367zM198 791.5c-28 21.667 -43.667 50.5 -47 86.5l57 13c16.667 -44.667 46.667 -67 90 -67c22.667 0 42 6 58 18s27.667 28.333 35 49l58 -13c-4 -36 -20.333 -64.833 -49 -86.5
s-62.667 -32.5 -102 -32.5c-38.667 0 -72 10.833 -100 32.5z" />
    <glyph glyph-name="abreve" unicode="&#x103;" 
d="M488 69.5c6.66699 -9.66699 17.668 -16.8301 33.001 -21.4971l-21 -60c-51.333 6.66699 -83.333 31.667 -96 75c-18.667 -24 -42.167 -42.333 -70.5 -55s-59.833 -19 -94.5 -19c-52.667 0 -94.167 14.667 -124.5 44s-45.5 68.666 -45.5 117.999
c0 54 21.167 95.667 63.5 125s103.166 44 182.499 44h78v43c0 37.333 -10.667 64.166 -32 80.499s-52.333 24.5 -93 24.5c-40 0 -85.667 -9 -137 -27l-23 64c62 22 119.667 33 173 33c64 0 112.833 -15 146.5 -45s50.5 -71.667 50.5 -125v-253
c0 -20.667 3.33301 -35.834 10 -45.501zM334.501 72.0039c23.667 13.333 43.167 31.667 58.5 55v135h-76c-56 0 -96.333 -9.33301 -121 -28s-37 -46 -37 -82c0 -66.667 33.667 -100 101 -100c26 0 50.833 6.66699 74.5 20zM215.001 650.505
c-21.333 13.667 -38.1631 30.834 -50.4961 51.501s-19.833 42 -22.5 64l58 13c16.667 -56.667 46.667 -85 90 -85c23.333 0 42.666 7.5 57.999 22.5s27 35.833 35 62.5l57 -13c-2.66699 -22 -10.334 -43.333 -23.001 -64s-29.834 -37.834 -51.501 -51.501
s-46.834 -20.5 -75.501 -20.5s-53.667 6.83301 -75 20.5z" />
    <glyph glyph-name="Aogonek" unicode="&#x104;" 
d="M441 -58c-17.333 -18 -26 -36.666 -26 -55.999c0 -16 4.33301 -28 13 -36s23 -12 43 -12c18 0 38.333 2.33301 61 7l-8 -68c-28 -4 -49.333 -6 -64 -6c-37.333 0 -67 9.16699 -89 27.5s-33 41.833 -33 70.5c0 63.333 48.667 112.666 146 147.999l-50 159h-273l-55 -176
h-86l225 689h110l224 -689h-40c-48 -20.667 -80.667 -40 -98 -58zM184 248.001h227l-113 367z" />
    <glyph glyph-name="aogonek" unicode="&#x105;" 
d="M402 -70c-17.333 -18 -26 -36.6641 -26 -55.9971c0 -16 4.33301 -28 13 -36s23 -12 43 -12c18 0 38.333 2.33301 61 7l-8 -68c-28 -4 -49.333 -6 -64 -6c-37.333 0 -67 9.16699 -89 27.5s-33 41.833 -33 70.5c0 31.333 11.833 59.333 35.5 84
s60.834 46.334 111.501 65.001c-20.667 13.333 -34.667 32.333 -42 57c-18.667 -24 -42.167 -42.333 -70.5 -55s-59.833 -19 -94.5 -19c-52.667 0 -94.167 14.667 -124.5 44s-45.5 68.666 -45.5 117.999c0 54 21.167 95.667 63.5 125s103.166 44 182.499 44h78v43
c0 37.333 -10.667 64.166 -32 80.499s-52.333 24.5 -93 24.5c-40 0 -85.667 -9 -137 -27l-23 64c62 22 119.667 33 173 33c64 0 112.833 -15 146.5 -45s50.5 -71.667 50.5 -125v-253c0 -20.667 3.33301 -35.834 10 -45.501s17.667 -16.834 33 -21.501l-21 -60
c-48 -20.667 -80.667 -40 -98 -58zM393 262.003l-76 0.000976562c-56 0 -96.333 -9.33301 -121 -28s-37 -46 -37 -82c0 -66.667 33.667 -100 101 -100c26 0 50.833 6.66699 74.5 20s43.167 31.666 58.5 54.999v135z" />
    <glyph glyph-name="Cacute" unicode="&#x106;" 
d="M468 683.5c30.667 -11 60.6641 -27.834 89.9971 -50.501l-49 -57c-40.667 34 -89 51 -145 51c-62 0 -112.5 -22.5 -151.5 -67.5s-58.5 -116.5 -58.5 -214.5c0 -97.333 19 -168.666 57 -213.999s88.667 -68 152 -68c34.667 0 64.334 5 89.001 15s48.334 24 71.001 42
l45 -56c-51.333 -50 -120 -75 -206 -75c-56.667 0 -107.667 13.833 -153 41.5s-81 68.167 -107 121.5s-39 117.666 -39 192.999c0 74.667 13.167 138.834 39.5 192.501s62 94.167 107 121.5s94.5 41 148.5 41c42.667 0 79.334 -5.5 110.001 -16.5zM447.997 905.999l37 -72
l-213 -79l-22 46z" />
    <glyph glyph-name="cacute" unicode="&#x107;" 
d="M476 107l40.001 -55.001c-22 -19.333 -49.333 -34.666 -82 -45.999s-64.334 -17 -95.001 -17c-78 0 -138.833 24.5 -182.5 73.5s-65.5 115.167 -65.5 198.5c0 52.667 9.83301 100 29.5 142s48.167 75 85.5 99s81.666 36 132.999 36c68 0 126.667 -20.667 176 -62l-41 -55
c-46 30.667 -91.333 46 -136 46c-47.333 0 -85.166 -17.5 -113.499 -52.5s-42.5 -86.167 -42.5 -153.5s14.167 -117.5 42.5 -150.5s66.5 -49.5 114.5 -49.5c46 0 91.667 15.333 137 46zM428.001 787.999l38 -72l-209 -85l-26 45z" />
    <glyph glyph-name="Ccircumflex" unicode="&#x108;" 
d="M468 683.5c30.667 -11 60.6641 -27.834 89.9971 -50.501l-49 -57c-40.667 34 -89 51 -145 51c-62 0 -112.5 -22.5 -151.5 -67.5s-58.5 -116.5 -58.5 -214.5c0 -97.333 19 -168.666 57 -213.999s88.667 -68 152 -68c34.667 0 64.334 5 89.001 15s48.334 24 71.001 42
l45 -56c-51.333 -50 -120 -75 -206 -75c-56.667 0 -107.667 13.833 -153 41.5s-81 68.167 -107 121.5s-39 117.666 -39 192.999c0 74.667 13.167 138.834 39.5 192.501s62 94.167 107 121.5s94.5 41 148.5 41c42.667 0 79.334 -5.5 110.001 -16.5zM393.997 909.999l134 -107
l-37 -43l-126 81l-125 -81l-38 43l135 107h57z" />
    <glyph glyph-name="ccircumflex" unicode="&#x109;" 
d="M476 107l40.001 -55.001c-22 -19.333 -49.333 -34.666 -82 -45.999s-64.334 -17 -95.001 -17c-78 0 -138.833 24.5 -182.5 73.5s-65.5 115.167 -65.5 198.5c0 52.667 9.83301 100 29.5 142s48.167 75 85.5 99s81.666 36 132.999 36c68 0 126.667 -20.667 176 -62l-41 -55
c-46 30.667 -91.333 46 -136 46c-47.333 0 -85.166 -17.5 -113.499 -52.5s-42.5 -86.167 -42.5 -153.5s14.167 -117.5 42.5 -150.5s66.5 -49.5 114.5 -49.5c46 0 91.667 15.333 137 46zM221.001 619.999l-40 41l135 119h57l134 -119l-38 -41l-124 91z" />
    <glyph glyph-name="Cdotaccent" unicode="&#x10a;" 
d="M468 683.5c30.667 -11 60.6641 -27.834 89.9971 -50.501l-49 -57c-40.667 34 -89 51 -145 51c-62 0 -112.5 -22.5 -151.5 -67.5s-58.5 -116.5 -58.5 -214.5c0 -97.333 19 -168.666 57 -213.999s88.667 -68 152 -68c34.667 0 64.334 5 89.001 15s48.334 24 71.001 42
l45 -56c-51.333 -50 -120 -75 -206 -75c-56.667 0 -107.667 13.833 -153 41.5s-81 68.167 -107 121.5s-39 117.666 -39 192.999c0 74.667 13.167 138.834 39.5 192.501s62 94.167 107 121.5s94.5 41 148.5 41c42.667 0 79.334 -5.5 110.001 -16.5zM407.997 875.499
c11.333 -11 17 -25.167 17 -42.5s-5.66699 -31.5 -17 -42.5s-26 -16.5 -44 -16.5s-32.5 5.5 -43.5 16.5s-16.5 25.167 -16.5 42.5s5.5 31.5 16.5 42.5s25.5 16.5 43.5 16.5s32.667 -5.5 44 -16.5z" />
    <glyph glyph-name="cdotaccent" unicode="&#x10b;" 
d="M476 107l40.001 -55.001c-22 -19.333 -49.333 -34.666 -82 -45.999s-64.334 -17 -95.001 -17c-78 0 -138.833 24.5 -182.5 73.5s-65.5 115.167 -65.5 198.5c0 52.667 9.83301 100 29.5 142s48.167 75 85.5 99s81.666 36 132.999 36c68 0 126.667 -20.667 176 -62l-41 -55
c-46 30.667 -91.333 46 -136 46c-47.333 0 -85.166 -17.5 -113.499 -52.5s-42.5 -86.167 -42.5 -153.5s14.167 -117.5 42.5 -150.5s66.5 -49.5 114.5 -49.5c46 0 91.667 15.333 137 46zM387.001 747.499c11.333 -11 17 -25.167 17 -42.5s-5.66699 -31.5 -17 -42.5
s-26 -16.5 -44 -16.5s-32.5 5.5 -43.5 16.5s-16.5 25.167 -16.5 42.5s5.5 31.5 16.5 42.5s25.5 16.5 43.5 16.5s32.667 -5.5 44 -16.5z" />
    <glyph glyph-name="Ccaron" unicode="&#x10c;" 
d="M468 683.5c30.667 -11 60.6641 -27.834 89.9971 -50.501l-49 -57c-40.667 34 -89 51 -145 51c-62 0 -112.5 -22.5 -151.5 -67.5s-58.5 -116.5 -58.5 -214.5c0 -97.333 19 -168.666 57 -213.999s88.667 -68 152 -68c34.667 0 64.334 5 89.001 15s48.334 24 71.001 42
l45 -56c-51.333 -50 -120 -75 -206 -75c-56.667 0 -107.667 13.833 -153 41.5s-81 68.167 -107 121.5s-39 117.666 -39 192.999c0 74.667 13.167 138.834 39.5 192.501s62 94.167 107 121.5s94.5 41 148.5 41c42.667 0 79.334 -5.5 110.001 -16.5zM490.997 904.999l37 -43
l-134 -108h-57l-135 108l38 43l125 -81z" />
    <glyph glyph-name="ccaron" unicode="&#x10d;" 
d="M476 107l40.001 -55.001c-22 -19.333 -49.333 -34.666 -82 -45.999s-64.334 -17 -95.001 -17c-78 0 -138.833 24.5 -182.5 73.5s-65.5 115.167 -65.5 198.5c0 52.667 9.83301 100 29.5 142s48.167 75 85.5 99s81.666 36 132.999 36c68 0 126.667 -20.667 176 -62l-41 -55
c-46 30.667 -91.333 46 -136 46c-47.333 0 -85.166 -17.5 -113.499 -52.5s-42.5 -86.167 -42.5 -153.5s14.167 -117.5 42.5 -150.5s66.5 -49.5 114.5 -49.5c46 0 91.667 15.333 137 46zM469.001 779.999l38 -41l-134 -119h-57l-135 119l40 41l124 -90z" />
    <glyph glyph-name="Dcaron" unicode="&#x10e;" 
d="M463 76c-60 -50.667 -134 -75.999 -222 -75.999h-158v689h147c96.667 0 174.667 -24.333 234 -73s89 -138 89 -268c0 -130.667 -30 -221.334 -90 -272.001zM429.5 519.501c-20.333 39.667 -45.5 65.999 -75.5 78.999s-64.333 19.5 -103 19.5h-81v-548h82
c59.333 0 108.833 20.5 148.5 61.5s59.5 113.167 59.5 216.5c0 74.667 -10.167 131.834 -30.5 171.501zM410 905l37 -43l-134 -108h-57l-135 108l38 43l125 -81z" />
    <glyph glyph-name="dcaron" unicode="&#x10f;" 
d="M471 739l-0.000976562 -739.002h-74l-8 69c-19.333 -26.667 -41.666 -46.667 -66.999 -60s-52.666 -20 -81.999 -20c-66.667 0 -116.834 24.333 -150.501 73s-50.5 115.667 -50.5 201c0 52.667 8.33301 99.834 25 141.501s40.5 74.334 71.5 98.001s67.5 35.5 109.5 35.5
c58 0 105.333 -21 142 -63v274zM165.499 417.998c-23.667 -34.667 -35.499 -86.333 -35.499 -155c0 -68 10.833 -119.5 32.5 -154.5s53.167 -52.5 94.5 -52.5c50 0 93.333 28 130 84v262c-14.667 22 -32.334 38.833 -53.001 50.5s-43 17.5 -67 17.5
c-44 0 -77.833 -17.333 -101.5 -52zM537 747.999l76 -10l-53 -178l-48 7z" />
    <glyph glyph-name="Dcroat" unicode="&#x110;" 
d="M474 616c59.333 -48.667 89 -137.999 89 -267.999c0 -130.667 -30 -221.334 -90 -272.001s-134 -76 -222 -76h-158v320h-73v66h73v303h147c96.667 0 174.667 -24.333 234 -73zM410.5 131.501c39.667 41 59.5 113.166 59.5 216.499
c0 74.667 -10.167 131.834 -30.5 171.501s-45.5 66 -75.5 79s-64.333 19.5 -103 19.5h-81v-232h158v-66h-158v-250h82c59.333 0 108.833 20.5 148.5 61.5z" />
    <glyph glyph-name="dcroat" unicode="&#x111;" 
d="M581 597l-79.001 -0.00195312v-597h-74l-8 69c-19.333 -26.667 -41.666 -46.667 -66.999 -60s-52.666 -20 -81.999 -20c-66.667 0 -116.834 24.333 -150.501 73s-50.5 115.667 -50.5 201c0 52.667 8.33301 99.834 25 141.501s40.5 74.334 71.5 98.001
s67.5 35.5 109.5 35.5c58 0 105.333 -21 142 -63v122h-171v68h171v84l84 -10v-74h79v-68zM417.999 401.998c-14.667 22 -32.333 38.834 -53 50.501s-43 17.5 -67 17.5c-44 0 -77.833 -17.333 -101.5 -52s-35.5 -86.334 -35.5 -155.001c0 -68 10.833 -119.5 32.5 -154.5
s53.167 -52.5 94.5 -52.5c50 0 93.333 28 130 84v262z" />
    <glyph glyph-name="Emacron" unicode="&#x112;" 
d="M212 617v-232h256v-71h-256v-244h314v-70h-400v689h391l-10 -72h-295zM455 795h-269v64h269v-64z" />
    <glyph glyph-name="emacron" unicode="&#x113;" 
d="M212.5 103c28.333 -29.333 64.166 -44.002 107.499 -44.002c26 0 49.833 3.83301 71.5 11.5s44.834 19.5 69.501 35.5l39 -56c-24.667 -19.333 -52.834 -34.333 -84.501 -45s-63.5 -16 -95.5 -16c-76 0 -135.167 24.833 -177.5 74.5s-63.5 116.167 -63.5 199.5
c0 52.667 9.33301 99.834 28 141.501s45.334 74.334 80.001 98.001s75 35.5 121 35.5c66.667 0 119.167 -23.167 157.5 -69.5s57.5 -109.5 57.5 -189.5c0 -15.333 -0.666992 -30.333 -2 -45h-354c2 -58 17.167 -101.667 45.5 -131zM210 425.498
c-25.333 -29 -39.667 -71.499 -43 -127.499h274c-0.666992 55.333 -12.667 97.666 -36 126.999s-55.333 44 -96 44s-73.667 -14.5 -99 -43.5zM443.999 675.999h-269v64h269v-64z" />
    <glyph glyph-name="Ebreve" unicode="&#x114;" 
d="M212 617v-232h256v-71h-256v-244h314v-70h-400v689h391l-10 -72h-295zM219 791.5c-28 21.667 -43.667 50.5 -47 86.5l57 13c16.667 -44.667 46.667 -67 90 -67c22.667 0 42 6 58 18s27.667 28.333 35 49l58 -13c-4 -36 -20.333 -64.833 -49 -86.5
s-62.667 -32.5 -102 -32.5c-38.667 0 -72 10.833 -100 32.5z" />
    <glyph glyph-name="ebreve" unicode="&#x115;" 
d="M212.5 103c28.333 -29.333 64.166 -44.002 107.499 -44.002c26 0 49.833 3.83301 71.5 11.5s44.834 19.5 69.501 35.5l39 -56c-24.667 -19.333 -52.834 -34.333 -84.501 -45s-63.5 -16 -95.5 -16c-76 0 -135.167 24.833 -177.5 74.5s-63.5 116.167 -63.5 199.5
c0 52.667 9.33301 99.834 28 141.501s45.334 74.334 80.001 98.001s75 35.5 121 35.5c66.667 0 119.167 -23.167 157.5 -69.5s57.5 -109.5 57.5 -189.5c0 -15.333 -0.666992 -30.333 -2 -45h-354c2 -58 17.167 -101.667 45.5 -131zM210 425.498
c-25.333 -29 -39.667 -71.499 -43 -127.499h274c-0.666992 55.333 -12.667 97.666 -36 126.999s-55.333 44 -96 44s-73.667 -14.5 -99 -43.5zM232.999 650.499c-21.333 13.667 -38.1631 30.834 -50.4961 51.501s-19.833 42 -22.5 64l58 13c16.667 -56.667 46.667 -85 90 -85
c23.333 0 42.666 7.5 57.999 22.5s27 35.833 35 62.5l57 -13c-2.66699 -22 -10.334 -43.333 -23.001 -64s-29.834 -37.834 -51.501 -51.501s-46.834 -20.5 -75.501 -20.5s-53.667 6.83301 -75 20.5z" />
    <glyph glyph-name="Edotaccent" unicode="&#x116;" 
d="M212 617v-232h256v-71h-256v-244h314v-70h-400v689h391l-10 -72h-295zM364 875.5c11.333 -11 17 -25.167 17 -42.5s-5.66699 -31.5 -17 -42.5s-26 -16.5 -44 -16.5s-32.5 5.5 -43.5 16.5s-16.5 25.167 -16.5 42.5s5.5 31.5 16.5 42.5s25.5 16.5 43.5 16.5
s32.667 -5.5 44 -16.5z" />
    <glyph glyph-name="edotaccent" unicode="&#x117;" 
d="M212.5 103c28.333 -29.333 64.166 -44.002 107.499 -44.002c26 0 49.833 3.83301 71.5 11.5s44.834 19.5 69.501 35.5l39 -56c-24.667 -19.333 -52.834 -34.333 -84.501 -45s-63.5 -16 -95.5 -16c-76 0 -135.167 24.833 -177.5 74.5s-63.5 116.167 -63.5 199.5
c0 52.667 9.33301 99.834 28 141.501s45.334 74.334 80.001 98.001s75 35.5 121 35.5c66.667 0 119.167 -23.167 157.5 -69.5s57.5 -109.5 57.5 -189.5c0 -15.333 -0.666992 -30.333 -2 -45h-354c2 -58 17.167 -101.667 45.5 -131zM210 425.498
c-25.333 -29 -39.667 -71.499 -43 -127.499h274c-0.666992 55.333 -12.667 97.666 -36 126.999s-55.333 44 -96 44s-73.667 -14.5 -99 -43.5zM352.999 756.499c11.333 -11 17 -25.167 17 -42.5s-5.66699 -31.5 -17 -42.5s-26 -16.5 -44 -16.5s-32.5 5.5 -43.5 16.5
s-16.5 25.167 -16.5 42.5s5.5 31.5 16.5 42.5s25.5 16.5 43.5 16.5s32.667 -5.5 44 -16.5z" />
    <glyph glyph-name="Eogonek" unicode="&#x118;" 
d="M526 70v-70h-58c-48 -20.667 -80.667 -40 -98 -58s-26 -36.667 -26 -56c0 -16 4.33301 -28 13 -36s23 -12 43 -12c18 0 38.333 2.33301 61 7l-8 -68c-28 -4 -49.333 -6 -64 -6c-37.333 0 -67 9.16699 -89 27.5s-33 41.833 -33 70.5c0 53.333 35 97 105 131h-246v689h391
l-10 -72h-295v-232h256v-71h-256v-244h314z" />
    <glyph glyph-name="eogonek" unicode="&#x119;" 
d="M521 234l-354 -0.00195312c2 -58 17.167 -101.667 45.5 -131s64.166 -44 107.499 -44c26 0 49.833 3.83301 71.5 11.5s44.834 19.5 69.501 35.5l39 -56c-30.667 -23.333 -64.334 -40 -101.001 -50c-48 -20.667 -80.667 -40 -98 -58s-26 -36.667 -26 -56
c0 -16 4.33301 -28 13 -36s23 -12 43 -12c18 0 38.333 2.33301 61 7l-8 -68c-28 -4 -49.333 -6 -64 -6c-37.333 0 -67 9.16699 -89 27.5s-33 41.833 -33 70.5c0 25.333 8.66699 48.333 26 69s43 38 77 52c-70 4 -124.5 30.5 -163.5 79.5s-58.5 113.5 -58.5 193.5
c0 52.667 9.33301 99.834 28 141.501s45.334 74.334 80.001 98.001s75 35.5 121 35.5c66.667 0 119.167 -23.167 157.5 -69.5s57.5 -109.5 57.5 -189.5c0 -15.333 -0.666992 -30.333 -2 -45zM441 297.998c-0.666992 55.333 -12.668 97.667 -36.001 127s-55.333 44 -96 44
s-73.667 -14.5 -99 -43.5s-39.666 -71.5 -42.999 -127.5h274z" />
    <glyph glyph-name="Ecaron" unicode="&#x11a;" 
d="M212 617v-232h256v-71h-256v-244h314v-70h-400v689h391l-10 -72h-295zM447 905l37 -43l-134 -108h-57l-135 108l38 43l125 -81z" />
    <glyph glyph-name="ecaron" unicode="&#x11b;" 
d="M212.5 103c28.333 -29.333 64.166 -44.002 107.499 -44.002c26 0 49.833 3.83301 71.5 11.5s44.834 19.5 69.501 35.5l39 -56c-24.667 -19.333 -52.834 -34.333 -84.501 -45s-63.5 -16 -95.5 -16c-76 0 -135.167 24.833 -177.5 74.5s-63.5 116.167 -63.5 199.5
c0 52.667 9.33301 99.834 28 141.501s45.334 74.334 80.001 98.001s75 35.5 121 35.5c66.667 0 119.167 -23.167 157.5 -69.5s57.5 -109.5 57.5 -189.5c0 -15.333 -0.666992 -30.333 -2 -45h-354c2 -58 17.167 -101.667 45.5 -131zM210 425.498
c-25.333 -29 -39.667 -71.499 -43 -127.499h274c-0.666992 55.333 -12.667 97.666 -36 126.999s-55.333 44 -96 44s-73.667 -14.5 -99 -43.5zM434.999 788.999l38 -41l-134 -119h-57l-135 119l40 41l124 -90z" />
    <glyph glyph-name="Gcircumflex" unicode="&#x11c;" 
d="M116.5 79.5c-47.667 60.333 -71.499 148.834 -71.499 265.501c0 76 13.333 140.667 40 194s62 93.5 106 120.5s91.667 40.5 143 40.5c43.333 0 79.666 -6 108.999 -18s58.333 -31.333 87 -58l-52 -54c-21.333 19.333 -43.5 33.666 -66.5 42.999s-48.833 14 -77.5 14
c-56 0 -102.667 -22.333 -140 -67s-56 -116.334 -56 -215.001c0 -98 15.167 -169.667 45.5 -215s76.166 -68 137.499 -68c48.667 0 92.334 11 131.001 33v209h-135l-10 73h232v-328c-34.667 -19.333 -69.5 -34.166 -104.5 -44.499s-75.167 -15.5 -120.5 -15.5
c-84 0 -149.833 30.167 -197.5 90.5zM359.001 910.001l134 -107l-37 -43l-126 81l-125 -81l-38 43l135 107h57z" />
    <glyph glyph-name="gcircumflex" unicode="&#x11d;" 
d="M554 503c-20 -6.66699 -41.6689 -10.835 -65.002 -12.502s-53 -2.5 -89 -2.5c61.333 -28 92 -72.333 92 -133c0 -53.333 -17.667 -96.5 -53 -129.5s-83.666 -49.5 -144.999 -49.5c-31.333 0 -57.666 3.66699 -78.999 11c-8 -6 -14.5 -13.667 -19.5 -23
s-7.5 -18.666 -7.5 -27.999c0 -30 23.333 -45 70 -45h95c34.667 0 66.167 -6.16699 94.5 -18.5s50.666 -29.5 66.999 -51.5s24.5 -46.333 24.5 -73c0 -51.333 -21.833 -90.833 -65.5 -118.5s-105.5 -41.5 -185.5 -41.5c-81.333 0 -138.666 12.667 -171.999 38
s-50 65.666 -50 120.999h76c0 -22 4.16699 -39.5 12.5 -52.5s23 -22.667 44 -29s50.833 -9.5 89.5 -9.5c56.667 0 98.5 7.33301 125.5 22s40.5 36.334 40.5 65.001c0 24 -11 42.5 -33 55.5s-50.333 19.5 -85 19.5h-94c-43.333 0 -76.333 9.5 -99 28.5s-34 42.833 -34 71.5
c0 16.667 5 33.167 15 49.5s24.333 30.5 43 42.5c-30 15.333 -52.167 34.833 -66.5 58.5s-21.5 52.5 -21.5 86.5c0 35.333 8.83301 66.833 26.5 94.5s42.334 49.334 74.001 65.001s68.167 23.5 109.5 23.5c60 0 105.667 3.33301 137 10s65.666 18 102.999 34z
M195.998 443.499c-20.667 -21.667 -30.999 -51.168 -30.999 -88.501s10.5 -67.166 31.5 -89.499s52.167 -33.5 93.5 -33.5c37.333 0 65.833 10.833 85.5 32.5s29.5 52.167 29.5 91.5c0 80 -39 120 -117 120c-40.667 0 -71.334 -10.833 -92.001 -32.5zM169.999 628.998
l-40 41l135 119h57l134 -119l-38 -41l-124 91z" />
    <glyph glyph-name="Gbreve" unicode="&#x11e;" 
d="M116.5 79.5c-47.667 60.333 -71.499 148.834 -71.499 265.501c0 76 13.333 140.667 40 194s62 93.5 106 120.5s91.667 40.5 143 40.5c43.333 0 79.666 -6 108.999 -18s58.333 -31.333 87 -58l-52 -54c-21.333 19.333 -43.5 33.666 -66.5 42.999s-48.833 14 -77.5 14
c-56 0 -102.667 -22.333 -140 -67s-56 -116.334 -56 -215.001c0 -98 15.167 -169.667 45.5 -215s76.166 -68 137.499 -68c48.667 0 92.334 11 131.001 33v209h-135l-10 73h232v-328c-34.667 -19.333 -69.5 -34.166 -104.5 -44.499s-75.167 -15.5 -120.5 -15.5
c-84 0 -149.833 30.167 -197.5 90.5zM228.001 791.501c-28 21.667 -43.667 50.5 -47 86.5l57 13c16.667 -44.667 46.667 -67 90 -67c22.667 0 42 6 58 18s27.667 28.333 35 49l58 -13c-4 -36 -20.333 -64.833 -49 -86.5s-62.667 -32.5 -102 -32.5
c-38.667 0 -72 10.833 -100 32.5z" />
    <glyph glyph-name="gbreve" unicode="&#x11f;" 
d="M554 503c-20 -6.66699 -41.6689 -10.835 -65.002 -12.502s-53 -2.5 -89 -2.5c61.333 -28 92 -72.333 92 -133c0 -53.333 -17.667 -96.5 -53 -129.5s-83.666 -49.5 -144.999 -49.5c-31.333 0 -57.666 3.66699 -78.999 11c-8 -6 -14.5 -13.667 -19.5 -23
s-7.5 -18.666 -7.5 -27.999c0 -30 23.333 -45 70 -45h95c34.667 0 66.167 -6.16699 94.5 -18.5s50.666 -29.5 66.999 -51.5s24.5 -46.333 24.5 -73c0 -51.333 -21.833 -90.833 -65.5 -118.5s-105.5 -41.5 -185.5 -41.5c-81.333 0 -138.666 12.667 -171.999 38
s-50 65.666 -50 120.999h76c0 -22 4.16699 -39.5 12.5 -52.5s23 -22.667 44 -29s50.833 -9.5 89.5 -9.5c56.667 0 98.5 7.33301 125.5 22s40.5 36.334 40.5 65.001c0 24 -11 42.5 -33 55.5s-50.333 19.5 -85 19.5h-94c-43.333 0 -76.333 9.5 -99 28.5s-34 42.833 -34 71.5
c0 16.667 5 33.167 15 49.5s24.333 30.5 43 42.5c-30 15.333 -52.167 34.833 -66.5 58.5s-21.5 52.5 -21.5 86.5c0 35.333 8.83301 66.833 26.5 94.5s42.334 49.334 74.001 65.001s68.167 23.5 109.5 23.5c60 0 105.667 3.33301 137 10s65.666 18 102.999 34z
M195.998 443.499c-20.667 -21.667 -30.999 -51.168 -30.999 -88.501s10.5 -67.166 31.5 -89.499s52.167 -33.5 93.5 -33.5c37.333 0 65.833 10.833 85.5 32.5s29.5 52.167 29.5 91.5c0 80 -39 120 -117 120c-40.667 0 -71.334 -10.833 -92.001 -32.5zM215.999 650.498
c-21.333 13.667 -38.1631 30.834 -50.4961 51.501s-19.833 42 -22.5 64l58 13c16.667 -56.667 46.667 -85 90 -85c23.333 0 42.666 7.5 57.999 22.5s27 35.833 35 62.5l57 -13c-2.66699 -22 -10.334 -43.333 -23.001 -64s-29.834 -37.834 -51.501 -51.501
s-46.834 -20.5 -75.501 -20.5s-53.667 6.83301 -75 20.5z" />
    <glyph glyph-name="Gdotaccent" unicode="&#x120;" 
d="M116.5 79.5c-47.667 60.333 -71.499 148.834 -71.499 265.501c0 76 13.333 140.667 40 194s62 93.5 106 120.5s91.667 40.5 143 40.5c43.333 0 79.666 -6 108.999 -18s58.333 -31.333 87 -58l-52 -54c-21.333 19.333 -43.5 33.666 -66.5 42.999s-48.833 14 -77.5 14
c-56 0 -102.667 -22.333 -140 -67s-56 -116.334 -56 -215.001c0 -98 15.167 -169.667 45.5 -215s76.166 -68 137.499 -68c48.667 0 92.334 11 131.001 33v209h-135l-10 73h232v-328c-34.667 -19.333 -69.5 -34.166 -104.5 -44.499s-75.167 -15.5 -120.5 -15.5
c-84 0 -149.833 30.167 -197.5 90.5zM373.001 875.501c11.333 -11 17 -25.167 17 -42.5s-5.66699 -31.5 -17 -42.5s-26 -16.5 -44 -16.5s-32.5 5.5 -43.5 16.5s-16.5 25.167 -16.5 42.5s5.5 31.5 16.5 42.5s25.5 16.5 43.5 16.5s32.667 -5.5 44 -16.5z" />
    <glyph glyph-name="gdotaccent" unicode="&#x121;" 
d="M554 503c-20 -6.66699 -41.6689 -10.835 -65.002 -12.502s-53 -2.5 -89 -2.5c61.333 -28 92 -72.333 92 -133c0 -53.333 -17.667 -96.5 -53 -129.5s-83.666 -49.5 -144.999 -49.5c-31.333 0 -57.666 3.66699 -78.999 11c-8 -6 -14.5 -13.667 -19.5 -23
s-7.5 -18.666 -7.5 -27.999c0 -30 23.333 -45 70 -45h95c34.667 0 66.167 -6.16699 94.5 -18.5s50.666 -29.5 66.999 -51.5s24.5 -46.333 24.5 -73c0 -51.333 -21.833 -90.833 -65.5 -118.5s-105.5 -41.5 -185.5 -41.5c-81.333 0 -138.666 12.667 -171.999 38
s-50 65.666 -50 120.999h76c0 -22 4.16699 -39.5 12.5 -52.5s23 -22.667 44 -29s50.833 -9.5 89.5 -9.5c56.667 0 98.5 7.33301 125.5 22s40.5 36.334 40.5 65.001c0 24 -11 42.5 -33 55.5s-50.333 19.5 -85 19.5h-94c-43.333 0 -76.333 9.5 -99 28.5s-34 42.833 -34 71.5
c0 16.667 5 33.167 15 49.5s24.333 30.5 43 42.5c-30 15.333 -52.167 34.833 -66.5 58.5s-21.5 52.5 -21.5 86.5c0 35.333 8.83301 66.833 26.5 94.5s42.334 49.334 74.001 65.001s68.167 23.5 109.5 23.5c60 0 105.667 3.33301 137 10s65.666 18 102.999 34z
M195.998 443.499c-20.667 -21.667 -30.999 -51.168 -30.999 -88.501s10.5 -67.166 31.5 -89.499s52.167 -33.5 93.5 -33.5c37.333 0 65.833 10.833 85.5 32.5s29.5 52.167 29.5 91.5c0 80 -39 120 -117 120c-40.667 0 -71.334 -10.833 -92.001 -32.5zM335.999 756.498
c11.333 -11 17 -25.167 17 -42.5s-5.66699 -31.5 -17 -42.5s-26 -16.5 -44 -16.5s-32.5 5.5 -43.5 16.5s-16.5 25.167 -16.5 42.5s5.5 31.5 16.5 42.5s25.5 16.5 43.5 16.5s32.667 -5.5 44 -16.5z" />
    <glyph glyph-name="Gcommaaccent" unicode="&#x122;" 
d="M116.5 79.5c-47.667 60.333 -71.499 148.834 -71.499 265.501c0 76 13.333 140.667 40 194s62 93.5 106 120.5s91.667 40.5 143 40.5c43.333 0 79.666 -6 108.999 -18s58.333 -31.333 87 -58l-52 -54c-21.333 19.333 -43.5 33.666 -66.5 42.999s-48.833 14 -77.5 14
c-56 0 -102.667 -22.333 -140 -67s-56 -116.334 -56 -215.001c0 -98 15.167 -169.667 45.5 -215s76.166 -68 137.499 -68c48.667 0 92.334 11 131.001 33v209h-135l-10 73h232v-328c-34.667 -19.333 -69.5 -34.166 -104.5 -44.499s-75.167 -15.5 -120.5 -15.5
c-84 0 -149.833 30.167 -197.5 90.5zM372.001 -86.499c10.667 -10.333 16.001 -22.833 16.001 -37.5c0 -14 -5 -32.333 -15 -55l-51 -107h-50l29 117c-14.667 11.333 -22 26.333 -22 45c0 15.333 5.16699 28 15.5 38s23.166 15 38.499 15s28.333 -5.16699 39 -15.5z" />
    <glyph glyph-name="gcommaaccent" unicode="&#x123;" 
d="M251 613.5c-10.667 10.333 -16.001 22.833 -16.001 37.5c0 14 5 32.333 15 55l51 107h50l-29 -117c14.667 -11.333 22 -26.333 22 -45c0 -15.333 -5.16699 -28 -15.5 -38s-23.166 -15 -38.499 -15s-28.333 5.16699 -39 15.5zM553.999 503
c-20 -6.66699 -41.6689 -10.835 -65.002 -12.502s-53 -2.5 -89 -2.5c61.333 -28 92 -72.333 92 -133c0 -53.333 -17.667 -96.5 -53 -129.5s-83.666 -49.5 -144.999 -49.5c-31.333 0 -57.666 3.66699 -78.999 11c-8 -6 -14.5 -13.667 -19.5 -23s-7.5 -18.666 -7.5 -27.999
c0 -30 23.333 -45 70 -45h95c34.667 0 66.167 -6.16699 94.5 -18.5s50.666 -29.5 66.999 -51.5s24.5 -46.333 24.5 -73c0 -51.333 -21.833 -90.833 -65.5 -118.5s-105.5 -41.5 -185.5 -41.5c-81.333 0 -138.666 12.667 -171.999 38s-50 65.666 -50 120.999h76
c0 -22 4.16699 -39.5 12.5 -52.5s23 -22.667 44 -29s50.833 -9.5 89.5 -9.5c56.667 0 98.5 7.33301 125.5 22s40.5 36.334 40.5 65.001c0 24 -11 42.5 -33 55.5s-50.333 19.5 -85 19.5h-94c-43.333 0 -76.333 9.5 -99 28.5s-34 42.833 -34 71.5c0 16.667 5 33.167 15 49.5
s24.333 30.5 43 42.5c-30 15.333 -52.167 34.833 -66.5 58.5s-21.5 52.5 -21.5 86.5c0 35.333 8.83301 66.833 26.5 94.5s42.334 49.334 74.001 65.001s68.167 23.5 109.5 23.5c60 0 105.667 3.33301 137 10s65.666 18 102.999 34zM195.997 443.499
c-20.667 -21.667 -30.999 -51.168 -30.999 -88.501s10.5 -67.166 31.5 -89.499s52.167 -33.5 93.5 -33.5c37.333 0 65.833 10.833 85.5 32.5s29.5 52.167 29.5 91.5c0 80 -39 120 -117 120c-40.667 0 -71.334 -10.833 -92.001 -32.5z" />
    <glyph glyph-name="Hcircumflex" unicode="&#x124;" 
d="M430 0v327h-260v-327h-87v689h87v-291h260v291h87v-689h-87zM329 910l134 -107l-37 -43l-126 81l-125 -81l-38 43l135 107h57z" />
    <glyph glyph-name="hcircumflex" unicode="&#x125;" 
d="M184 454c20.667 26.667 45.999 47.333 75.999 62s61 22 93 22c98.667 0 148 -52 148 -156v-382h-84v381c0 31.333 -7.33301 54.166 -22 68.499s-38 21.5 -70 21.5c-27.333 0 -53.666 -8.66699 -78.999 -26s-46 -37.666 -62 -60.999v-384h-84v738l84 9v-293z
M328.999 959.999l134 -107l-37 -43l-126 81l-125 -81l-38 43l135 107h57z" />
    <glyph glyph-name="Hbar" unicode="&#x126;" 
d="M598 575v-66h-81v-509h-86v326h-262v-326h-86v509h-81v66h81v114h86v-114h262v114h86v-114h81zM431 398v111h-262v-111h262z" />
    <glyph glyph-name="hbar" unicode="&#x127;" 
d="M501 382l-0.000976562 -382.001h-84v381c0 31.333 -7.33301 54.166 -22 68.499s-38 21.5 -70 21.5c-27.333 0 -53.666 -8.66699 -78.999 -26s-46 -37.666 -62 -60.999v-384h-84v597h-81v68h81v73l84 9v-82h169v-68h-169v-143c20.667 26.667 46 47.334 76 62.001
s61 22 93 22c98.667 0 148 -52 148 -156z" />
    <glyph glyph-name="Itilde" unicode="&#x128;" 
d="M497 689v-70h-153v-550h153v-69h-394v69h153v550h-153v70h394zM323.5 785c-10.333 4.66699 -21.835 11.334 -34.502 20.001c-10 7.33301 -18.5 12.666 -25.5 15.999s-14.167 5 -21.5 5c-10.667 0 -20 -3.66699 -28 -11s-16.333 -19 -25 -35l-53 26
c12.667 26 27.834 46.667 45.501 62s37.834 23 60.501 23c14 0 26 -2.5 36 -7.5s21.333 -11.833 34 -20.5c11.333 -8 20 -13.5 26 -16.5s12.667 -4.5 20 -4.5c10 0 19 3.5 27 10.5s16.667 18.5 26 34.5l54 -27c-12.667 -27.333 -28.167 -47.833 -46.5 -61.5
s-38.5 -20.5 -60.5 -20.5c-12.667 0 -24.167 2.33301 -34.5 7z" />
    <glyph glyph-name="itilde" unicode="&#x129;" 
d="M367 527v-460h148v-67h-394v67h162v393h-157v67h241zM324.5 666c-10.333 4.66699 -21.835 11.334 -34.502 20.001c-10 7.33301 -18.5 12.666 -25.5 15.999s-14.167 5 -21.5 5c-10.667 0 -20 -3.66699 -28 -11s-16.333 -19 -25 -35l-53 26
c12.667 26 27.834 46.667 45.501 62s37.834 23 60.501 23c14 0 26 -2.5 36 -7.5s21.333 -11.833 34 -20.5c11.333 -8 20 -13.5 26 -16.5s12.667 -4.5 20 -4.5c10 0 19 3.5 27 10.5s16.667 18.5 26 34.5l54 -27c-12.667 -27.333 -28.167 -47.833 -46.5 -61.5
s-38.5 -20.5 -60.5 -20.5c-12.667 0 -24.167 2.33301 -34.5 7z" />
    <glyph glyph-name="Imacron" unicode="&#x12a;" 
d="M497 689v-70h-153v-550h153v-69h-394v69h153v550h-153v70h394zM434 795h-269v64h269v-64z" />
    <glyph glyph-name="imacron" unicode="&#x12b;" 
d="M367 527v-460h148v-67h-394v67h162v393h-157v67h241zM435 676h-269v64h269v-64z" />
    <glyph glyph-name="Ibreve" unicode="&#x12c;" 
d="M497 689v-70h-153v-550h153v-69h-394v69h153v550h-153v70h394zM198 791.5c-28 21.667 -43.667 50.5 -47 86.5l57 13c16.667 -44.667 46.667 -67 90 -67c22.667 0 42 6 58 18s27.667 28.333 35 49l58 -13c-4 -36 -20.333 -64.833 -49 -86.5s-62.667 -32.5 -102 -32.5
c-38.667 0 -72 10.833 -100 32.5z" />
    <glyph glyph-name="ibreve" unicode="&#x12d;" 
d="M367 527v-460h148v-67h-394v67h162v393h-157v67h241zM224 650.5c-21.333 13.667 -38.1631 30.834 -50.4961 51.501s-19.833 42 -22.5 64l58 13c16.667 -56.667 46.667 -85 90 -85c23.333 0 42.666 7.5 57.999 22.5s27 35.833 35 62.5l57 -13
c-2.66699 -22 -10.334 -43.333 -23.001 -64s-29.834 -37.834 -51.501 -51.501s-46.834 -20.5 -75.501 -20.5s-53.667 6.83301 -75 20.5z" />
    <glyph glyph-name="Iogonek" unicode="&#x12e;" 
d="M344 619v-550h153v-69h-153c-48 -20.667 -80.667 -40 -98 -58s-26 -36.667 -26 -56c0 -16 4.33301 -28 13 -36s23 -12 43 -12c18 0 38.333 2.33301 61 7l-8 -68c-28 -4 -49.333 -6 -64 -6c-37.333 0 -67 9.16699 -89 27.5s-33 41.833 -33 70.5c0 53.333 35 97 105 131
h-145v69h153v550h-153v70h394v-70h-153z" />
    <glyph glyph-name="iogonek" unicode="&#x12f;" 
d="M256.5 671.5c-11 11 -16.5 25.167 -16.5 42.5s5.5 31.5 16.5 42.5s25.5 16.5 43.5 16.5s32.667 -5.5 44 -16.5s17 -25.167 17 -42.5s-5.66699 -31.5 -17 -42.5s-26 -16.5 -44 -16.5s-32.5 5.5 -43.5 16.5zM515 67v-67h-148c-48 -20.667 -80.667 -40 -98 -58
s-26 -36.667 -26 -56c0 -16 4.33301 -28 13 -36s23 -12 43 -12c18 0 38.333 2.33301 61 7l-8 -68c-28 -4 -49.333 -6 -64 -6c-37.333 0 -67 9.16699 -89 27.5s-33 41.833 -33 70.5c0 53.333 35 97 105 131h-150v67h162v393h-157v67h241v-460h148z" />
    <glyph glyph-name="Idotaccent" unicode="&#x130;" 
d="M497 689v-70h-153v-550h153v-69h-394v69h153v550h-153v70h394zM343 875.5c11.333 -11 17 -25.167 17 -42.5s-5.66699 -31.5 -17 -42.5s-26 -16.5 -44 -16.5s-32.5 5.5 -43.5 16.5s-16.5 25.167 -16.5 42.5s5.5 31.5 16.5 42.5s25.5 16.5 43.5 16.5s32.667 -5.5 44 -16.5z
" />
    <glyph glyph-name="dotlessi" unicode="&#x131;" 
d="M367 527v-460h148v-67h-394v67h162v393h-157v67h241z" />
    <glyph glyph-name="IJ" unicode="&#x132;" 
d="M348 -27.5c36.667 22.333 62 51.332 76 86.999s21 80.167 21 133.5v424h-244v-545h80v-72h-270v72h100v545h-100v72h521v-501c0 -90 -24 -163.667 -72 -221s-133.333 -91.666 -256 -102.999l-10 65c66 6.66699 117.333 21.167 154 43.5z" />
    <glyph glyph-name="ij" unicode="&#x133;" 
d="M228.5 756.5c11.667 -11 17.5 -25.167 17.5 -42.5s-5.83301 -31.5 -17.5 -42.5s-26.5 -16.5 -44.5 -16.5s-32.5 5.5 -43.5 16.5s-16.5 25.167 -16.5 42.5s5.5 31.5 16.5 42.5s25.5 16.5 43.5 16.5s32.833 -5.5 44.5 -16.5zM492.5 756.5
c11.667 -11 17.5 -25.167 17.5 -42.5s-5.83301 -31.5 -17.5 -42.5s-26.5 -16.5 -44.5 -16.5s-32.5 5.5 -43.5 16.5s-16.5 25.167 -16.5 42.5s5.5 31.5 16.5 42.5s25.5 16.5 43.5 16.5s32.833 -5.5 44.5 -16.5zM500 55c0 -67.333 -22.833 -122.167 -68.5 -164.5
s-107.834 -76.5 -186.501 -102.5l-25 66c60.667 23.333 108.834 49.333 144.501 78s53.5 68 53.5 118v412h-195v-395h96v-67h-271v67h94v395h-89v65h447v-472z" />
    <glyph glyph-name="Jcircumflex" unicode="&#x134;" 
d="M497 229c0 -67.333 -18.5 -124.334 -55.5 -171.001s-97.167 -70 -180.5 -70c-34 0 -67.167 5.33301 -99.5 16s-61.833 26.334 -88.5 47.001l38 57c50 -31.333 99.667 -47 149 -47c48 0 85 15.167 111 45.5s39 72.5 39 126.5v385h-204v71h291v-460zM379 909.999l134 -107
l-37 -43l-126 81l-125 -81l-38 43l135 107h57z" />
    <glyph glyph-name="jcircumflex" unicode="&#x135;" 
d="M445 84c0 -84.667 -28.167 -150.5 -84.5 -197.5s-139.833 -79.833 -250.5 -98.5l-14 65c84.667 14 150 38.5 196 73.5s69 85.833 69 152.5v381h-219v67h303v-443zM245 629l-40 41l135 119h57l134 -119l-38 -41l-124 91z" />
    <glyph glyph-name="Kcommaaccent" unicode="&#x136;" 
d="M192 0h-87v689h87v-689zM197 368l270 321h101l-269 -316l288 -373h-109zM364 -86.5c10.667 -10.333 16.001 -22.833 16.001 -37.5c0 -14 -5 -32.333 -15 -55l-51 -107h-50l29 117c-14.667 11.333 -22 26.333 -22 45c0 15.333 5.16699 28 15.5 38s23.166 15 38.499 15
s28.333 -5.16699 39 -15.5z" />
    <glyph glyph-name="kcommaaccent" unicode="&#x137;" 
d="M190 749v-749h-84v739zM541 527l-236 -238l264 -289h-111l-259 288l234 239h108zM348 -86.5c10.667 -10.333 16.001 -22.833 16.001 -37.5c0 -14 -5 -32.333 -15 -55l-51 -107h-50l29 117c-14.667 11.333 -22 26.333 -22 45c0 15.333 5.16699 28 15.5 38
s23.166 15 38.499 15s28.333 -5.16699 39 -15.5z" />
    <glyph glyph-name="kgreenlandic" unicode="&#x138;" 
d="M184 527v-527h-84v527h84zM536 527l-239 -239l266 -288h-110l-259 283l233 244h109z" />
    <glyph glyph-name="Lacute" unicode="&#x139;" 
d="M136 0v689h86v-612h315l-11 -77h-390zM262 906l37 -72l-213 -79l-22 46z" />
    <glyph glyph-name="lacute" unicode="&#x13a;" 
d="M306 130c0 -47.333 29 -71 87 -71c27.333 0 56.666 6 87.999 18l22 -61c-33.333 -18 -75 -27 -125 -27c-47.333 0 -85.166 13 -113.499 39s-42.5 61.333 -42.5 106v538h-162v67h246v-609zM349 1009l38 -72l-209 -85l-26 45z" />
    <glyph glyph-name="Lcommaaccent" unicode="&#x13b;" 
d="M136 0v689h86v-612h315l-11 -77h-390zM374 -86.5c10.667 -10.333 16.001 -22.833 16.001 -37.5c0 -14 -5 -32.333 -15 -55l-51 -107h-50l29 117c-14.667 11.333 -22 26.333 -22 45c0 15.333 5.16699 28 15.5 38s23.166 15 38.499 15s28.333 -5.16699 39 -15.5z" />
    <glyph glyph-name="lcommaaccent" unicode="&#x13c;" 
d="M306 130c0 -47.333 29 -71 87 -71c27.333 0 56.666 6 87.999 18l22 -61c-33.333 -18 -75 -27 -125 -27c-47.333 0 -85.166 13 -113.499 39s-42.5 61.333 -42.5 106v538h-162v67h246v-609zM403 -86.5c10.667 -10.333 16.001 -22.833 16.001 -37.5
c0 -14 -5 -32.333 -15 -55l-51 -107h-50l29 117c-14.667 11.333 -22 26.333 -22 45c0 15.333 5.16699 28 15.5 38s23.166 15 38.499 15s28.333 -5.16699 39 -15.5z" />
    <glyph glyph-name="Lcaron" unicode="&#x13d;" 
d="M136 0v689h86v-612h315l-11 -77h-390zM308 698l76 -10l-53 -178l-48 7z" />
    <glyph glyph-name="lcaron" unicode="&#x13e;" 
d="M306 130c0 -47.333 29 -71 87 -71c27.333 0 56.666 6 87.999 18l22 -61c-33.333 -18 -75 -27 -125 -27c-47.333 0 -85.166 13 -113.499 39s-42.5 61.333 -42.5 106v538h-162v67h246v-609zM383 748l76 -10l-53 -178l-48 7z" />
    <glyph glyph-name="Ldot" unicode="&#x13f;" 
d="M136 0v689h86v-612h315l-11 -77h-390zM516 419.5c11.333 -11 17 -25.167 17 -42.5s-5.66699 -31.5 -17 -42.5s-26 -16.5 -44 -16.5s-32.5 5.5 -43.5 16.5s-16.5 25.167 -16.5 42.5s5.5 31.5 16.5 42.5s25.5 16.5 43.5 16.5s32.667 -5.5 44 -16.5z" />
    <glyph glyph-name="ldot" unicode="&#x140;" 
d="M306 130c0 -47.333 29 -71 87 -71c27.333 0 56.666 6 87.999 18l22 -61c-33.333 -18 -75 -27 -125 -27c-47.333 0 -85.166 13 -113.499 39s-42.5 61.333 -42.5 106v538h-162v67h246v-609zM604 423.5c11.333 -11 17 -25.167 17 -42.5s-5.66699 -31.5 -17 -42.5
s-26 -16.5 -44 -16.5s-32.5 5.5 -43.5 16.5s-16.5 25.167 -16.5 42.5s5.5 31.5 16.5 42.5s25.5 16.5 43.5 16.5s32.667 -5.5 44 -16.5z" />
    <glyph glyph-name="Lslash" unicode="&#x141;" 
d="M220 77h315l-11 -77h-390v267l-57 -35l-37 57l94 57v343h86v-290l165 103l37 -56l-202 -125v-244z" />
    <glyph glyph-name="lslash" unicode="&#x142;" 
d="M503 16c-33.333 -18 -75 -27 -125 -27c-47.333 0 -85.166 13 -113.499 39s-42.5 61.333 -42.5 106v172l-68 -41l-36 54l104 62v291h-162v67h246v-306l89 56l36 -54l-125 -78v-227c0 -47.333 29 -71 87 -71c27.333 0 56.666 6 87.999 18z" />
    <glyph glyph-name="Nacute" unicode="&#x143;" 
d="M152 605c0 -4.66699 2 -33.667 6 -87s6 -111 6 -173v-345h-81v689h118l247 -608l-2 36c-6.66699 82 -10 157.667 -10 227v345h81v-689h-122zM382 906l37 -72l-213 -79l-22 46z" />
    <glyph glyph-name="nacute" unicode="&#x144;" 
d="M100 527h71.999l7 -74c20.667 26.667 46.834 47.5 78.501 62.5s63.5 22.5 95.5 22.5c98.667 0 148 -52 148 -156v-382h-84v320c0 39.333 -2.16699 69.333 -6.5 90s-12.833 36 -25.5 46s-32 15 -58 15c-28.667 0 -55.667 -8.66699 -81 -26s-46 -38 -62 -62v-383h-84v527z
M383.999 797l38 -72l-209 -85l-26 45z" />
    <glyph glyph-name="Ncommaaccent" unicode="&#x145;" 
d="M152 605c0 -4.66699 2 -33.667 6 -87s6 -111 6 -173v-345h-81v689h118l247 -608l-2 36c-6.66699 82 -10 157.667 -10 227v345h81v-689h-122zM342 -86.5c10.667 -10.333 16.001 -22.833 16.001 -37.5c0 -14 -5 -32.333 -15 -55l-51 -107h-50l29 117
c-14.667 11.333 -22 26.333 -22 45c0 15.333 5.16699 28 15.5 38s23.166 15 38.499 15s28.333 -5.16699 39 -15.5z" />
    <glyph glyph-name="ncommaaccent" unicode="&#x146;" 
d="M100 527h71.999l7 -74c20.667 26.667 46.834 47.5 78.501 62.5s63.5 22.5 95.5 22.5c98.667 0 148 -52 148 -156v-382h-84v320c0 39.333 -2.16699 69.333 -6.5 90s-12.833 36 -25.5 46s-32 15 -58 15c-28.667 0 -55.667 -8.66699 -81 -26s-46 -38 -62 -62v-383h-84v527z
M342.999 -86.5c10.667 -10.333 16.001 -22.833 16.001 -37.5c0 -14 -5 -32.333 -15 -55l-51 -107h-50l29 117c-14.667 11.333 -22 26.333 -22 45c0 15.333 5.16699 28 15.5 38s23.166 15 38.499 15s28.333 -5.16699 39 -15.5z" />
    <glyph glyph-name="Ncaron" unicode="&#x147;" 
d="M152 605c0 -4.66699 2 -33.667 6 -87s6 -111 6 -173v-345h-81v689h118l247 -608l-2 36c-6.66699 82 -10 157.667 -10 227v345h81v-689h-122zM425 905l37 -43l-134 -108h-57l-135 108l38 43l125 -81z" />
    <glyph glyph-name="ncaron" unicode="&#x148;" 
d="M100 527h71.999l7 -74c20.667 26.667 46.834 47.5 78.501 62.5s63.5 22.5 95.5 22.5c98.667 0 148 -52 148 -156v-382h-84v320c0 39.333 -2.16699 69.333 -6.5 90s-12.833 36 -25.5 46s-32 15 -58 15c-28.667 0 -55.667 -8.66699 -81 -26s-46 -38 -62 -62v-383h-84v527z
M424.999 789l38 -41l-134 -119h-57l-135 119l40 41l124 -90z" />
    <glyph glyph-name="napostrophe" unicode="&#x149;" 
d="M102 736.5c10.667 -10.333 16 -23.166 16 -38.499c0 -8 -1.83301 -17.333 -5.5 -28s-10.5 -27 -20.5 -49l-41 -87h-50l30 119c-15.333 13.333 -23 28.333 -23 45c0 15.333 5.33301 28.166 16 38.499s23.667 15.5 39 15.5s28.333 -5.16699 39 -15.5zM109 527h71.999l7 -74
c20.667 26.667 46.834 47.5 78.501 62.5s63.5 22.5 95.5 22.5c98.667 0 148 -52 148 -156v-382h-84v320c0 39.333 -2.16699 69.333 -6.5 90s-12.833 36 -25.5 46s-32 15 -58 15c-28.667 0 -55.667 -8.66699 -81 -26s-46 -38 -62 -62v-383h-84v527z" />
    <glyph glyph-name="Eng" unicode="&#x14a;" 
d="M517 689v-750.998c0 -48.667 -12.833 -85.834 -38.5 -111.501s-61.167 -38.5 -106.5 -38.5c-42.667 0 -80.334 12.333 -113.001 37l34 57c12.667 -8.66699 24.334 -14.834 35.001 -18.501s24 -5.5 40 -5.5c41.333 0 62 25 62 75v67h-35l-243 605
c0 -4.66699 2 -33.667 6 -87s6 -111 6 -173v-345h-81v689h118l247 -608l-2 36c-6.66699 82 -10 157.667 -10 227v345h81z" />
    <glyph glyph-name="eng" unicode="&#x14b;" 
d="M484.5 -88c-11 -29.333 -27.335 -52.835 -49.002 -70.502s-51.5 -35.167 -89.5 -52.5l-31 61c26 12.667 46 24.834 60 36.501s24.5 28 31.5 49s10.5 50.167 10.5 87.5v297c0 39.333 -2.16699 69.333 -6.5 90s-13 36 -26 46s-32.833 15 -59.5 15
c-27.333 0 -53.666 -8.66699 -78.999 -26s-46 -37.666 -62 -60.999v-384h-84v527h72l7 -74c20.667 26.667 46.834 47.5 78.501 62.5s63.5 22.5 95.5 22.5c98.667 0 148 -52 148 -156v-353c0 -48.667 -5.5 -87.667 -16.5 -117z" />
    <glyph glyph-name="Omacron" unicode="&#x14c;" 
d="M487.5 86c-43.667 -64.667 -106.167 -96.999 -187.5 -96.999c-82 0 -144.667 31.667 -188 95s-65 149.666 -65 258.999c0 70 9.66699 132 29 186s48 96 86 126s84 45 138 45c81.333 0 143.833 -32.167 187.5 -96.5s65.5 -150.833 65.5 -259.5
c0 -107.333 -21.833 -193.333 -65.5 -258zM424 556.001c-26 47.333 -67.333 71 -124 71s-98 -23.833 -124 -71.5s-39 -118.5 -39 -212.5c0 -93.333 13.167 -163.5 39.5 -210.5s67.5 -70.5 123.5 -70.5c56.667 0 98 23.5 124 70.5s39 117.5 39 211.5s-13 164.667 -39 212z
M434 795.001h-269v64h269v-64z" />
    <glyph glyph-name="omacron" unicode="&#x14d;" 
d="M468.5 464.5c39 -49 58.499 -115.833 58.499 -200.5c0 -82.667 -19.833 -149.167 -59.5 -199.5s-95.5 -75.5 -167.5 -75.5c-72.667 0 -128.667 24.5 -168 73.5s-59 115.833 -59 200.5c0 83.333 19.833 150 59.5 200s95.834 75 168.501 75s128.5 -24.5 167.5 -73.5z
M197.999 418c-22.667 -34 -34.001 -85.667 -34.001 -155s11.167 -120.833 33.5 -154.5s56.5 -50.5 102.5 -50.5s80.167 16.833 102.5 50.5s33.5 85.5 33.5 155.5c0 69.333 -11.167 120.833 -33.5 154.5s-56.166 50.5 -101.499 50.5c-46 0 -80.333 -17 -103 -51zM433.998 676
h-269v64h269v-64z" />
    <glyph glyph-name="Obreve" unicode="&#x14e;" 
d="M487.5 86c-43.667 -64.667 -106.167 -96.999 -187.5 -96.999c-82 0 -144.667 31.667 -188 95s-65 149.666 -65 258.999c0 70 9.66699 132 29 186s48 96 86 126s84 45 138 45c81.333 0 143.833 -32.167 187.5 -96.5s65.5 -150.833 65.5 -259.5
c0 -107.333 -21.833 -193.333 -65.5 -258zM424 556.001c-26 47.333 -67.333 71 -124 71s-98 -23.833 -124 -71.5s-39 -118.5 -39 -212.5c0 -93.333 13.167 -163.5 39.5 -210.5s67.5 -70.5 123.5 -70.5c56.667 0 98 23.5 124 70.5s39 117.5 39 211.5s-13 164.667 -39 212z
M198 791.501c-28 21.667 -43.667 50.5 -47 86.5l57 13c16.667 -44.667 46.667 -67 90 -67c22.667 0 42 6 58 18s27.667 28.333 35 49l58 -13c-4 -36 -20.333 -64.833 -49 -86.5s-62.667 -32.5 -102 -32.5c-38.667 0 -72 10.833 -100 32.5z" />
    <glyph glyph-name="obreve" unicode="&#x14f;" 
d="M468.5 464.5c39 -49 58.499 -115.833 58.499 -200.5c0 -82.667 -19.833 -149.167 -59.5 -199.5s-95.5 -75.5 -167.5 -75.5c-72.667 0 -128.667 24.5 -168 73.5s-59 115.833 -59 200.5c0 83.333 19.833 150 59.5 200s95.834 75 168.501 75s128.5 -24.5 167.5 -73.5z
M197.999 418c-22.667 -34 -34.001 -85.667 -34.001 -155s11.167 -120.833 33.5 -154.5s56.5 -50.5 102.5 -50.5s80.167 16.833 102.5 50.5s33.5 85.5 33.5 155.5c0 69.333 -11.167 120.833 -33.5 154.5s-56.166 50.5 -101.499 50.5c-46 0 -80.333 -17 -103 -51z
M222.998 650.5c-21.333 13.667 -38.1631 30.834 -50.4961 51.501s-19.833 42 -22.5 64l58 13c16.667 -56.667 46.667 -85 90 -85c23.333 0 42.666 7.5 57.999 22.5s27 35.833 35 62.5l57 -13c-2.66699 -22 -10.334 -43.333 -23.001 -64s-29.834 -37.834 -51.501 -51.501
s-46.834 -20.5 -75.501 -20.5s-53.667 6.83301 -75 20.5z" />
    <glyph glyph-name="Ohungarumlaut" unicode="&#x150;" 
d="M487.5 86c-43.667 -64.667 -106.167 -96.999 -187.5 -96.999c-82 0 -144.667 31.667 -188 95s-65 149.666 -65 258.999c0 70 9.66699 132 29 186s48 96 86 126s84 45 138 45c81.333 0 143.833 -32.167 187.5 -96.5s65.5 -150.833 65.5 -259.5
c0 -107.333 -21.833 -193.333 -65.5 -258zM424 556.001c-26 47.333 -67.333 71 -124 71s-98 -23.833 -124 -71.5s-39 -118.5 -39 -212.5c0 -93.333 13.167 -163.5 39.5 -210.5s67.5 -70.5 123.5 -70.5c56.667 0 98 23.5 124 70.5s39 117.5 39 211.5s-13 164.667 -39 212z
M182 781.001l78 174l75 -36l-97 -164zM347 781.001l87 174l74 -39l-108 -163z" />
    <glyph glyph-name="ohungarumlaut" unicode="&#x151;" 
d="M468.5 464.5c39 -49 58.499 -115.833 58.499 -200.5c0 -82.667 -19.833 -149.167 -59.5 -199.5s-95.5 -75.5 -167.5 -75.5c-72.667 0 -128.667 24.5 -168 73.5s-59 115.833 -59 200.5c0 83.333 19.833 150 59.5 200s95.834 75 168.501 75s128.5 -24.5 167.5 -73.5z
M197.999 418c-22.667 -34 -34.001 -85.667 -34.001 -155s11.167 -120.833 33.5 -154.5s56.5 -50.5 102.5 -50.5s80.167 16.833 102.5 50.5s33.5 85.5 33.5 155.5c0 69.333 -11.167 120.833 -33.5 154.5s-56.166 50.5 -101.499 50.5c-46 0 -80.333 -17 -103 -51zM175.998 662
l78 174l75 -36l-97 -164zM340.998 662l87 174l74 -39l-108 -163z" />
    <glyph glyph-name="OE" unicode="&#x152;" 
d="M283 689h324.998l-10 -71h-244c38.667 -46 60.334 -123.667 65.001 -233h154v-71h-154c-2.66699 -112.667 -25.667 -193.667 -69 -243h267v-71h-337c-23.333 -7.33301 -46 -11 -68 -11c-142 0 -213 118 -213 354c0 116 17.833 204.5 53.5 265.5s88.834 91.5 159.501 91.5
c22 0 45.667 -3.66699 71 -11zM120.498 561c-19 -44.667 -28.5 -117.332 -28.5 -217.999c0 -100 9.83301 -172.333 29.5 -217s49.5 -67 89.5 -67c42.667 0 73.667 22.167 93 66.5s29 117.166 29 218.499s-9.5 174 -28.5 218s-50.167 66 -93.5 66
c-41.333 0 -71.5 -22.333 -90.5 -67z" />
    <glyph glyph-name="oe" unicode="&#x153;" 
d="M574.5 471c27 -44.667 40.501 -108.666 40.501 -191.999c0 -14.667 -0.666992 -30 -2 -46h-263c4.66699 -60.667 15.5 -104.834 32.5 -132.501s42.833 -41.5 77.5 -41.5c17.333 0 33.166 3.16699 47.499 9.5s30.5 16.5 48.5 30.5l39 -58
c-21.333 -17.333 -42.833 -30.333 -64.5 -39s-45.834 -13 -72.501 -13c-36 0 -66.5 8.66699 -91.5 26s-44.167 42.333 -57.5 75c-13.333 -32.667 -31.166 -57.667 -53.499 -75s-51.833 -26 -88.5 -26c-56.667 0 -99 24.167 -127 72.5s-42 115.5 -42 201.5
c0 85.333 13.833 152.5 41.5 201.5s70.167 73.5 127.5 73.5c39.333 0 69.833 -8.83301 91.5 -26.5s38.5 -43.167 50.5 -76.5c28 68.667 74.667 103 140 103c56.667 0 98.5 -22.333 125.5 -67zM108.001 420.001c-14 -33.333 -21.001 -85.667 -21.001 -157
c0 -72.667 7 -125 21 -157s37.333 -48 70 -48c22 0 39.333 6.66699 52 20s21.834 34.833 27.501 64.5s8.5 70.167 8.5 121.5c0 71.333 -6.83301 123.5 -20.5 156.5s-36.167 49.5 -67.5 49.5c-32.667 0 -56 -16.667 -70 -50zM378.5 430c-15 -25.333 -24.502 -69 -28.502 -131
h183c-1.33301 58 -8.16602 100.667 -20.499 128s-34.166 41 -65.499 41c-30.667 0 -53.5 -12.667 -68.5 -38z" />
    <glyph glyph-name="Racute" unicode="&#x154;" 
d="M491 372.5c-30.667 -32.333 -71.333 -54.834 -122 -67.501l205 -305h-104l-189 295h-93v-295h-86v689h176c85.333 0 149.833 -16.333 193.5 -49s65.5 -81 65.5 -145c0 -49.333 -15.333 -90.166 -46 -122.499zM407.001 589.999c-25.333 19.333 -64.999 29 -118.999 29
h-100v-256h101c51.333 0 90.166 10.5 116.499 31.5s39.5 54.5 39.5 100.5c0 44 -12.667 75.667 -38 95zM383.002 905.999l37 -72l-213 -79l-22 46z" />
    <glyph glyph-name="racute" unicode="&#x155;" 
d="M530 527l-12 -179h-68v113h-5c-81.333 0 -139 -58 -173 -174v-222h107v-65h-274v65h83v397h-83v65h146l16 -125c21.333 45.333 46.833 79.333 76.5 102s67.167 34 112.5 34c21.333 0 46 -3.66699 74 -11zM415 797l38 -72l-209 -85l-26 45z" />
    <glyph glyph-name="Rcommaaccent" unicode="&#x156;" 
d="M491 372.5c-30.667 -32.333 -71.333 -54.834 -122 -67.501l205 -305h-104l-189 295h-93v-295h-86v689h176c85.333 0 149.833 -16.333 193.5 -49s65.5 -81 65.5 -145c0 -49.333 -15.333 -90.166 -46 -122.499zM407.001 589.999c-25.333 19.333 -64.999 29 -118.999 29
h-100v-256h101c51.333 0 90.166 10.5 116.499 31.5s39.5 54.5 39.5 100.5c0 44 -12.667 75.667 -38 95zM341.002 -86.501c10.667 -10.333 16.001 -22.833 16.001 -37.5c0 -14 -5 -32.333 -15 -55l-51 -107h-50l29 117c-14.667 11.333 -22 26.333 -22 45
c0 15.333 5.16699 28 15.5 38s23.166 15 38.499 15s28.333 -5.16699 39 -15.5z" />
    <glyph glyph-name="rcommaaccent" unicode="&#x157;" 
d="M530 527l-12 -179h-68v113h-5c-81.333 0 -139 -58 -173 -174v-222h107v-65h-274v65h83v397h-83v65h146l16 -125c21.333 45.333 46.833 79.333 76.5 102s67.167 34 112.5 34c21.333 0 46 -3.66699 74 -11zM272 -86.5c10.667 -10.333 16.001 -22.833 16.001 -37.5
c0 -14 -5 -32.333 -15 -55l-51 -107h-50l29 117c-14.667 11.333 -22 26.333 -22 45c0 15.333 5.16699 28 15.5 38s23.166 15 38.499 15s28.333 -5.16699 39 -15.5z" />
    <glyph glyph-name="Rcaron" unicode="&#x158;" 
d="M491 372.5c-30.667 -32.333 -71.333 -54.834 -122 -67.501l205 -305h-104l-189 295h-93v-295h-86v689h176c85.333 0 149.833 -16.333 193.5 -49s65.5 -81 65.5 -145c0 -49.333 -15.333 -90.166 -46 -122.499zM407.001 589.999c-25.333 19.333 -64.999 29 -118.999 29
h-100v-256h101c51.333 0 90.166 10.5 116.499 31.5s39.5 54.5 39.5 100.5c0 44 -12.667 75.667 -38 95zM426.002 904.999l37 -43l-134 -108h-57l-135 108l38 43l125 -81z" />
    <glyph glyph-name="rcaron" unicode="&#x159;" 
d="M530 527l-12 -179h-68v113h-5c-81.333 0 -139 -58 -173 -174v-222h107v-65h-274v65h83v397h-83v65h146l16 -125c21.333 45.333 46.833 79.333 76.5 102s67.167 34 112.5 34c21.333 0 46 -3.66699 74 -11zM456 789l38 -41l-134 -119h-57l-135 119l40 41l124 -90z" />
    <glyph glyph-name="Sacute" unicode="&#x15a;" 
d="M507 85.5c-20 -30.333 -49 -54 -87 -71s-83 -25.5 -135 -25.5c-50 0 -95.5 7.5 -136.5 22.5s-76.167 36.5 -105.5 64.5l52 59c25.333 -24 53.5 -42.333 84.5 -55s66.5 -19 106.5 -19c45.333 0 83.333 11 114 33s46 53.667 46 95c0 23.333 -4.33301 42.666 -13 57.999
s-23.834 29 -45.501 41s-52.167 23.667 -91.5 35c-74.667 22 -130.334 47.833 -167.001 77.5s-55 70.167 -55 121.5c0 34 9.33301 64.667 28 92s45 48.5 79 63.5s72.667 22.5 116 22.5c45.333 0 85.833 -6.66699 121.5 -20s68.5 -33 98.5 -59l-52 -56
c-47.333 41.333 -102.333 62 -165 62c-40 0 -73 -8.66699 -99 -26s-39 -42.666 -39 -75.999c0 -20 5.33301 -37 16 -51s28.334 -27 53.001 -39s59.334 -24.333 104.001 -37c64.667 -18.667 114.5 -43 149.5 -73s52.5 -74.667 52.5 -134c0 -40 -10 -75.167 -30 -105.5z
M389 906l37 -72l-213 -79l-22 46z" />
    <glyph glyph-name="sacute" unicode="&#x15b;" 
d="M375 81c23.333 15.333 35.002 35.667 35.002 61c0 17.333 -3 31.5 -9 42.5s-18 21 -36 30s-45.333 18.167 -82 27.5c-61.333 15.333 -106.666 33.833 -135.999 55.5s-44 53.834 -44 96.501c0 44 18.333 79 55 105s85 39 145 39c73.333 0 137.333 -19.333 192 -58l-38 -58
c-22 15.333 -45 27.166 -69 35.499s-51.667 12.5 -83 12.5c-76 0 -114 -23 -114 -69c0 -16 4.16699 -29 12.5 -39s22 -18.833 41 -26.5s47.5 -16.834 85.5 -27.501c57.333 -15.333 100.166 -34.833 128.499 -58.5s42.5 -58.167 42.5 -103.5c0 -52.667 -21.333 -92 -64 -118
s-95 -39 -157 -39c-82.667 0 -151.334 23.667 -206.001 71l47 55c21.333 -17.333 45.666 -31.166 72.999 -41.499s56 -15.5 86 -15.5c40 0 71.667 7.66699 95 23zM391.002 797.001l38 -72l-209 -85l-26 45z" />
    <glyph glyph-name="Scircumflex" unicode="&#x15c;" 
d="M507 85.5c-20 -30.333 -49 -54 -87 -71s-83 -25.5 -135 -25.5c-50 0 -95.5 7.5 -136.5 22.5s-76.167 36.5 -105.5 64.5l52 59c25.333 -24 53.5 -42.333 84.5 -55s66.5 -19 106.5 -19c45.333 0 83.333 11 114 33s46 53.667 46 95c0 23.333 -4.33301 42.666 -13 57.999
s-23.834 29 -45.501 41s-52.167 23.667 -91.5 35c-74.667 22 -130.334 47.833 -167.001 77.5s-55 70.167 -55 121.5c0 34 9.33301 64.667 28 92s45 48.5 79 63.5s72.667 22.5 116 22.5c45.333 0 85.833 -6.66699 121.5 -20s68.5 -33 98.5 -59l-52 -56
c-47.333 41.333 -102.333 62 -165 62c-40 0 -73 -8.66699 -99 -26s-39 -42.666 -39 -75.999c0 -20 5.33301 -37 16 -51s28.334 -27 53.001 -39s59.334 -24.333 104.001 -37c64.667 -18.667 114.5 -43 149.5 -73s52.5 -74.667 52.5 -134c0 -40 -10 -75.167 -30 -105.5z
M335 910l134 -107l-37 -43l-126 81l-125 -81l-38 43l135 107h57z" />
    <glyph glyph-name="scircumflex" unicode="&#x15d;" 
d="M375 81c23.333 15.333 35.002 35.667 35.002 61c0 17.333 -3 31.5 -9 42.5s-18 21 -36 30s-45.333 18.167 -82 27.5c-61.333 15.333 -106.666 33.833 -135.999 55.5s-44 53.834 -44 96.501c0 44 18.333 79 55 105s85 39 145 39c73.333 0 137.333 -19.333 192 -58l-38 -58
c-22 15.333 -45 27.166 -69 35.499s-51.667 12.5 -83 12.5c-76 0 -114 -23 -114 -69c0 -16 4.16699 -29 12.5 -39s22 -18.833 41 -26.5s47.5 -16.834 85.5 -27.501c57.333 -15.333 100.166 -34.833 128.499 -58.5s42.5 -58.167 42.5 -103.5c0 -52.667 -21.333 -92 -64 -118
s-95 -39 -157 -39c-82.667 0 -151.334 23.667 -206.001 71l47 55c21.333 -17.333 45.666 -31.166 72.999 -41.499s56 -15.5 86 -15.5c40 0 71.667 7.66699 95 23zM184.002 629.001l-40 41l135 119h57l134 -119l-38 -41l-124 91z" />
    <glyph glyph-name="Scedilla" unicode="&#x15e;" 
d="M479 52.5c-38.667 -36.333 -92.6689 -57.165 -162.002 -62.498v-47c30.667 -2.66699 53.834 -11.834 69.501 -27.501s23.5 -34.167 23.5 -55.5c0 -31.333 -11.833 -55.5 -35.5 -72.5s-52.5 -25.5 -86.5 -25.5c-20 0 -39.167 2.16699 -57.5 6.5
s-34.166 10.166 -47.499 17.499l27 48c20 -10.667 42.333 -16 67 -16c40 0 60 13.667 60 41c0 17.333 -7 29 -21 35s-35.667 9 -65 9l6 87c-88 5.33301 -159.333 34 -214 86l52 59c25.333 -24 53.5 -42.333 84.5 -55s66.5 -19 106.5 -19c45.333 0 83.333 11 114 33
s46 53.667 46 95c0 23.333 -4.33301 42.666 -13 57.999s-23.834 29 -45.501 41s-52.167 23.667 -91.5 35c-74.667 22 -130.334 47.833 -167.001 77.5s-55 70.167 -55 121.5c0 34 9.33301 64.667 28 92s45 48.5 79 63.5s72.667 22.5 116 22.5
c45.333 0 85.833 -6.66699 121.5 -20s68.5 -33 98.5 -59l-52 -56c-47.333 41.333 -102.333 62 -165 62c-40 0 -73 -8.66699 -99 -26s-39 -42.666 -39 -75.999c0 -20 5.33301 -37 16 -51s28.334 -27 53.001 -39s59.334 -24.333 104.001 -37
c64.667 -18.667 114.5 -43 149.5 -73s52.5 -74.667 52.5 -134c0 -56 -19.333 -102.167 -58 -138.5z" />
    <glyph glyph-name="scedilla" unicode="&#x15f;" 
d="M449 37c-34.667 -26 -78.668 -41.3291 -132.001 -45.9961v-48c30.667 -2.66699 53.834 -11.834 69.501 -27.501s23.5 -34.167 23.5 -55.5c0 -31.333 -11.833 -55.5 -35.5 -72.5s-52.5 -25.5 -86.5 -25.5c-20 0 -39.167 2.16699 -57.5 6.5s-34.166 10.166 -47.499 17.499
l27 48c20 -10.667 42.333 -16 67 -16c40 0 60 13.667 60 41c0 17.333 -7 29 -21 35s-35.667 9 -65 9l6 87c-72.667 3.33301 -133.667 26.666 -183 69.999l47 55c21.333 -17.333 45.666 -31.166 72.999 -41.499s56 -15.5 86 -15.5c40 0 71.667 7.66699 95 23
s35 35.666 35 60.999c0 17.333 -3 31.5 -9 42.5s-18 21 -36 30s-45.333 18.167 -82 27.5c-61.333 15.333 -106.666 33.833 -135.999 55.5s-44 53.834 -44 96.501c0 44 18.333 79 55 105s85 39 145 39c73.333 0 137.333 -19.333 192 -58l-38 -58
c-22 15.333 -45 27.166 -69 35.499s-51.667 12.5 -83 12.5c-76 0 -114 -23 -114 -69c0 -16 4.16699 -29 12.5 -39s22 -18.833 41 -26.5s47.5 -16.834 85.5 -27.501c57.333 -15.333 100.166 -34.833 128.499 -58.5s42.5 -58.167 42.5 -103.5c0 -46.667 -17.333 -83 -52 -109z
" />
    <glyph glyph-name="Scaron" unicode="&#x160;" 
d="M507 85.5c-20 -30.333 -49 -54 -87 -71s-83 -25.5 -135 -25.5c-50 0 -95.5 7.5 -136.5 22.5s-76.167 36.5 -105.5 64.5l52 59c25.333 -24 53.5 -42.333 84.5 -55s66.5 -19 106.5 -19c45.333 0 83.333 11 114 33s46 53.667 46 95c0 23.333 -4.33301 42.666 -13 57.999
s-23.834 29 -45.501 41s-52.167 23.667 -91.5 35c-74.667 22 -130.334 47.833 -167.001 77.5s-55 70.167 -55 121.5c0 34 9.33301 64.667 28 92s45 48.5 79 63.5s72.667 22.5 116 22.5c45.333 0 85.833 -6.66699 121.5 -20s68.5 -33 98.5 -59l-52 -56
c-47.333 41.333 -102.333 62 -165 62c-40 0 -73 -8.66699 -99 -26s-39 -42.666 -39 -75.999c0 -20 5.33301 -37 16 -51s28.334 -27 53.001 -39s59.334 -24.333 104.001 -37c64.667 -18.667 114.5 -43 149.5 -73s52.5 -74.667 52.5 -134c0 -40 -10 -75.167 -30 -105.5z
M432 905l37 -43l-134 -108h-57l-135 108l38 43l125 -81z" />
    <glyph glyph-name="scaron" unicode="&#x161;" 
d="M375 81c23.333 15.333 35.002 35.667 35.002 61c0 17.333 -3 31.5 -9 42.5s-18 21 -36 30s-45.333 18.167 -82 27.5c-61.333 15.333 -106.666 33.833 -135.999 55.5s-44 53.834 -44 96.501c0 44 18.333 79 55 105s85 39 145 39c73.333 0 137.333 -19.333 192 -58l-38 -58
c-22 15.333 -45 27.166 -69 35.499s-51.667 12.5 -83 12.5c-76 0 -114 -23 -114 -69c0 -16 4.16699 -29 12.5 -39s22 -18.833 41 -26.5s47.5 -16.834 85.5 -27.501c57.333 -15.333 100.166 -34.833 128.499 -58.5s42.5 -58.167 42.5 -103.5c0 -52.667 -21.333 -92 -64 -118
s-95 -39 -157 -39c-82.667 0 -151.334 23.667 -206.001 71l47 55c21.333 -17.333 45.666 -31.166 72.999 -41.499s56 -15.5 86 -15.5c40 0 71.667 7.66699 95 23zM432.002 789.001l38 -41l-134 -119h-57l-135 119l40 41l124 -90z" />
    <glyph glyph-name="uni0162" unicode="&#x162;" 
d="M328 0l-0.00195312 -56.998c30.667 -2.66699 53.834 -11.834 69.501 -27.501s23.5 -34.167 23.5 -55.5c0 -31.333 -11.833 -55.5 -35.5 -72.5s-52.5 -25.5 -86.5 -25.5c-20 0 -39.167 2.16699 -57.5 6.5s-34.166 10.166 -47.499 17.499l27 48
c20 -10.667 42.333 -16 67 -16c40 0 60 13.667 60 41c0 17.333 -7 29 -21 35s-35.667 9 -65 9l7 97h-14v614h-215v75h519l-9 -75h-208v-614h-14z" />
    <glyph glyph-name="uni0163" unicode="&#x163;" 
d="M460.5 -84.5c15.667 -15.667 23.498 -34.1641 23.498 -55.4971c0 -31.333 -11.833 -55.5 -35.5 -72.5s-52.5 -25.5 -86.5 -25.5c-20 0 -39.167 2.16699 -57.5 6.5s-34.166 10.166 -47.499 17.499l27 48c20 -10.667 42.333 -16 67 -16c40 0 60 13.667 60 41
c0 17.333 -7 29 -21 35s-35.667 9 -65 9l6 90c-41.333 8 -73.5 25.667 -96.5 53s-34.5 61 -34.5 101v314h-121v66h121v119l84 10v-129h183l-11 -66h-172v-313c0 -30 8 -52.333 24 -67s41.667 -22 77 -22c36 0 69.667 8.33301 101 25l33 -57
c-16.667 -10.667 -36.167 -19.334 -58.5 -26.001s-45.5 -10.667 -69.5 -12v-46c30.667 -2.66699 53.834 -11.834 69.501 -27.501z" />
    <glyph glyph-name="Tcaron" unicode="&#x164;" 
d="M342 614v-614h-87v614h-215v75h519l-9 -75h-208zM425 905l37 -43l-134 -108h-57l-135 108l38 43l125 -81z" />
    <glyph glyph-name="tcaron" unicode="&#x165;" 
d="M453.5 -1c-25.667 -6.66699 -51.168 -10 -76.501 -10c-55.333 0 -98.666 14.5 -129.999 43.5s-47 67.167 -47 114.5v314h-121v66h121v119l84 10v-129h183l-11 -66h-172v-313c0 -30 8 -52.333 24 -67s41.667 -22 77 -22c36 0 69.667 8.33301 101 25l33 -57
c-18 -12 -39.833 -21.333 -65.5 -28zM363.999 762l76 -10l-53 -178l-48 7z" />
    <glyph glyph-name="Tbar" unicode="&#x166;" 
d="M550 614h-208v-197h131v-67h-131v-350h-87v350h-130v67h130v197h-215v75h519z" />
    <glyph glyph-name="tbar" unicode="&#x167;" 
d="M519 27c-18 -12 -39.834 -21.333 -65.501 -28s-51.167 -10 -76.5 -10c-55.333 0 -98.666 14.5 -129.999 43.5s-47 67.167 -47 114.5v141h-110v64h110v109h-121v66h121v119l84 10v-129h183l-11 -66h-172v-109h173v-64h-173v-140c0 -30 8 -52.333 24 -67s41.667 -22 77 -22
c36 0 69.667 8.33301 101 25z" />
    <glyph glyph-name="Utilde" unicode="&#x168;" 
d="M528 223c0 -46 -9.49902 -86.833 -28.499 -122.5s-45.667 -63.167 -80 -82.5s-74.5 -29 -120.5 -29c-46.667 0 -87 9.83301 -121 29.5s-60.167 47.167 -78.5 82.5s-27.5 76 -27.5 122v466h87v-469c0 -52 12 -91 36 -117s58.667 -39 104 -39s80.166 13 104.499 39
s36.5 65 36.5 117v469h88v-466zM323.501 785c-10.333 4.66699 -21.835 11.334 -34.502 20.001c-10 7.33301 -18.5 12.666 -25.5 15.999s-14.167 5 -21.5 5c-10.667 0 -20 -3.66699 -28 -11s-16.333 -19 -25 -35l-53 26c12.667 26 27.834 46.667 45.501 62
s37.834 23 60.501 23c14 0 26 -2.5 36 -7.5s21.333 -11.833 34 -20.5c11.333 -8 20 -13.5 26 -16.5s12.667 -4.5 20 -4.5c10 0 19 3.5 27 10.5s16.667 18.5 26 34.5l54 -27c-12.667 -27.333 -28.167 -47.833 -46.5 -61.5s-38.5 -20.5 -60.5 -20.5
c-12.667 0 -24.167 2.33301 -34.5 7z" />
    <glyph glyph-name="utilde" unicode="&#x169;" 
d="M184 153c0 -34 7.16602 -58.833 21.499 -74.5s36.833 -23.5 67.5 -23.5c28 0 55 8 81 24s46.667 36 62 60v388h84v-527h-72l-7 71c-20.667 -26 -46.167 -46.167 -76.5 -60.5s-61.166 -21.5 -92.499 -21.5c-50 0 -87.833 13.333 -113.5 40s-38.5 65 -38.5 115v383h84v-374
zM323.499 666c-10.333 4.66699 -21.835 11.334 -34.502 20.001c-10 7.33301 -18.5 12.666 -25.5 15.999s-14.167 5 -21.5 5c-10.667 0 -20 -3.66699 -28 -11s-16.333 -19 -25 -35l-53 26c12.667 26 27.834 46.667 45.501 62s37.834 23 60.501 23c14 0 26 -2.5 36 -7.5
s21.333 -11.833 34 -20.5c11.333 -8 20 -13.5 26 -16.5s12.667 -4.5 20 -4.5c10 0 19 3.5 27 10.5s16.667 18.5 26 34.5l54 -27c-12.667 -27.333 -28.167 -47.833 -46.5 -61.5s-38.5 -20.5 -60.5 -20.5c-12.667 0 -24.167 2.33301 -34.5 7z" />
    <glyph glyph-name="Umacron" unicode="&#x16a;" 
d="M528 223c0 -46 -9.49902 -86.833 -28.499 -122.5s-45.667 -63.167 -80 -82.5s-74.5 -29 -120.5 -29c-46.667 0 -87 9.83301 -121 29.5s-60.167 47.167 -78.5 82.5s-27.5 76 -27.5 122v466h87v-469c0 -52 12 -91 36 -117s58.667 -39 104 -39s80.166 13 104.499 39
s36.5 65 36.5 117v469h88v-466zM434.001 795h-269v64h269v-64z" />
    <glyph glyph-name="umacron" unicode="&#x16b;" 
d="M184 153c0 -34 7.16602 -58.833 21.499 -74.5s36.833 -23.5 67.5 -23.5c28 0 55 8 81 24s46.667 36 62 60v388h84v-527h-72l-7 71c-20.667 -26 -46.167 -46.167 -76.5 -60.5s-61.166 -21.5 -92.499 -21.5c-50 0 -87.833 13.333 -113.5 40s-38.5 65 -38.5 115v383h84v-374
zM433.999 676h-269v64h269v-64z" />
    <glyph glyph-name="Ubreve" unicode="&#x16c;" 
d="M528 223c0 -46 -9.49902 -86.833 -28.499 -122.5s-45.667 -63.167 -80 -82.5s-74.5 -29 -120.5 -29c-46.667 0 -87 9.83301 -121 29.5s-60.167 47.167 -78.5 82.5s-27.5 76 -27.5 122v466h87v-469c0 -52 12 -91 36 -117s58.667 -39 104 -39s80.166 13 104.499 39
s36.5 65 36.5 117v469h88v-466zM198.001 791.5c-28 21.667 -43.667 50.5 -47 86.5l57 13c16.667 -44.667 46.667 -67 90 -67c22.667 0 42 6 58 18s27.667 28.333 35 49l58 -13c-4 -36 -20.333 -64.833 -49 -86.5s-62.667 -32.5 -102 -32.5c-38.667 0 -72 10.833 -100 32.5z
" />
    <glyph glyph-name="ubreve" unicode="&#x16d;" 
d="M184 153c0 -34 7.16602 -58.833 21.499 -74.5s36.833 -23.5 67.5 -23.5c28 0 55 8 81 24s46.667 36 62 60v388h84v-527h-72l-7 71c-20.667 -26 -46.167 -46.167 -76.5 -60.5s-61.166 -21.5 -92.499 -21.5c-50 0 -87.833 13.333 -113.5 40s-38.5 65 -38.5 115v383h84v-374
zM222.999 650.5c-21.333 13.667 -38.1631 30.834 -50.4961 51.501s-19.833 42 -22.5 64l58 13c16.667 -56.667 46.667 -85 90 -85c23.333 0 42.666 7.5 57.999 22.5s27 35.833 35 62.5l57 -13c-2.66699 -22 -10.334 -43.333 -23.001 -64s-29.834 -37.834 -51.501 -51.501
s-46.834 -20.5 -75.501 -20.5s-53.667 6.83301 -75 20.5z" />
    <glyph glyph-name="Uring" unicode="&#x16e;" 
d="M528 223c0 -46 -9.49902 -86.833 -28.499 -122.5s-45.667 -63.167 -80 -82.5s-74.5 -29 -120.5 -29c-46.667 0 -87 9.83301 -121 29.5s-60.167 47.167 -78.5 82.5s-27.5 76 -27.5 122v466h87v-469c0 -52 12 -91 36 -117s58.667 -39 104 -39s80.166 13 104.499 39
s36.5 65 36.5 117v469h88v-466zM379.501 913c21 -20 31.5 -44.333 31.5 -73s-10.5 -52.834 -31.5 -72.501s-47.5 -29.5 -79.5 -29.5s-58.5 9.83301 -79.5 29.5s-31.5 43.834 -31.5 72.501s10.5 53 31.5 73s47.5 30 79.5 30s58.5 -10 79.5 -30zM260.501 881
c-9.66699 -10 -14.498 -23.667 -14.498 -41c0 -18 4.83301 -32 14.5 -42s22.834 -15 39.501 -15c17.333 0 30.666 5 39.999 15s14 24 14 42c0 17.333 -4.83301 31 -14.5 41s-22.834 15 -39.501 15s-29.834 -5 -39.501 -15z" />
    <glyph glyph-name="uring" unicode="&#x16f;" 
d="M184 153c0 -34 7.16602 -58.833 21.499 -74.5s36.833 -23.5 67.5 -23.5c28 0 55 8 81 24s46.667 36 62 60v388h84v-527h-72l-7 71c-20.667 -26 -46.167 -46.167 -76.5 -60.5s-61.166 -21.5 -92.499 -21.5c-50 0 -87.833 13.333 -113.5 40s-38.5 65 -38.5 115v383h84v-374
zM379.499 794c21 -20 31.5 -44.333 31.5 -73s-10.5 -52.834 -31.5 -72.501s-47.5 -29.5 -79.5 -29.5s-58.5 9.83301 -79.5 29.5s-31.5 43.834 -31.5 72.501s10.5 53 31.5 73s47.5 30 79.5 30s58.5 -10 79.5 -30zM260.499 762c-9.66699 -10 -14.498 -23.667 -14.498 -41
c0 -18 4.83301 -32 14.5 -42s22.834 -15 39.501 -15c17.333 0 30.666 5 39.999 15s14 24 14 42c0 17.333 -4.83301 31 -14.5 41s-22.834 15 -39.501 15s-29.834 -5 -39.501 -15z" />
    <glyph glyph-name="Uhungarumlaut" unicode="&#x170;" 
d="M528 223c0 -46 -9.49902 -86.833 -28.499 -122.5s-45.667 -63.167 -80 -82.5s-74.5 -29 -120.5 -29c-46.667 0 -87 9.83301 -121 29.5s-60.167 47.167 -78.5 82.5s-27.5 76 -27.5 122v466h87v-469c0 -52 12 -91 36 -117s58.667 -39 104 -39s80.166 13 104.499 39
s36.5 65 36.5 117v469h88v-466zM182.001 781l78 174l75 -36l-97 -164zM347.001 781l87 174l74 -39l-108 -163z" />
    <glyph glyph-name="uhungarumlaut" unicode="&#x171;" 
d="M184 153c0 -34 7.16602 -58.833 21.499 -74.5s36.833 -23.5 67.5 -23.5c28 0 55 8 81 24s46.667 36 62 60v388h84v-527h-72l-7 71c-20.667 -26 -46.167 -46.167 -76.5 -60.5s-61.166 -21.5 -92.499 -21.5c-50 0 -87.833 13.333 -113.5 40s-38.5 65 -38.5 115v383h84v-374
zM175.999 662l78 174l75 -36l-97 -164zM340.999 662l87 174l74 -39l-108 -163z" />
    <glyph glyph-name="Uogonek" unicode="&#x172;" 
d="M528 689v-465.999c0 -56 -13.5 -103.667 -40.5 -143s-64.5 -66.333 -112.5 -81c-47.333 -20.667 -79.666 -39.834 -96.999 -57.501s-26 -36.167 -26 -55.5c0 -16 4.33301 -28 13 -36s23 -12 43 -12c18 0 38.333 2.33301 61 7l-8 -68c-28 -4 -49.333 -6 -64 -6
c-37.333 0 -67 9.16699 -89 27.5s-33 41.833 -33 70.5c0 49.333 29.333 90 88 122c-59.333 7.33301 -106 31.833 -140 73.5s-51 94.5 -51 158.5v466h87v-469c0 -52 12 -91 36 -117s58.667 -39 104 -39s80.166 13 104.499 39s36.5 65 36.5 117v469h88z" />
    <glyph glyph-name="uogonek" unicode="&#x173;" 
d="M402 -58c-17.333 -18 -26.001 -36.667 -26.001 -56c0 -16 4.33301 -28 13 -36s23 -12 43 -12c18 0 38.333 2.33301 61 7l-8 -68c-28 -4 -49.333 -6 -64 -6c-37.333 0 -67 9.16699 -89 27.5s-33 41.833 -33 70.5c0 59.333 42.667 106.333 128 141l-6 61
c-20.667 -26 -46.167 -46.167 -76.5 -60.5s-61.166 -21.5 -92.499 -21.5c-50 0 -87.833 13.333 -113.5 40s-38.5 65 -38.5 115v383h84v-374c0 -34 7.16699 -58.833 21.5 -74.5s36.833 -23.5 67.5 -23.5c28 0 55 8 81 24s46.667 36 62 60v388h84v-527
c-48 -20.667 -80.667 -40 -98 -58z" />
    <glyph glyph-name="Wcircumflex" unicode="&#x174;" 
d="M595 689l-104 -689h-114l-79 520l-80 -520h-117l-96 689h87l73 -594l83 514h106l79 -514l82 594h80zM329 910l134 -107l-37 -43l-126 81l-125 -81l-38 43l135 107h57z" />
    <glyph glyph-name="wcircumflex" unicode="&#x175;" 
d="M491 0h-119l-69 386l-74 -386h-116l-95 527h85l68 -475l84 408h99l79 -408l68 475h81zM177 629l-40 41l135 119h57l134 -119l-38 -41l-124 91z" />
    <glyph glyph-name="Ycircumflex" unicode="&#x176;" 
d="M344 266v-266h-88v265l-233 424h96l183 -346l185 346h90zM332 910l134 -107l-37 -43l-126 81l-125 -81l-38 43l135 107h57z" />
    <glyph glyph-name="ycircumflex" unicode="&#x177;" 
d="M354 -3c-20.667 -60.667 -49 -108.998 -85 -144.998s-86.333 -57.333 -151 -64l-12 67c35.333 6 63.5 15.167 84.5 27.5s37.5 27.666 49.5 45.999s23 42.166 33 71.499h-28l-183 527h89l151 -463l149 463h87zM177 629.002l-40 41l135 119h57l134 -119l-38 -41l-124 91z
" />
    <glyph glyph-name="Ydieresis" unicode="&#x178;" 
d="M344 266v-266h-88v265l-233 424h96l183 -346l185 346h90zM160 782.5c-10.667 10.333 -16 22.833 -16 37.5c0 16 5.33301 29.167 16 39.5s23.667 15.5 39 15.5s28.166 -5.16699 38.499 -15.5s15.5 -23.5 15.5 -39.5c0 -15.333 -5.16699 -28 -15.5 -38
s-23.166 -15 -38.499 -15s-28.333 5.16699 -39 15.5zM367.5 782c-10.333 10 -15.5 22.667 -15.5 38c0 16 5.16699 29.167 15.5 39.5s23.166 15.5 38.499 15.5s28.333 -5.16699 39 -15.5s16 -23.5 16 -39.5c0 -14.667 -5.33301 -27.167 -16 -37.5s-23.667 -15.5 -39 -15.5
s-28.166 5 -38.499 15z" />
    <glyph glyph-name="Zacute" unicode="&#x179;" 
d="M167 75h360l-10 -75h-445v70l363 544h-327v75h420v-72zM402 906l37 -72l-213 -79l-22 46z" />
    <glyph glyph-name="zacute" unicode="&#x17a;" 
d="M205 72h293l-10 -72h-386v64l292 389h-269v74h370v-66zM394 797l38 -72l-209 -85l-26 45z" />
    <glyph glyph-name="Zdotaccent" unicode="&#x17b;" 
d="M167 75h360l-10 -75h-445v70l363 544h-327v75h420v-72zM362 875.5c11.333 -11 17 -25.167 17 -42.5s-5.66699 -31.5 -17 -42.5s-26 -16.5 -44 -16.5s-32.5 5.5 -43.5 16.5s-16.5 25.167 -16.5 42.5s5.5 31.5 16.5 42.5s25.5 16.5 43.5 16.5s32.667 -5.5 44 -16.5z" />
    <glyph glyph-name="zdotaccent" unicode="&#x17c;" 
d="M205 72h293l-10 -72h-386v64l292 389h-269v74h370v-66zM353 756.5c11.333 -11 17 -25.167 17 -42.5s-5.66699 -31.5 -17 -42.5s-26 -16.5 -44 -16.5s-32.5 5.5 -43.5 16.5s-16.5 25.167 -16.5 42.5s5.5 31.5 16.5 42.5s25.5 16.5 43.5 16.5s32.667 -5.5 44 -16.5z" />
    <glyph glyph-name="Zcaron" unicode="&#x17d;" 
d="M167 75h360l-10 -75h-445v70l363 544h-327v75h420v-72zM445 905l37 -43l-134 -108h-57l-135 108l38 43l125 -81z" />
    <glyph glyph-name="zcaron" unicode="&#x17e;" 
d="M205 72h293l-10 -72h-386v64l292 389h-269v74h370v-66zM435 789l38 -41l-134 -119h-57l-135 119l40 41l124 -90z" />
    <glyph glyph-name="florin" unicode="&#x192;" 
d="M432.5 743c18.333 -4 38.1641 -11.001 59.4971 -21.001l-29 -62c-29.333 13.333 -59.666 20 -90.999 20c-28.667 0 -49.167 -6.33301 -61.5 -19s-18.5 -32.334 -18.5 -59.001v-75h129l-10 -67h-119v-421c0 -51.333 -5.16699 -92.166 -15.5 -122.499
s-26.166 -54.666 -47.499 -72.999s-51.666 -36.5 -90.999 -54.5l-31 60c26 12.667 46 24.834 60 36.501s24.5 28.167 31.5 49.5s10.5 50.666 10.5 87.999v437h-85v67h85v73c0 44.667 14 80.667 42 108s67.333 41 118 41c24 0 45.167 -2 63.5 -6z" />
    <glyph glyph-name="AEacute" unicode="&#x1fc;" 
d="M330 175h-204l-49 -175h-89l202 689h376l-10 -71h-236l51 -233h186v-71h-173l52 -243h171v-71h-241zM148 248h166l-73 372zM444 906l37 -72l-213 -79l-22 46z" />
    <glyph glyph-name="aeacute" unicode="&#x1fd;" 
d="M564.5 470.5c28.333 -45 42.499 -108.831 42.499 -191.498c0 -14.667 -0.666992 -30 -2 -46h-269c4.66699 -60.667 15.834 -104.834 33.501 -132.501s44.167 -41.5 79.5 -41.5c18 0 34.5 3.16699 49.5 9.5s31.5 16.5 49.5 30.5l39 -58c-22 -17.333 -44 -30.333 -66 -39
s-46.667 -13 -74 -13c-34 0 -63 7.5 -87 22.5s-44.333 37.167 -61 66.5c-23.333 -32 -46.5 -54.833 -69.5 -68.5s-50.833 -20.5 -83.5 -20.5c-46.667 0 -83.667 14.667 -111 44s-41 68.666 -41 117.999c0 55.333 18.167 97.333 54.5 126s89.5 43 159.5 43h46v43
c0 70 -30.333 105 -91 105c-17.333 0 -33.333 -2 -48 -6s-33.667 -11 -57 -21l-22 63c47.333 22.667 92.333 34 135 34c37.333 0 66.833 -7.5 88.5 -22.5s38.167 -36.833 49.5 -65.5c9.33301 27.333 24.833 48.833 46.5 64.5s48.167 23.5 79.5 23.5
c58 0 101.167 -22.5 129.5 -67.5zM363.999 430.002c-14.667 -25.333 -23.999 -69 -27.999 -131h189c-1.33301 57.333 -9 99.833 -23 127.5s-37.333 41.5 -70 41.5c-30.667 0 -53.334 -12.667 -68.001 -38zM212 262.002c-46 0 -78.666 -9.16699 -97.999 -27.5
s-29 -44.5 -29 -78.5c0 -33.333 6.66699 -58.833 20 -76.5s31.333 -26.5 54 -26.5c20.667 0 39.167 7.66699 55.5 23s34.166 40 53.499 74c-9.33301 30 -14 67.333 -14 112h-42zM393.001 797.002l38 -72l-209 -85l-26 45z" />
    <glyph glyph-name="Oslashacute" unicode="&#x1fe;" 
d="M522.5 535.5c20.333 -54.333 30.499 -118.167 30.499 -191.5c0 -107.333 -21.833 -193.333 -65.5 -258s-106.167 -97 -187.5 -97c-18.667 0 -39.667 2.33301 -63 7l-33 -106l-75 19l38 120c-39.333 28 -69.166 69 -89.499 123s-30.5 117.667 -30.5 191
c0 70 9.66699 132 29 186s48 96 86 126s84 45 138 45c22 0 43.667 -2.66699 65 -8l32 111l75 -20l-38 -124c38.667 -28 68.167 -69.167 88.5 -123.5zM152.499 188.499c9.66699 -39.667 24.834 -69.833 45.501 -90.5l150 523c-14 4 -30 6 -48 6
c-56.667 0 -97.834 -23.833 -123.501 -71.5s-38.5 -118.5 -38.5 -212.5c0 -63.333 4.83301 -114.833 14.5 -154.5zM423.499 132.5c25.667 47 38.5 117.498 38.5 211.498c0 64.667 -4.83301 116.834 -14.5 156.501s-24.834 69.834 -45.501 90.501l-150 -523
c14 -4 30 -6 48 -6c56.667 0 97.834 23.5 123.501 70.5zM382.999 905.998l37 -72l-213 -79l-22 46z" />
    <glyph glyph-name="oslashacute" unicode="&#x1ff;" 
d="M498.5 413c19 -42 28.499 -91.667 28.499 -149c0 -82.667 -19.833 -149.167 -59.5 -199.5s-95.5 -75.5 -167.5 -75.5c-15.333 0 -32 1.66699 -50 5l-37 -124l-70 20l42 129c-36 21.333 -63.667 53 -83 95s-29 91.667 -29 149c0 83.333 19.833 150 59.5 200
s95.834 75 168.501 75c14.667 0 31 -1.66699 49 -5l38 121l70 -21l-41 -125c35.333 -21.333 62.5 -53 81.5 -95zM163.999 263c0 -88 17.333 -147.333 52 -178l118 381c-10 2 -21 3 -33 3c-91.333 0 -137 -68.667 -137 -206zM435.999 264c0 88 -17 147 -51 177l-118 -380
c10 -2 21 -3 33 -3c90.667 0 136 68.667 136 206zM383.999 797l38 -72l-209 -85l-26 45z" />
    <glyph glyph-name="Scommaaccent" unicode="&#x218;" 
d="M507 85.5c-20 -30.333 -49 -54 -87 -71s-83 -25.5 -135 -25.5c-50 0 -95.5 7.5 -136.5 22.5s-76.167 36.5 -105.5 64.5l52 59c25.333 -24 53.5 -42.333 84.5 -55s66.5 -19 106.5 -19c45.333 0 83.333 11 114 33s46 53.667 46 95c0 23.333 -4.33301 42.666 -13 57.999
s-23.834 29 -45.501 41s-52.167 23.667 -91.5 35c-74.667 22 -130.334 47.833 -167.001 77.5s-55 70.167 -55 121.5c0 34 9.33301 64.667 28 92s45 48.5 79 63.5s72.667 22.5 116 22.5c45.333 0 85.833 -6.66699 121.5 -20s68.5 -33 98.5 -59l-52 -56
c-47.333 41.333 -102.333 62 -165 62c-40 0 -73 -8.66699 -99 -26s-39 -42.666 -39 -75.999c0 -20 5.33301 -37 16 -51s28.334 -27 53.001 -39s59.334 -24.333 104.001 -37c64.667 -18.667 114.5 -43 149.5 -73s52.5 -74.667 52.5 -134c0 -40 -10 -75.167 -30 -105.5z
M339 -86.5c10.667 -10.333 16.001 -22.833 16.001 -37.5c0 -14 -5 -32.333 -15 -55l-51 -107h-50l29 117c-14.667 11.333 -22 26.333 -22 45c0 15.333 5.16699 28 15.5 38s23.166 15 38.499 15s28.333 -5.16699 39 -15.5z" />
    <glyph glyph-name="scommaaccent" unicode="&#x219;" 
d="M375 81c23.333 15.333 35.002 35.667 35.002 61c0 17.333 -3 31.5 -9 42.5s-18 21 -36 30s-45.333 18.167 -82 27.5c-61.333 15.333 -106.666 33.833 -135.999 55.5s-44 53.834 -44 96.501c0 44 18.333 79 55 105s85 39 145 39c73.333 0 137.333 -19.333 192 -58l-38 -58
c-22 15.333 -45 27.166 -69 35.499s-51.667 12.5 -83 12.5c-76 0 -114 -23 -114 -69c0 -16 4.16699 -29 12.5 -39s22 -18.833 41 -26.5s47.5 -16.834 85.5 -27.501c57.333 -15.333 100.166 -34.833 128.499 -58.5s42.5 -58.167 42.5 -103.5c0 -52.667 -21.333 -92 -64 -118
s-95 -39 -157 -39c-82.667 0 -151.334 23.667 -206.001 71l47 55c21.333 -17.333 45.666 -31.166 72.999 -41.499s56 -15.5 86 -15.5c40 0 71.667 7.66699 95 23zM339.002 -86.499c10.667 -10.333 16.001 -22.833 16.001 -37.5c0 -14 -5 -32.333 -15 -55l-51 -107h-50
l29 117c-14.667 11.333 -22 26.333 -22 45c0 15.333 5.16699 28 15.5 38s23.166 15 38.499 15s28.333 -5.16699 39 -15.5z" />
    <glyph glyph-name="uni021A" unicode="&#x21a;" 
d="M342 614v-614h-87v614h-215v75h519l-9 -75h-208zM341 -86.5c10.667 -10.333 16.001 -22.833 16.001 -37.5c0 -14 -5 -32.333 -15 -55l-51 -107h-50l29 117c-14.667 11.333 -22 26.333 -22 45c0 15.333 5.16699 28 15.5 38s23.166 15 38.499 15s28.333 -5.16699 39 -15.5z
" />
    <glyph glyph-name="uni021B" unicode="&#x21b;" 
d="M453.5 -1c-25.667 -6.66699 -51.168 -10 -76.501 -10c-55.333 0 -98.666 14.5 -129.999 43.5s-47 67.167 -47 114.5v314h-121v66h121v119l84 10v-129h183l-11 -66h-172v-313c0 -30 8 -52.333 24 -67s41.667 -22 77 -22c36 0 69.667 8.33301 101 25l33 -57
c-18 -12 -39.833 -21.333 -65.5 -28zM412.999 -86.5c10.667 -10.333 16.001 -22.833 16.001 -37.5c0 -14 -5 -32.333 -15 -55l-51 -107h-50l29 117c-14.667 11.333 -22 26.333 -22 45c0 15.333 5.16699 28 15.5 38s23.166 15 38.499 15s28.333 -5.16699 39 -15.5z" />
    <glyph glyph-name="uni0237" unicode="&#x237;" 
d="M445 84c0 -84.667 -28.167 -150.5 -84.5 -197.5s-139.833 -79.833 -250.5 -98.5l-14 65c84.667 14 150 38.5 196 73.5s69 85.833 69 152.5v381h-219v67h303v-443z" />
    <glyph glyph-name="uni02B9" unicode="&#x2b9;" 
d="M210 429l86 260h94l-115 -260h-65z" />
    <glyph glyph-name="uni02BA" unicode="&#x2ba;" 
d="M138 429l86 260h94l-115 -260h-65zM282 429l86 260h94l-115 -260h-65z" />
    <glyph glyph-name="uni02BC" unicode="&#x2bc;" 
d="M332 733.5c10.667 -10.333 16 -23.167 16 -38.5c0 -8 -1.66699 -17 -5 -27s-10.333 -26.333 -21 -49l-42 -89h-50l31 121c-15.333 12 -23 27 -23 45c0 14.667 5.33301 27.167 16 37.5s23.667 15.5 39 15.5s28.333 -5.16699 39 -15.5z" />
    <glyph glyph-name="circumflex" unicode="&#x2c6;" 
d="M177 629l-40 41l135 119h57l134 -119l-38 -41l-124 91z" />
    <glyph glyph-name="caron" unicode="&#x2c7;" 
d="M425 789l38 -41l-134 -119h-57l-135 119l40 41l124 -90z" />
    <glyph glyph-name="uni02C9" unicode="&#x2c9;" 
d="M434 683h-269v64h269v-64z" />
    <glyph glyph-name="breve" unicode="&#x2d8;" 
d="M223 650.5c-21.333 13.667 -38.1631 30.834 -50.4961 51.501s-19.833 42 -22.5 64l58 13c16.667 -56.667 46.667 -85 90 -85c23.333 0 42.666 7.5 57.999 22.5s27 35.833 35 62.5l57 -13c-2.66699 -22 -10.334 -43.333 -23.001 -64s-29.834 -37.834 -51.501 -51.501
s-46.834 -20.5 -75.501 -20.5s-53.667 6.83301 -75 20.5z" />
    <glyph glyph-name="dotaccent" unicode="&#x2d9;" 
d="M343 756.5c11.333 -11 17 -25.167 17 -42.5s-5.66699 -31.5 -17 -42.5s-26 -16.5 -44 -16.5s-32.5 5.5 -43.5 16.5s-16.5 25.167 -16.5 42.5s5.5 31.5 16.5 42.5s25.5 16.5 43.5 16.5s32.667 -5.5 44 -16.5z" />
    <glyph glyph-name="ring" unicode="&#x2da;" 
d="M379.5 794c21 -20 31.5 -44.333 31.5 -73s-10.5 -52.834 -31.5 -72.501s-47.5 -29.5 -79.5 -29.5s-58.5 9.83301 -79.5 29.5s-31.5 43.834 -31.5 72.501s10.5 53 31.5 73s47.5 30 79.5 30s58.5 -10 79.5 -30zM260.5 762c-9.66699 -10 -14.498 -23.667 -14.498 -41
c0 -18 4.83301 -32 14.5 -42s22.834 -15 39.501 -15c17.333 0 30.666 5 39.999 15s14 24 14 42c0 17.333 -4.83301 31 -14.5 41s-22.834 15 -39.501 15s-29.834 -5 -39.501 -15z" />
    <glyph glyph-name="ogonek" unicode="&#x2db;" 
d="M402 0c-48 -20.667 -80.667 -40 -98 -58s-26 -36.667 -26 -56c0 -16 4.33301 -28 13 -36s23 -12 43 -12c18 0 38.333 2.33301 61 7l-8 -68c-28 -4 -49.333 -6 -64 -6c-37.333 0 -67 9.16699 -89 27.5s-33 41.833 -33 70.5c0 35.333 15.167 66.333 45.5 93
s77.5 49.667 141.5 69z" />
    <glyph glyph-name="tilde" unicode="&#x2dc;" 
d="M323.5 666c-10.333 4.66699 -21.835 11.334 -34.502 20.001c-10 7.33301 -18.5 12.666 -25.5 15.999s-14.167 5 -21.5 5c-10.667 0 -20 -3.66699 -28 -11s-16.333 -19 -25 -35l-53 26c12.667 26 27.834 46.667 45.501 62s37.834 23 60.501 23c14 0 26 -2.5 36 -7.5
s21.333 -11.833 34 -20.5c11.333 -8 20 -13.5 26 -16.5s12.667 -4.5 20 -4.5c10 0 19 3.5 27 10.5s16.667 18.5 26 34.5l54 -27c-12.667 -27.333 -28.167 -47.833 -46.5 -61.5s-38.5 -20.5 -60.5 -20.5c-12.667 0 -24.167 2.33301 -34.5 7z" />
    <glyph glyph-name="hungarumlaut" unicode="&#x2dd;" 
d="M137 662l78 174l75 -36l-97 -164zM302 662l87 174l74 -39l-108 -163z" />
    <glyph glyph-name="gravecomb" unicode="&#x300;" horiz-adv-x="0" 
d="M-380 797l196 -112l-26 -45l-209 85z" />
    <glyph glyph-name="acutecomb" unicode="&#x301;" horiz-adv-x="0" 
d="M-216 797l38 -72l-209 -85l-26 45z" />
    <glyph glyph-name="uni0302" unicode="&#x302;" horiz-adv-x="0" 
d="M-271 748l134 -107l-37 -43l-126 81l-125 -81l-38 43l135 107h57z" />
    <glyph glyph-name="tildecomb" unicode="&#x303;" horiz-adv-x="0" 
d="M-275.5 666c-10.333 4.66699 -21.835 11.334 -34.502 20.001c-10 7.33301 -18.5 12.666 -25.5 15.999s-14.167 5 -21.5 5c-10.667 0 -20 -3.66699 -28 -11s-16.333 -19 -25 -35l-53 26c12.667 26 27.834 46.667 45.501 62s37.834 23 60.501 23c14 0 26 -2.5 36 -7.5
s21.333 -11.833 34 -20.5c11.333 -8 20 -13.5 26 -16.5s12.667 -4.5 20 -4.5c10 0 19 3.5 27 10.5s16.667 18.5 26 34.5l54 -27c-12.667 -27.333 -28.167 -47.833 -46.5 -61.5s-38.5 -20.5 -60.5 -20.5c-12.667 0 -24.167 2.33301 -34.5 7z" />
    <glyph glyph-name="uni0304" unicode="&#x304;" horiz-adv-x="0" 
d="M-165 622h-269v64h269v-64z" />
    <glyph glyph-name="uni0306" unicode="&#x306;" horiz-adv-x="0" 
d="M-402.5 618.5c-27.667 21.667 -43.5 50.5 -47.5 86.5l58 13c7.33301 -20.667 18.5 -37 33.5 -49s33.833 -18 56.5 -18c23.333 0 43 6 59 18s27.667 28.333 35 49l58 -13c-4 -36 -20.333 -64.833 -49 -86.5s-63 -32.5 -103 -32.5c-39.333 0 -72.833 10.833 -100.5 32.5z
" />
    <glyph glyph-name="uni0307" unicode="&#x307;" horiz-adv-x="0" 
d="M-256 702.5c11.333 -11 17 -25.167 17 -42.5s-5.66699 -31.5 -17 -42.5s-26 -16.5 -44 -16.5s-32.5 5.5 -43.5 16.5s-16.5 25.167 -16.5 42.5s5.5 31.5 16.5 42.5s25.5 16.5 43.5 16.5s32.667 -5.5 44 -16.5z" />
    <glyph glyph-name="uni0308" unicode="&#x308;" horiz-adv-x="0" 
d="M-443 663.5c-10.667 10.333 -16 22.833 -16 37.5c0 16 5.33301 29.167 16 39.5s23.667 15.5 39 15.5s28.166 -5.16699 38.499 -15.5s15.5 -23.5 15.5 -39.5c0 -15.333 -5.16699 -28 -15.5 -38s-23.166 -15 -38.499 -15s-28.333 5.16699 -39 15.5zM-235.5 663
c-10.333 10 -15.5 22.667 -15.5 38c0 16 5.16699 29.167 15.5 39.5s23.166 15.5 38.499 15.5s28.333 -5.16699 39 -15.5s16 -23.5 16 -39.5c0 -14.667 -5.33301 -27.167 -16 -37.5s-23.667 -15.5 -39 -15.5s-28.166 5 -38.499 15z" />
    <glyph glyph-name="uni030A" unicode="&#x30a;" horiz-adv-x="0" 
d="M-220.5 740c21 -20 31.5 -44.333 31.5 -73s-10.5 -52.834 -31.5 -72.501s-47.5 -29.5 -79.5 -29.5s-58.5 9.83301 -79.5 29.5s-31.5 43.834 -31.5 72.501s10.5 53 31.5 73s47.5 30 79.5 30s58.5 -10 79.5 -30zM-339.5 708c-9.66699 -10 -14.498 -23.667 -14.498 -41
c0 -18 4.83301 -32 14.5 -42s22.834 -15 39.501 -15c17.333 0 30.666 5 39.999 15s14 24 14 42c0 17.333 -4.83301 31 -14.5 41s-22.834 15 -39.501 15s-29.834 -5 -39.501 -15z" />
    <glyph glyph-name="uni030B" unicode="&#x30b;" horiz-adv-x="0" 
d="M-463 608l78 174l75 -36l-97 -164zM-298 608l87 174l74 -39l-108 -163z" />
    <glyph glyph-name="uni030C" unicode="&#x30c;" horiz-adv-x="0" 
d="M-174 731l37 -42l-134 -108h-57l-135 108l38 42l125 -80z" />
    <glyph glyph-name="uni030F" unicode="&#x30f;" horiz-adv-x="0" 
d="M-302 662l-53 -28l-108 163l74 39zM-137 662l-56 -26l-97 164l75 36z" />
    <glyph glyph-name="uni0313" unicode="&#x313;" horiz-adv-x="0" 
d="M-243 746.5c10.667 -10.333 16.001 -22.833 16.001 -37.5c0 -14 -5 -32.333 -15 -55l-51 -107h-50l29 117c-14.667 11.333 -22 26.333 -22 45c0 15.333 5.16699 28 15.5 38s23.166 15 38.499 15s28.333 -5.16699 39 -15.5z" />
    <glyph glyph-name="uni0314" unicode="&#x314;" horiz-adv-x="0" 
d="M-342 575.5c-10.667 10.333 -16.001 22.833 -16.001 37.5c0 14 5 32.333 15 55l51 107h50l-29 -117c14.667 -11.333 22 -26.333 22 -45c0 -15.333 -5.16699 -28 -15.5 -38s-23.166 -15 -38.499 -15s-28.333 5.16699 -39 15.5z" />
    <glyph glyph-name="uni0326" unicode="&#x326;" horiz-adv-x="0" 
d="M-258 -86.5c10.667 -10.333 16.001 -22.833 16.001 -37.5c0 -14 -5 -32.333 -15 -55l-51 -107h-50l29 117c-14.667 11.333 -22 26.333 -22 45c0 15.333 5.16699 28 15.5 38s23.166 15 38.499 15s28.333 -5.16699 39 -15.5z" />
    <glyph glyph-name="uni0327" unicode="&#x327;" horiz-adv-x="0" 
d="M-280 -117c-14 6 -35.6689 9.00195 -65.002 9.00195l8 113h58v-73c30.667 -2.66699 53.834 -11.834 69.501 -27.501s23.5 -34.167 23.5 -55.5c0 -31.333 -11.833 -55.5 -35.5 -72.5s-52.5 -25.5 -86.5 -25.5c-20 0 -39.167 2.16699 -57.5 6.5
s-34.166 10.166 -47.499 17.499l27 48c20 -10.667 42.333 -16 67 -16c40 0 60 13.667 60 41c0 17.333 -7 29 -21 35z" />
    <glyph glyph-name="uni0335" unicode="&#x335;" horiz-adv-x="0" 
d="M-129 278h-343v67h343v-67z" />
    <glyph glyph-name="uni0336" unicode="&#x336;" horiz-adv-x="0" 
d="M26 278h-651v67h651v-67z" />
    <glyph glyph-name="uni0342" unicode="&#x342;" horiz-adv-x="0" 
d="M-276.5 666c-10.333 4.66699 -21.835 11.334 -34.502 20.001c-10 7.33301 -18.5 12.666 -25.5 15.999s-14.167 5 -21.5 5c-10.667 0 -20 -3.66699 -28 -11s-16.333 -19 -25 -35l-53 26c12.667 26 27.834 46.667 45.501 62s37.834 23 60.501 23c14 0 26 -2.5 36 -7.5
s21.333 -11.833 34 -20.5c11.333 -8 20 -13.5 26 -16.5s12.667 -4.5 20 -4.5c10 0 19 3.5 27 10.5s16.667 18.5 26 34.5l54 -27c-12.667 -27.333 -28.167 -47.833 -46.5 -61.5s-38.5 -20.5 -60.5 -20.5c-12.667 0 -24.167 2.33301 -34.5 7z" />
    <glyph glyph-name="uni0345" unicode="&#x345;" horiz-adv-x="0" 
d="M-374 -160.5c-19.333 18.333 -29 43.167 -29 74.5v47h75v-45c0 -28 14 -42 42 -42c12 0 22 1.33301 30 4s17 7 27 13l33 -45c-30 -22.667 -62.333 -34 -97 -34s-61.667 9.16699 -81 27.5z" />
    <glyph glyph-name="uni0370" unicode="&#x370;" 
d="M486 327h-285v-327h-87v689h87v-291h285v-71z" />
    <glyph glyph-name="uni0371" unicode="&#x371;" 
d="M523 235h-302.999v-235h-84v354c0 36 -2.33301 67.333 -7 94s-11.334 53 -20.001 79l77 11c10 -22 18.167 -48.333 24.5 -79s9.5 -71 9.5 -121v-31h303v-72z" />
    <glyph glyph-name="uni0372" unicode="&#x372;" 
d="M36 689h529v-265h-76v189h-145v-613h-87v613h-145v-191h-76v267z" />
    <glyph glyph-name="uni0373" unicode="&#x373;" 
d="M568 457l-226 -1v-658l-84 -10v668h-137c-21.333 0 -36.833 -0.666992 -46.5 -2s-23.167 -4.33301 -40.5 -9l-15 67c17.333 6 32.833 10 46.5 12s33.167 3 58.5 3h444v-70z" />
    <glyph glyph-name="uni0374" unicode="&#x374;" 
d="M210 429l86 260h94l-115 -260h-65z" />
    <glyph glyph-name="uni0375" unicode="&#x375;" 
d="M390 127l-86 -260h-94l115 260h65z" />
    <glyph glyph-name="uni0376" unicode="&#x376;" 
d="M83 689l86 -0.00292969v-349c0 -57.333 -1.16699 -105.166 -3.5 -143.499s-5.83301 -78.166 -10.5 -119.499l250 612h112v-689h-86v349c0 88.667 4.66699 174.334 14 257.001l-248 -606h-114v689z" />
    <glyph glyph-name="uni0377" unicode="&#x377;" 
d="M502.5 81.5c7 -11.667 19.166 -21.499 36.499 -29.499l-29 -63c-38 10 -65 27.167 -81 51.5s-24 58.833 -24 103.5c0 26 2.33301 71.167 7 135.5s8.33398 113.166 11.001 146.499l-225 -426h-103v527h84v-247c0 -42 -1.33301 -81.167 -4 -117.5s-4 -56.166 -4 -59.499
l223 424h98v-391c0 -24.667 3.5 -42.834 10.5 -54.501z" />
    <glyph glyph-name="uni037A" unicode="&#x37a;" 
d="M226 -160.5c-19.333 18.333 -29 43.167 -29 74.5v47h75v-45c0 -28 14 -42 42 -42c12 0 22 1.33301 30 4s17 7 27 13l33 -45c-30 -22.667 -62.333 -34 -97 -34s-61.667 9.16699 -81 27.5z" />
    <glyph glyph-name="uni037B" unicode="&#x37b;" 
d="M170.5 2.5c-27 9 -53.5 23.167 -79.5 42.5l39 54c24 -14 45 -23.833 63 -29.5s40 -8.5 66 -8.5c50 0 89.167 16.333 117.5 49s42.5 83 42.5 151c0 137.333 -50 206 -150 206c-28.667 0 -53.334 -3 -74.001 -9s-41.667 -16 -63 -30l-41 54
c29.333 20.667 57.5 35.167 84.5 43.5s57.833 12.5 92.5 12.5c50 0 93.167 -11.333 129.5 -34s64.166 -55 83.499 -97s29 -91.333 29 -148c0 -56 -10.167 -104.333 -30.5 -145s-49.166 -71.667 -86.499 -93s-80.666 -32 -129.999 -32c-34.667 0 -65.5 4.5 -92.5 13.5z" />
    <glyph glyph-name="uni037C" unicode="&#x37c;" 
d="M476 107l40.001 -55.001c-22 -19.333 -49.333 -34.666 -82 -45.999s-64.334 -17 -95.001 -17c-78 0 -138.833 24.5 -182.5 73.5s-65.5 115.167 -65.5 198.5c0 52.667 9.83301 100 29.5 142s48.167 75 85.5 99s81.666 36 132.999 36c68 0 126.667 -20.667 176 -62l-41 -55
c-46 30.667 -91.333 46 -136 46c-47.333 0 -85.166 -17.5 -113.499 -52.5s-42.5 -86.167 -42.5 -153.5s14.167 -117.5 42.5 -150.5s66.5 -49.5 114.5 -49.5c46 0 91.667 15.333 137 46zM393.001 308.999c11.333 -11.333 17 -25.666 17 -42.999s-5.5 -31.666 -16.5 -42.999
s-25.833 -17 -44.5 -17c-18 0 -32.667 5.66699 -44 17s-17 25.666 -17 42.999s5.66699 31.666 17 42.999s26 17 44 17s32.667 -5.66699 44 -17z" />
    <glyph glyph-name="uni037D" unicode="&#x37d;" 
d="M170.5 2.5c-27 9 -53.5 23.167 -79.5 42.5l39 54c24 -14 45 -23.833 63 -29.5s40 -8.5 66 -8.5c50 0 89.167 16.333 117.5 49s42.5 83 42.5 151c0 137.333 -50 206 -150 206c-28.667 0 -53.334 -3 -74.001 -9s-41.667 -16 -63 -30l-41 54
c29.333 20.667 57.5 35.167 84.5 43.5s57.833 12.5 92.5 12.5c50 0 93.167 -11.333 129.5 -34s64.166 -55 83.499 -97s29 -91.333 29 -148c0 -56 -10.167 -104.333 -30.5 -145s-49.166 -71.667 -86.499 -93s-80.666 -32 -129.999 -32c-34.667 0 -65.5 4.5 -92.5 13.5z
M293 309c11.333 -11.333 17 -25.666 17 -42.999s-5.5 -31.666 -16.5 -42.999s-25.833 -17 -44.5 -17c-18 0 -32.667 5.66699 -44 17s-17 25.666 -17 42.999s5.66699 31.666 17 42.999s26 17 44 17s32.667 -5.66699 44 -17z" />
    <glyph glyph-name="uni037E" unicode="&#x37e;" 
d="M366 487.5c15.333 -15.667 23 -34.5 23 -56.5c0 -22.667 -7.66699 -42 -23 -58s-34.666 -24 -57.999 -24c-22.667 0 -41.667 8 -57 24s-23 35.333 -23 58c0 22 7.66699 40.833 23 56.5s34.333 23.5 57 23.5c23.333 0 42.666 -7.83301 57.999 -23.5zM365.5 142.5
c15.667 -15.667 23.499 -34.834 23.499 -57.501c0 -24 -6.33301 -50.333 -19 -79l-82 -186h-76l48 198c-10 7.33301 -17.833 17 -23.5 29s-8.5 24.667 -8.5 38c0 22.667 7.66699 41.834 23 57.501s34.333 23.5 57 23.5s41.834 -7.83301 57.501 -23.5z" />
    <glyph glyph-name="uni037F" unicode="&#x37f;" 
d="M497 229c0 -67.333 -18.5 -124.334 -55.5 -171.001s-97.167 -70 -180.5 -70c-34 0 -67.167 5.33301 -99.5 16s-61.833 26.334 -88.5 47.001l38 57c50 -31.333 99.667 -47 149 -47c48 0 85 15.167 111 45.5s39 72.5 39 126.5v385h-204v71h291v-460z" />
    <glyph glyph-name="tonos" unicode="&#x384;" 
d="M274 808l89 -17l-65 -195l-60 10z" />
    <glyph glyph-name="dieresistonos" unicode="&#x385;" 
d="M298 914l89 -19l-59 -167l-59 9zM236.5 719.5c10.333 -10.333 15.5 -23.166 15.5 -38.499s-5.16699 -28.166 -15.5 -38.499s-23.166 -15.5 -38.499 -15.5s-28.333 5.16699 -39 15.5s-16 23.166 -16 38.499s5.33301 28.166 16 38.499s23.667 15.5 39 15.5
s28.166 -5.16699 38.499 -15.5zM440 719.5c10.667 -10.333 16 -23.166 16 -38.499s-5.33301 -28.166 -16 -38.499s-23.667 -15.5 -39 -15.5s-28.166 5.16699 -38.499 15.5s-15.5 23.166 -15.5 38.499s5.16699 28.166 15.5 38.499s23.166 15.5 38.499 15.5
s28.333 -5.16699 39 -15.5z" />
    <glyph glyph-name="Alphatonos" unicode="&#x386;" 
d="M434 176h-273l-55 -176h-86l225 689h110l224 -689h-90zM184 248h227l-113 367zM90 705l99 -16l-71 -196l-65 10z" />
    <glyph glyph-name="anoteleia" unicode="&#x387;" 
d="M237.5 404.5c17 17 37.833 25.5 62.5 25.5c25.333 0 46.333 -8.5 63 -25.5s25 -37.833 25 -62.5c0 -25.333 -8.33301 -46.333 -25 -63s-37.667 -25 -63 -25c-24.667 0 -45.5 8.5 -62.5 25.5s-25.5 37.833 -25.5 62.5s8.5 45.5 25.5 62.5z" />
    <glyph glyph-name="Epsilontonos" unicode="&#x388;" 
d="M212 617v-232h256v-71h-256v-244h314v-70h-400v689h391l-10 -72h-295zM8 705l99 -16l-71 -196l-65 10z" />
    <glyph glyph-name="Etatonos" unicode="&#x389;" 
d="M430 0v327h-260v-327h-87v689h87v-291h260v291h87v-689h-87zM-35 705l99 -16l-71 -196l-65 10z" />
    <glyph glyph-name="Iotatonos" unicode="&#x38a;" 
d="M497 689v-70h-153v-550h153v-69h-394v69h153v550h-153v70h394zM-15 705l99 -16l-71 -196l-65 10z" />
    <glyph glyph-name="Omicrontonos" unicode="&#x38c;" 
d="M487.5 86c-43.667 -64.667 -106.167 -96.999 -187.5 -96.999c-82 0 -144.667 31.667 -188 95s-65 149.666 -65 258.999c0 70 9.66699 132 29 186s48 96 86 126s84 45 138 45c81.333 0 143.833 -32.167 187.5 -96.5s65.5 -150.833 65.5 -259.5
c0 -107.333 -21.833 -193.333 -65.5 -258zM424 556.001c-26 47.333 -67.333 71 -124 71s-98 -23.833 -124 -71.5s-39 -118.5 -39 -212.5c0 -93.333 13.167 -163.5 39.5 -210.5s67.5 -70.5 123.5 -70.5c56.667 0 98 23.5 124 70.5s39 117.5 39 211.5s-13 164.667 -39 212z
M-3 705.001l99 -16l-71 -196l-65 10z" />
    <glyph glyph-name="Upsilontonos" unicode="&#x38e;" 
d="M344 266v-266h-88v265l-233 424h96l183 -346l185 346h90zM-85 705l99 -16l-71 -196l-65 10z" />
    <glyph glyph-name="Omegatonos" unicode="&#x38f;" 
d="M177.5 561c-27 -44 -40.501 -114.668 -40.501 -212.001c0 -77.333 10.833 -138.833 32.5 -184.5s53.834 -78.834 96.501 -99.501v-65h-208v70h119c-43.333 22.667 -75.833 56.667 -97.5 102s-32.5 104.333 -32.5 177c0 73.333 10.333 136.5 31 189.5s50 93.167 88 120.5
s82.667 41 134 41s96 -13.667 134 -41s67.333 -67.5 88 -120.5s31 -116.167 31 -189.5c0 -72 -11 -130.667 -33 -176s-54.667 -79.666 -98 -102.999h120v-70h-207v65c42 20.667 73.833 53.834 95.5 99.501s32.5 107.167 32.5 184.5c0 97.333 -13.667 168 -41 212
s-68 66 -122 66c-54.667 0 -95.5 -22 -122.5 -66zM-3.00098 704.999l99 -16l-71 -196l-65 10z" />
    <glyph glyph-name="iotadieresistonos" unicode="&#x390;" 
d="M63 455l9.00098 71.999h252v-397c0 -47.333 29 -71 87 -71c28 0 57.667 6 89 18l22 -61c-12.667 -7.33301 -30.834 -13.666 -54.501 -18.999s-47.167 -8 -70.5 -8c-48 0 -86.167 13.333 -114.5 40s-42.5 63.667 -42.5 111v315h-177zM282.001 913.999l89 -19l-59 -167
l-59 9zM220.501 719.499c10.333 -10.333 15.5 -23.166 15.5 -38.499s-5.16699 -28.166 -15.5 -38.499s-23.166 -15.5 -38.499 -15.5s-28.333 5.16699 -39 15.5s-16 23.166 -16 38.499s5.33301 28.166 16 38.499s23.667 15.5 39 15.5s28.166 -5.16699 38.499 -15.5z
M424.001 719.499c10.667 -10.333 16 -23.166 16 -38.499s-5.33301 -28.166 -16 -38.499s-23.667 -15.5 -39 -15.5s-28.166 5.16699 -38.499 15.5s-15.5 23.166 -15.5 38.499s5.16699 28.166 15.5 38.499s23.166 15.5 38.499 15.5s28.333 -5.16699 39 -15.5z" />
    <glyph glyph-name="Alpha" unicode="&#x391;" 
d="M434 176h-273l-55 -176h-86l225 689h110l224 -689h-90zM184 248h227l-113 367z" />
    <glyph glyph-name="Beta" unicode="&#x392;" 
d="M465.5 46c-49.667 -30.667 -110.832 -46 -183.499 -46h-186v689h170c70 0 128.167 -13.5 174.5 -40.5s69.5 -71.5 69.5 -133.5c0 -41.333 -12.333 -74.5 -37 -99.5s-55.334 -41.833 -92.001 -50.5c106 -18 159 -74.333 159 -169c0 -69.333 -24.833 -119.333 -74.5 -150z
M386.002 592.5c-23.333 17 -56.667 25.5 -100 25.5h-103v-222h111c84.667 0 127 38 127 114c0 38 -11.667 65.5 -35 82.5zM408.501 295c-26.333 19.333 -62.5 29 -108.5 29h-117v-252h114c42 0 77.667 8.66699 107 26s44 49 44 95c0 48.667 -13.167 82.667 -39.5 102z" />
    <glyph glyph-name="Gamma" unicode="&#x393;" 
d="M544 689l-9 -77h-312v-612h-87v689h408z" />
    <glyph glyph-name="uni0394" unicode="&#x394;" 
d="M355 689l224 -689h-559l225 689h110zM298 613l-169 -542h337z" />
    <glyph glyph-name="Epsilon" unicode="&#x395;" 
d="M212 617v-232h256v-71h-256v-244h314v-70h-400v689h391l-10 -72h-295z" />
    <glyph glyph-name="Zeta" unicode="&#x396;" 
d="M167 75h360l-10 -75h-445v70l363 544h-327v75h420v-72z" />
    <glyph glyph-name="Eta" unicode="&#x397;" 
d="M430 0v327h-260v-327h-87v689h87v-291h260v291h87v-689h-87z" />
    <glyph glyph-name="Theta" unicode="&#x398;" 
d="M487.5 86c-43.667 -64.667 -106.167 -96.999 -187.5 -96.999c-82 0 -144.667 31.667 -188 95s-65 149.666 -65 258.999c0 70 9.66699 132 29 186s48 96 86 126s84 45 138 45c81.333 0 143.833 -32.167 187.5 -96.5s65.5 -150.833 65.5 -259.5
c0 -107.333 -21.833 -193.333 -65.5 -258zM423.5 556.001c-25.667 47.333 -66.832 71 -123.499 71s-97.834 -23.833 -123.501 -71.5s-38.5 -118.5 -38.5 -212.5c0 -93.333 13.167 -163.5 39.5 -210.5s67.166 -70.5 122.499 -70.5c56.667 0 97.834 23.5 123.501 70.5
s38.5 117.5 38.5 211.5s-12.833 164.667 -38.5 212zM402.002 316.001h-205v72h205v-72z" />
    <glyph glyph-name="Iota" unicode="&#x399;" 
d="M497 689v-70h-153v-550h153v-69h-394v69h153v550h-153v70h394z" />
    <glyph glyph-name="Kappa" unicode="&#x39a;" 
d="M192 0h-87v689h87v-689zM197 368l270 321h101l-269 -316l288 -373h-109z" />
    <glyph glyph-name="Lambda" unicode="&#x39b;" 
d="M355 689l219 -689h-90l-186 608l-187 -608h-87l221 689h110z" />
    <glyph glyph-name="Mu" unicode="&#x39c;" 
d="M570 0h-84l-21 360c-4 63.333 -6 146.333 -6 249l-116 -485h-87l-124 485c1.33301 -24 2 -56 2 -96c0 -61.333 -1.33301 -112.333 -4 -153l-18 -360h-82l39 689h121l112 -472l107 472h122z" />
    <glyph glyph-name="Nu" unicode="&#x39d;" 
d="M152 605c0 -4.66699 2 -33.667 6 -87s6 -111 6 -173v-345h-81v689h118l247 -608l-2 36c-6.66699 82 -10 157.667 -10 227v345h81v-689h-122z" />
    <glyph glyph-name="Xi" unicode="&#x39e;" 
d="M513 689l-12 -80h-424v80h436zM464 389v-80h-337v80h337zM523 81v-81h-446v81h446z" />
    <glyph glyph-name="Omicron" unicode="&#x39f;" 
d="M487.5 86c-43.667 -64.667 -106.167 -96.999 -187.5 -96.999c-82 0 -144.667 31.667 -188 95s-65 149.666 -65 258.999c0 70 9.66699 132 29 186s48 96 86 126s84 45 138 45c81.333 0 143.833 -32.167 187.5 -96.5s65.5 -150.833 65.5 -259.5
c0 -107.333 -21.833 -193.333 -65.5 -258zM424 556.001c-26 47.333 -67.333 71 -124 71s-98 -23.833 -124 -71.5s-39 -118.5 -39 -212.5c0 -93.333 13.167 -163.5 39.5 -210.5s67.5 -70.5 123.5 -70.5c56.667 0 98 23.5 124 70.5s39 117.5 39 211.5s-13 164.667 -39 212z
" />
    <glyph glyph-name="Pi" unicode="&#x3a0;" 
d="M430 0v613h-260v-613h-87v689h434v-689h-87z" />
    <glyph glyph-name="Rho" unicode="&#x3a1;" 
d="M486 309c-47.333 -35.333 -112.333 -53 -195 -53h-89v-256h-86v689h175c84.667 0 150.167 -17.667 196.5 -53s69.5 -88.333 69.5 -159c0 -76.667 -23.667 -132.667 -71 -168zM420.5 585.5c-29 23 -68.5 34.5 -118.5 34.5h-100v-295h97c52 0 92.5 11.333 121.5 34
s43.5 61.667 43.5 117c0 50 -14.5 86.5 -43.5 109.5z" />
    <glyph glyph-name="Sigma" unicode="&#x3a3;" 
d="M404 315l-229 -242h352v-73h-454v73l255 271l-255 270v75h454v-74h-354l231 -238v-62z" />
    <glyph glyph-name="Tau" unicode="&#x3a4;" 
d="M342 614v-614h-87v614h-215v75h519l-9 -75h-208z" />
    <glyph glyph-name="Upsilon" unicode="&#x3a5;" 
d="M344 266v-266h-88v265l-233 424h96l183 -346l185 346h90z" />
    <glyph glyph-name="Phi" unicode="&#x3a6;" 
d="M342 610c84 -4.66699 146.167 -28.833 186.5 -72.5s60.5 -107.167 60.5 -190.5c0 -85.333 -21 -150.333 -63 -195s-103.333 -68.334 -184 -71.001v-81h-84v81c-80 2.66699 -141.167 26.334 -183.5 71.001s-63.5 109.667 -63.5 195c0 82.667 20.333 146 61 190
s102.667 68.333 186 73v79h84v-79zM136.5 498.501c-25.667 -29.667 -38.5 -80.168 -38.5 -151.501c0 -68.667 12.667 -118.667 38 -150s66.333 -48.666 123 -51.999v400c-56 -1.33301 -96.833 -16.833 -122.5 -46.5zM341 145c56.667 3.33301 97.667 20.832 123 52.499
s38 81.5 38 149.5c0 72 -12.833 122.833 -38.5 152.5s-66.5 44.834 -122.5 45.501v-400z" />
    <glyph glyph-name="Chi" unicode="&#x3a7;" 
d="M49 689h100l151 -265l152 265h93l-195 -317l219 -372h-100l-171 311l-174 -311h-93l216 367z" />
    <glyph glyph-name="Psi" unicode="&#x3a8;" 
d="M256 192c-81.333 6 -142.167 30.334 -182.5 73.001s-60.5 97.667 -60.5 165v259h89v-254c0 -52.667 11.667 -92.834 35 -120.501s63.333 -43.834 120 -48.501v423h87v-422c55.333 4.66699 94.833 20.834 118.5 48.501s35.5 67.5 35.5 119.5v254h89v-259
c0 -66.667 -20.333 -121.167 -61 -163.5s-101 -66.833 -181 -73.5v-193h-89v192z" />
    <glyph glyph-name="uni03A9" unicode="&#x3a9;" 
d="M177.5 561c-27 -44 -40.501 -114.668 -40.501 -212.001c0 -77.333 10.833 -138.833 32.5 -184.5s53.834 -78.834 96.501 -99.501v-65h-208v70h119c-43.333 22.667 -75.833 56.667 -97.5 102s-32.5 104.333 -32.5 177c0 73.333 10.333 136.5 31 189.5s50 93.167 88 120.5
s82.667 41 134 41s96 -13.667 134 -41s67.333 -67.5 88 -120.5s31 -116.167 31 -189.5c0 -72 -11 -130.667 -33 -176s-54.667 -79.666 -98 -102.999h120v-70h-207v65c42 20.667 73.833 53.834 95.5 99.501s32.5 107.167 32.5 184.5c0 97.333 -13.667 168 -41 212
s-68 66 -122 66c-54.667 0 -95.5 -22 -122.5 -66z" />
    <glyph glyph-name="Iotadieresis" unicode="&#x3aa;" 
d="M497 689v-70h-153v-550h153v-69h-394v69h153v550h-153v70h394zM157 782.5c-10.667 10.333 -16 22.833 -16 37.5c0 16 5.33301 29.167 16 39.5s23.667 15.5 39 15.5s28.166 -5.16699 38.499 -15.5s15.5 -23.5 15.5 -39.5c0 -15.333 -5.16699 -28 -15.5 -38
s-23.166 -15 -38.499 -15s-28.333 5.16699 -39 15.5zM364.5 782c-10.333 10 -15.5 22.667 -15.5 38c0 16 5.16699 29.167 15.5 39.5s23.166 15.5 38.499 15.5s28.333 -5.16699 39 -15.5s16 -23.5 16 -39.5c0 -14.667 -5.33301 -27.167 -16 -37.5s-23.667 -15.5 -39 -15.5
s-28.166 5 -38.499 15z" />
    <glyph glyph-name="Upsilondieresis" unicode="&#x3ab;" 
d="M344 266v-266h-88v265l-233 424h96l183 -346l185 346h90zM160 782.5c-10.667 10.333 -16 22.833 -16 37.5c0 16 5.33301 29.167 16 39.5s23.667 15.5 39 15.5s28.166 -5.16699 38.499 -15.5s15.5 -23.5 15.5 -39.5c0 -15.333 -5.16699 -28 -15.5 -38
s-23.166 -15 -38.499 -15s-28.333 5.16699 -39 15.5zM367.5 782c-10.333 10 -15.5 22.667 -15.5 38c0 16 5.16699 29.167 15.5 39.5s23.166 15.5 38.499 15.5s28.333 -5.16699 39 -15.5s16 -23.5 16 -39.5c0 -14.667 -5.33301 -27.167 -16 -37.5s-23.667 -15.5 -39 -15.5
s-28.166 5 -38.499 15z" />
    <glyph glyph-name="alphatonos" unicode="&#x3ac;" 
d="M365 500.5c26.667 -25 45.3311 -67.5 55.998 -127.5l27 154h77l-51 -281l25 -136c2.66699 -13.333 7.16699 -23.833 13.5 -31.5s16.833 -14.5 31.5 -20.5l-30 -71c-22.667 4 -42.667 14.333 -60 31s-28 38.334 -32 65.001l-9 56c-33.333 -100 -87.666 -150 -162.999 -150
c-61.333 0 -108.5 22.667 -141.5 68s-49.5 112.666 -49.5 201.999c0 84 16.833 151.5 50.5 202.5s82.167 76.5 145.5 76.5c46.667 0 83.334 -12.5 110.001 -37.5zM177.997 415.5c-19.333 -36.333 -29 -88.501 -29 -156.501c0 -69.333 9 -120.333 27 -153s45 -49 81 -49
c30 0 57.333 14.833 82 44.5s44.667 84.834 60 165.501c-9.33301 52.667 -20.333 93.667 -33 123s-27.5 50 -44.5 62s-37.167 18 -60.5 18c-36 0 -63.667 -18.167 -83 -54.5zM283.997 807.999l89 -17l-65 -195l-60 10z" />
    <glyph glyph-name="epsilontonos" unicode="&#x3ad;" 
d="M301 241c-44.667 0 -76.998 -6.83496 -96.998 -20.502s-30 -35.5 -30 -65.5s12.667 -53.667 38 -71s60 -26 104 -26c69.333 0 131 19.333 185 58l45 -57c-27.333 -20.667 -61.333 -37.5 -102 -50.5s-85.334 -19.5 -134.001 -19.5c-66.667 0 -121.167 14.333 -163.5 43
s-63.5 68.667 -63.5 120c0 38.667 11.167 68.5 33.5 89.5s55.166 34.5 98.499 40.5c-36 8 -63.5 22 -82.5 42s-28.5 44.333 -28.5 73c0 44.667 20.167 79.334 60.5 104.001s90.833 37 151.5 37c36 0 72 -4.5 108 -13.5s66.667 -22.5 92 -40.5l-42 -52
c-43.333 25.333 -95 38 -155 38c-41.333 0 -73 -6.66699 -95 -20s-33 -33.666 -33 -60.999c0 -24.667 10.333 -44.167 31 -58.5s49 -21.5 85 -21.5h94l-10 -68h-90zM323.002 807.998l89 -17l-65 -195l-60 10z" />
    <glyph glyph-name="etatonos" unicode="&#x3ae;" 
d="M500 382l-0.000976562 -584.003l-84 -10v532c0 39.333 -2 69.333 -6 90s-12.5 36 -25.5 46s-32.833 15 -59.5 15c-28 0 -54.667 -8.66699 -80 -26s-45.666 -37.666 -60.999 -60.999v-384h-84v354c0 31.333 -2.5 60.833 -7.5 88.5s-11.5 55.834 -19.5 84.501l79 11
c4.66699 -8.66699 9.5 -22.167 14.5 -40.5s8.16699 -34.166 9.5 -47.499c21.333 28 48 49.667 80 65s64 23 96 23c98.667 0 148 -52 148 -156zM305.999 807.997l89 -17l-65 -195l-60 10z" />
    <glyph glyph-name="iotatonos" unicode="&#x3af;" 
d="M63 455l9.00098 71.999h252v-397c0 -47.333 29 -71 87 -71c28 0 57.667 6 89 18l22 -61c-12.667 -7.33301 -30.834 -13.666 -54.501 -18.999s-47.167 -8 -70.5 -8c-48 0 -86.167 13.333 -114.5 40s-42.5 63.667 -42.5 111v315h-177zM291.001 807.999l89 -17l-65 -195
l-60 10z" />
    <glyph glyph-name="upsilondieresistonos" unicode="&#x3b0;" 
d="M525 255c0 -59.333 -11.167 -108.999 -33.5 -148.999s-51.333 -69.5 -87 -88.5s-74.5 -28.5 -116.5 -28.5c-55.333 0 -100 14.667 -134 44s-51 72 -51 128v366h84v-358c0 -36.667 9 -64.334 27 -83.001s43.667 -28 77 -28c41.333 0 76.5 15.667 105.5 47
s43.5 84 43.5 158c0 88.667 -8.66699 176.667 -26 264h86c16.667 -91.333 25 -182 25 -272zM298 914.001l89 -19l-59 -167l-59 9zM236.5 719.501c10.333 -10.333 15.5 -23.166 15.5 -38.499s-5.16699 -28.166 -15.5 -38.499s-23.166 -15.5 -38.499 -15.5
s-28.333 5.16699 -39 15.5s-16 23.166 -16 38.499s5.33301 28.166 16 38.499s23.667 15.5 39 15.5s28.166 -5.16699 38.499 -15.5zM440 719.501c10.667 -10.333 16 -23.166 16 -38.499s-5.33301 -28.166 -16 -38.499s-23.667 -15.5 -39 -15.5s-28.166 5.16699 -38.499 15.5
s-15.5 23.166 -15.5 38.499s5.16699 28.166 15.5 38.499s23.166 15.5 38.499 15.5s28.333 -5.16699 39 -15.5z" />
    <glyph glyph-name="alpha" unicode="&#x3b1;" 
d="M365 500.5c26.667 -25 45.3311 -67.5 55.998 -127.5l27 154h77l-51 -281l25 -136c2.66699 -13.333 7.16699 -23.833 13.5 -31.5s16.833 -14.5 31.5 -20.5l-30 -71c-22.667 4 -42.667 14.333 -60 31s-28 38.334 -32 65.001l-9 56c-33.333 -100 -87.666 -150 -162.999 -150
c-61.333 0 -108.5 22.667 -141.5 68s-49.5 112.666 -49.5 201.999c0 84 16.833 151.5 50.5 202.5s82.167 76.5 145.5 76.5c46.667 0 83.334 -12.5 110.001 -37.5zM177.997 415.5c-19.333 -36.333 -29 -88.501 -29 -156.501c0 -69.333 9 -120.333 27 -153s45 -49 81 -49
c30 0 57.333 14.833 82 44.5s44.667 84.834 60 165.501c-9.33301 52.667 -20.333 93.667 -33 123s-27.5 50 -44.5 62s-37.167 18 -60.5 18c-36 0 -63.667 -18.167 -83 -54.5z" />
    <glyph glyph-name="beta" unicode="&#x3b2;" 
d="M547 202c0 -42 -10.1689 -79.167 -30.502 -111.5s-47.5 -57.333 -81.5 -75s-70.667 -26.5 -110 -26.5c-56 0 -106 17 -150 51v-241l-84 -11v752c0 64.667 17.833 115.5 53.5 152.5s84.834 55.5 147.501 55.5c36.667 0 70.334 -7 101.001 -21s55 -34.5 73 -61.5
s27 -58.5 27 -94.5c0 -50 -14.167 -89 -42.5 -117s-64.5 -44.667 -108.5 -50c136.667 -14 205 -81.333 205 -202zM419.998 96c27.333 25.333 41.002 60.666 41.002 105.999c0 54 -15.333 94.833 -46 122.5s-75.334 41.5 -134.001 41.5h-54l10 65h53
c37.333 0 67.5 10.833 90.5 32.5s34.5 54.834 34.5 99.501c0 39.333 -11.167 69 -33.5 89s-51.833 30 -88.5 30c-78.667 0 -118 -47.667 -118 -143v-430c18 -18 38.5 -31 61.5 -39s49.833 -12 80.5 -12c41.333 0 75.666 12.667 102.999 38z" />
    <glyph glyph-name="gamma" unicode="&#x3b3;" 
d="M557 519l-217 -501.998c-15.333 -36.667 -23 -74.334 -23 -113.001c0 -25.333 4 -60.333 12 -105l-68 -11c-17.333 34.667 -26 73.667 -26 117c0 39.333 7 77.666 21 114.999c-23.333 99.333 -55 196.166 -95 290.499s-79.333 159.833 -118 196.5l85 30
c34.667 -40 67.667 -98.167 99 -174.5s57 -161.166 77 -254.499l168 430z" />
    <glyph glyph-name="delta" unicode="&#x3b4;" 
d="M408 734c26 -10 51.002 -25.002 75.002 -45.002l-42 -50c-21.333 16.667 -42 28.334 -62 35.001s-42 10 -66 10c-29.333 0 -52.5 -6.16699 -69.5 -18.5s-25.5 -29.5 -25.5 -51.5c0 -15.333 3.83301 -27.833 11.5 -37.5s19.167 -18.5 34.5 -26.5s39.666 -19 72.999 -33
c47.333 -19.333 85.5 -40.5 114.5 -63.5s50.833 -51.333 65.5 -85s22 -75.167 22 -124.5c0 -45.333 -9.5 -87.5 -28.5 -126.5s-46.333 -70.167 -82 -93.5s-77.5 -35 -125.5 -35s-89.667 11.333 -125 34s-62.5 53.334 -81.5 92.001s-28.5 81.334 -28.5 128.001
c0 58 14.667 107.667 44 149s67.666 71.333 114.999 90c-34.667 17.333 -59.5 36.333 -74.5 57s-22.5 44.667 -22.5 72c0 43.333 17.5 77.166 52.5 101.499s80.167 36.5 135.5 36.5c34 0 64 -5 90 -15zM189.502 370.998c-20.333 -34 -30.5 -77 -30.5 -129
c0 -57.333 12.667 -102.333 38 -135s60.666 -49 105.999 -49c46 0 81.667 16 107 48s38 77.667 38 137c0 40 -4.83301 72.333 -14.5 97s-25.5 45.5 -47.5 62.5s-53.667 34.167 -95 51.5c-47.333 -21.333 -81.166 -49 -101.499 -83z" />
    <glyph glyph-name="epsilon" unicode="&#x3b5;" 
d="M301 241c-44.667 0 -76.998 -6.83496 -96.998 -20.502s-30 -35.5 -30 -65.5s12.667 -53.667 38 -71s60 -26 104 -26c69.333 0 131 19.333 185 58l45 -57c-27.333 -20.667 -61.333 -37.5 -102 -50.5s-85.334 -19.5 -134.001 -19.5c-66.667 0 -121.167 14.333 -163.5 43
s-63.5 68.667 -63.5 120c0 38.667 11.167 68.5 33.5 89.5s55.166 34.5 98.499 40.5c-36 8 -63.5 22 -82.5 42s-28.5 44.333 -28.5 73c0 44.667 20.167 79.334 60.5 104.001s90.833 37 151.5 37c36 0 72 -4.5 108 -13.5s66.667 -22.5 92 -40.5l-42 -52
c-43.333 25.333 -95 38 -155 38c-41.333 0 -73 -6.66699 -95 -20s-33 -33.666 -33 -60.999c0 -24.667 10.333 -44.167 31 -58.5s49 -21.5 85 -21.5h94l-10 -68h-90z" />
    <glyph glyph-name="zeta" unicode="&#x3b6;" 
d="M530 682c-80 -69.333 -142.5 -126.667 -187.5 -172s-79.5 -88.666 -103.5 -129.999s-36 -83 -36 -125c0 -32.667 5.16699 -58.667 15.5 -78s26.333 -35.333 48 -48s52.834 -25.667 93.501 -39c41.333 -14 72.666 -25.833 93.999 -35.5s38.166 -22.334 50.499 -38.001
s18.5 -36.167 18.5 -61.5c0 -37.333 -12.833 -70.333 -38.5 -99s-65.167 -55 -118.5 -79l-34 61c33.333 16.667 58.333 33 75 49s25 35.667 25 59c0 12.667 -3.33301 22.834 -10 30.501s-17.167 14.5 -31.5 20.5s-38.166 14.667 -71.499 26c-50 17.333 -89.667 35 -119 53
s-51.5 41 -66.5 69s-22.5 63.667 -22.5 107c0 45.333 11.833 90 35.5 134s60 89.5 109 136.5s113.5 100.167 193.5 159.5c-12 -4.66699 -32.5 -7.83398 -61.5 -9.50098s-57.167 -2.5 -84.5 -2.5h-150l10 69h356z" />
    <glyph glyph-name="eta" unicode="&#x3b7;" 
d="M500 382l-0.000976562 -584.003l-84 -10v532c0 39.333 -2 69.333 -6 90s-12.5 36 -25.5 46s-32.833 15 -59.5 15c-28 0 -54.667 -8.66699 -80 -26s-45.666 -37.666 -60.999 -60.999v-384h-84v354c0 31.333 -2.5 60.833 -7.5 88.5s-11.5 55.834 -19.5 84.501l79 11
c4.66699 -8.66699 9.5 -22.167 14.5 -40.5s8.16699 -34.166 9.5 -47.499c21.333 28 48 49.667 80 65s64 23 96 23c98.667 0 148 -52 148 -156z" />
    <glyph glyph-name="theta" unicode="&#x3b8;" 
d="M469 650c38.667 -66 58.001 -158.667 58.001 -278c0 -78 -8.83301 -145.667 -26.5 -203s-43.5 -101.666 -77.5 -132.999s-75 -47 -123 -47c-73.333 0 -129.5 33.833 -168.5 101.5s-58.5 161.167 -58.5 280.5c0 117.333 19.667 209.666 59 276.999s95.666 101 168.999 101
s129.333 -33 168 -99zM198.001 613.5c-22.667 -43.667 -35 -112.832 -37 -207.499h278c-2 95.333 -14 164.666 -36 207.999s-56 65 -102 65s-80.333 -21.833 -103 -65.5zM161.001 339.002c2.66699 -98 15.168 -169.333 37.501 -214s56.166 -67 101.499 -67
s79 22.167 101 66.5s34.333 115.833 37 214.5h-277z" />
    <glyph glyph-name="iota" unicode="&#x3b9;" 
d="M63 455l9.00098 71.999h252v-397c0 -47.333 29 -71 87 -71c28 0 57.667 6 89 18l22 -61c-12.667 -7.33301 -30.834 -13.666 -54.501 -18.999s-47.167 -8 -70.5 -8c-48 0 -86.167 13.333 -114.5 40s-42.5 63.667 -42.5 111v315h-177z" />
    <glyph glyph-name="kappa" unicode="&#x3ba;" 
d="M527 489l-224.001 -203.999l147 -156c22 -22.667 40.833 -39 56.5 -49s33.834 -17.333 54.501 -22l-30 -69c-26.667 4 -50 12.167 -70 24.5s-41 30.166 -63 53.499l-198 215l257 256zM195.999 325.001v-325h-84v340c0 62 -8.33301 124.333 -25 187h82
c18 -50.667 27 -118 27 -202z" />
    <glyph glyph-name="lambda" unicode="&#x3bb;" 
d="M276 527c-14.667 49.333 -34.499 85.999 -59.499 109.999s-63.5 40 -115.5 48l13 66c52 -7.33301 94.5 -20.5 127.5 -39.5s59.667 -45.333 80 -79s37.166 -78.167 50.499 -133.5c30.667 -130 60 -232.667 88 -308s61 -132 99 -170l-87 -32
c-36 45.333 -68.333 106.833 -97 184.5s-54.667 173.834 -78 288.501l-168 -475l-81 18l194 522h34z" />
    <glyph glyph-name="uni03BC" unicode="&#x3bc;" 
d="M484 168c0 -52 9.00195 -108.001 27.002 -168.001l-79 -12c-4.66699 8.66699 -9.5 21.667 -14.5 39s-8.16699 32.666 -9.5 45.999c-15.333 -25.333 -36 -45.833 -62 -61.5s-52.333 -23.5 -79 -23.5s-47.334 3.83301 -62.001 11.5s-28.667 20.834 -42 39.501
c6 -43.333 9 -72.666 9 -87.999v-153l-84 -10v739h84v-296c0 -40 2 -71.5 6 -94.5s12.5 -41 25.5 -54s32.167 -19.5 57.5 -19.5c29.333 0 55.666 7.33301 78.999 22s43.333 33.667 60 57v385h84v-359z" />
    <glyph glyph-name="nu" unicode="&#x3bd;" 
d="M143 311c-36 96 -73.002 161 -111.002 195l84 31c36.667 -42 69.834 -103.667 99.501 -185s55.834 -174 78.501 -278l168 464l85 -20l-208 -518h-102c-26.667 111.333 -58 215 -94 311z" />
    <glyph glyph-name="xi" unicode="&#x3be;" 
d="M552 690l-41 -50.0059c-22 14.667 -46.5 25.667 -73.5 33s-53.5 11 -79.5 11c-43.333 0 -76.5 -8.66699 -99.5 -26s-34.5 -42.666 -34.5 -75.999c0 -32.667 10.5 -58 31.5 -76s50.167 -27 87.5 -27h122l-11 -76h-119c-44 0 -79.167 -12.833 -105.5 -38.5
s-39.5 -57.5 -39.5 -95.5c0 -34.667 6.33301 -62.167 19 -82.5s31.667 -36.666 57 -48.999s63.333 -26.5 114 -42.5c42.667 -13.333 75.5 -25.833 98.5 -37.5s40 -25.334 51 -41.001s16.5 -36.167 16.5 -61.5c0 -37.333 -12.833 -70.166 -38.5 -98.499
s-65.167 -54.833 -118.5 -79.5l-34 61c34 16 59.167 32.5 75.5 49.5s24.5 37.5 24.5 61.5c0 12 -2.66699 21.5 -8 28.5s-14.166 13.5 -26.499 19.5s-31.833 13.333 -58.5 22c-58.667 18 -106.334 36.333 -143.001 55s-65.834 43.334 -87.501 74.001s-32.5 69.667 -32.5 117
c0 36.667 8.33301 67.834 25 93.501s37.167 45.334 61.5 59.001s48.166 22.5 71.499 26.5c-36.667 14 -66 31.333 -88 52s-33 48.667 -33 84c0 34 9.83301 63.833 29.5 89.5s46.334 45.334 80.001 59.001s70.834 20.5 111.501 20.5c74.667 0 139.667 -19.667 195 -59z" />
    <glyph glyph-name="omicron" unicode="&#x3bf;" 
d="M468.5 464.5c39 -49 58.499 -115.833 58.499 -200.5c0 -82.667 -19.833 -149.167 -59.5 -199.5s-95.5 -75.5 -167.5 -75.5c-72.667 0 -128.667 24.5 -168 73.5s-59 115.833 -59 200.5c0 83.333 19.833 150 59.5 200s95.834 75 168.501 75s128.5 -24.5 167.5 -73.5z
M197.999 418c-22.667 -34 -34.001 -85.667 -34.001 -155s11.167 -120.833 33.5 -154.5s56.5 -50.5 102.5 -50.5s80.167 16.833 102.5 50.5s33.5 85.5 33.5 155.5c0 69.333 -11.167 120.833 -33.5 154.5s-56.166 50.5 -101.499 50.5c-46 0 -80.333 -17 -103 -51z" />
    <glyph glyph-name="pi" unicode="&#x3c0;" 
d="M474 456l0.00195312 -319.999c0 -26 3.66699 -44.5 11 -55.5s20.333 -18.5 39 -22.5l-30 -69c-38 9.33301 -64.833 24.5 -80.5 45.5s-23.5 51.833 -23.5 92.5v329h-191v-456h-85v456c-22.667 -0.666992 -38.834 -1.66699 -48.501 -3s-22.834 -4 -39.501 -8l-20 64
c16 7.33301 33.667 12.166 53 14.499s45 3.5 77 3.5h422v-71h-84z" />
    <glyph glyph-name="rho" unicode="&#x3c1;" 
d="M471.5 468.5c35 -46.333 52.5 -114.497 52.5 -204.497c0 -50.667 -7.66699 -96.834 -23 -138.501s-38.5 -74.834 -69.5 -99.501s-68.833 -37 -113.5 -37c-58 0 -104.667 20 -140 60v-251l-84 -10v483c0 87.333 18 153.666 54 198.999s89 68 159 68
c74.667 0 129.5 -23.167 164.5 -69.5zM207 417.503c-19.333 -35.667 -29 -89.168 -29 -160.501v-132c14 -21.333 31.667 -37.666 53 -48.999s44.333 -17 69 -17c43.333 0 76.333 17.5 99 52.5s34 85.833 34 152.5c0 70 -10.5 122 -31.5 156s-53.167 51 -96.5 51
c-46 0 -78.667 -17.833 -98 -53.5z" />
    <glyph glyph-name="uni03C2" unicode="&#x3c2;" 
d="M444.5 525.5c27 -8.33301 54.498 -22.8301 82.498 -43.4971l-42 -56c-22.667 14.667 -43.667 25.167 -63 31.5s-43 9.5 -71 9.5c-29.333 0 -56.166 -7.5 -80.499 -22.5s-43.666 -37.167 -57.999 -66.5s-21.5 -65 -21.5 -107c0 -34 4.33301 -60.5 13 -79.5
s23.834 -35.333 45.501 -49s54.834 -28.834 99.501 -45.501c38.667 -14 69 -26.833 91 -38.5s39 -25.834 51 -42.501s18 -37.667 18 -63c0 -36 -12.167 -66.833 -36.5 -92.5s-63.833 -50.5 -118.5 -74.5l-36 60c32.667 12.667 57.5 26.5 74.5 41.5s25.5 33.833 25.5 56.5
c0 14 -3.16699 25 -9.5 33s-17.5 15.667 -33.5 23s-43 18 -81 32c-66.667 24 -115.334 53.833 -146.001 89.5s-46 85.5 -46 149.5c0 55.333 10.5 103.166 31.5 143.499s50.167 71 87.5 92s79.666 31.5 126.999 31.5c37.333 0 69.5 -4.16699 96.5 -12.5z" />
    <glyph glyph-name="sigma" unicode="&#x3c3;" 
d="M559 456l-121.999 8.00098c27.333 -16.667 48.666 -42.834 63.999 -78.501s23 -79.5 23 -131.5c0 -52.667 -8.83301 -99 -26.5 -139s-43.5 -71 -77.5 -93s-74 -33 -120 -33c-71.333 0 -127 24.667 -167 74s-60 116 -60 200c0 82.667 22 148.167 66 196.5
s105 72.5 183 72.5c84.667 0 163.667 -1.66699 237 -5v-71zM400.501 108.501c22.333 33.667 33.5 85.5 33.5 155.5c0 96 -23.667 163.667 -71 203c-42.667 0.666992 -78.5 -4.66602 -107.5 -15.999s-51.5 -31.833 -67.5 -61.5s-24 -71.834 -24 -126.501
c0 -69.333 11.333 -120.833 34 -154.5s56.667 -50.5 102 -50.5c44.667 0 78.167 16.833 100.5 50.5z" />
    <glyph glyph-name="tau" unicode="&#x3c4;" 
d="M508 16c-12.667 -7.33301 -30.834 -13.667 -54.501 -19s-47.167 -8 -70.5 -8c-47.333 0 -85 13.333 -113 40s-42 63.667 -42 111v316h-45c-25.333 0 -46.666 -1.16699 -63.999 -3.5s-39.333 -6.83301 -66 -13.5l-14 66c22.667 8 46.334 13.667 71.001 17s53 5 85 5h312
v-71h-195v-326c0 -47.333 28.667 -71 86 -71c27.333 0 56.666 6 87.999 18z" />
    <glyph glyph-name="upsilon" unicode="&#x3c5;" 
d="M525 255c0 -59.333 -11.167 -108.999 -33.5 -148.999s-51.333 -69.5 -87 -88.5s-74.5 -28.5 -116.5 -28.5c-55.333 0 -100 14.667 -134 44s-51 72 -51 128v366h84v-358c0 -36.667 9 -64.334 27 -83.001s43.667 -28 77 -28c41.333 0 76.5 15.667 105.5 47
s43.5 84 43.5 158c0 88.667 -8.66699 176.667 -26 264h86c16.667 -91.333 25 -182 25 -272z" />
    <glyph glyph-name="phi" unicode="&#x3c6;" 
d="M526.5 471c26.333 -44.667 39.499 -112.332 39.499 -202.999c0 -171.333 -78.333 -264 -235 -278v-191l-79 -11v202c-74 6.66699 -128.833 30.834 -164.5 72.501s-53.5 100.5 -53.5 176.5c0 55.333 5 106.166 15 152.499s23.333 91.5 40 135.5h84
c-19.333 -57.333 -33.5 -107 -42.5 -149s-13.5 -81.333 -13.5 -118c0 -64 9.83301 -112.333 29.5 -145s54.834 -52.334 105.501 -59.001v262c0 72 11.5 126.667 34.5 164s61.5 56 115.5 56c56.667 0 98.167 -22.333 124.5 -67zM353.499 449.002
c-10.333 -14.667 -16.667 -33.168 -19 -55.501s-3.5 -52.833 -3.5 -91.5v-247c55.333 6 94.166 25.833 116.499 59.5s33.5 84.834 33.5 153.501c0 73.333 -5.83301 125.5 -17.5 156.5s-32.5 46.5 -62.5 46.5c-21.333 0 -37.166 -7.33301 -47.499 -22z" />
    <glyph glyph-name="chi" unicode="&#x3c7;" 
d="M553 -203l-88 -7.00098l-158 333l-162 -331l-86 6l197 385c-28 62.667 -52.5 113 -73.5 151s-40.833 69.167 -59.5 93.5s-41.667 50.5 -69 78.5l82 31c32.667 -33.333 62 -72.166 88 -116.499s53.667 -104.833 83 -181.5l138 295l89 -5l-177 -341z" />
    <glyph glyph-name="psi" unicode="&#x3c8;" 
d="M341 63c38.667 4.66699 68.3311 15 88.998 31s34.834 37.333 42.501 64s11.5 61.334 11.5 104.001c0 76.667 -8.66699 165 -26 265h85c8.66699 -47.333 15.167 -92.333 19.5 -135s6.5 -88.667 6.5 -138c0 -77.333 -18.667 -138.333 -56 -183
s-94.666 -70.334 -171.999 -77.001v-196l-80 -10v206c-73.333 5.33301 -128.333 26.333 -165 63s-55 82 -55 136v334h84v-326c0 -43.333 10.167 -75.833 30.5 -97.5s55.5 -35.167 105.5 -40.5v464h80v-464z" />
    <glyph glyph-name="omega" unicode="&#x3c9;" 
d="M574 239c0 -79.333 -13.002 -140.832 -39.002 -184.499s-64 -65.5 -114 -65.5c-34.667 0 -62.5 9.83301 -83.5 29.5s-33.833 48.5 -38.5 86.5c-7.33301 -37.333 -21.5 -66 -42.5 -86s-47.5 -30 -79.5 -30c-100.667 0 -151 83.333 -151 250
c0 107.333 16.667 203.333 50 288h75c-17.333 -52.667 -28.666 -100.334 -33.999 -143.001s-8 -91 -8 -145c0 -58 5.66699 -102.667 17 -134s31 -47 59 -47c50 0 75 57.667 75 173v126l80 11v-138c0 -55.333 5.5 -97.833 16.5 -127.5s30.167 -44.5 57.5 -44.5
c28.667 0 48.667 15.667 60 47s17 76 17 134c0 50.667 -3.16699 97.667 -9.5 141s-18.166 92.333 -35.499 147h77c34 -91.333 51 -187.333 51 -288z" />
    <glyph glyph-name="iotadieresis" unicode="&#x3ca;" 
d="M63 455l9.00098 71.999h252v-397c0 -47.333 29 -71 87 -71c28 0 57.667 6 89 18l22 -61c-12.667 -7.33301 -30.834 -13.666 -54.501 -18.999s-47.167 -8 -70.5 -8c-48 0 -86.167 13.333 -114.5 40s-42.5 63.667 -42.5 111v315h-177zM141.001 663.499
c-10.667 10.333 -16 22.833 -16 37.5c0 16 5.33301 29.167 16 39.5s23.667 15.5 39 15.5s28.166 -5.16699 38.499 -15.5s15.5 -23.5 15.5 -39.5c0 -15.333 -5.16699 -28 -15.5 -38s-23.166 -15 -38.499 -15s-28.333 5.16699 -39 15.5zM348.501 662.999
c-10.333 10 -15.5 22.667 -15.5 38c0 16 5.16699 29.167 15.5 39.5s23.166 15.5 38.499 15.5s28.333 -5.16699 39 -15.5s16 -23.5 16 -39.5c0 -14.667 -5.33301 -27.167 -16 -37.5s-23.667 -15.5 -39 -15.5s-28.166 5 -38.499 15z" />
    <glyph glyph-name="upsilondieresis" unicode="&#x3cb;" 
d="M525 255c0 -59.333 -11.167 -108.999 -33.5 -148.999s-51.333 -69.5 -87 -88.5s-74.5 -28.5 -116.5 -28.5c-55.333 0 -100 14.667 -134 44s-51 72 -51 128v366h84v-358c0 -36.667 9 -64.334 27 -83.001s43.667 -28 77 -28c41.333 0 76.5 15.667 105.5 47
s43.5 84 43.5 158c0 88.667 -8.66699 176.667 -26 264h86c16.667 -91.333 25 -182 25 -272zM157 663.501c-10.667 10.333 -16 22.833 -16 37.5c0 16 5.33301 29.167 16 39.5s23.667 15.5 39 15.5s28.166 -5.16699 38.499 -15.5s15.5 -23.5 15.5 -39.5
c0 -15.333 -5.16699 -28 -15.5 -38s-23.166 -15 -38.499 -15s-28.333 5.16699 -39 15.5zM364.5 663.001c-10.333 10 -15.5 22.667 -15.5 38c0 16 5.16699 29.167 15.5 39.5s23.166 15.5 38.499 15.5s28.333 -5.16699 39 -15.5s16 -23.5 16 -39.5
c0 -14.667 -5.33301 -27.167 -16 -37.5s-23.667 -15.5 -39 -15.5s-28.166 5 -38.499 15z" />
    </font>
</defs>
</svg>
